<svg width="213" height="38" viewBox="0 0 213 38" fill="none" xmlns="http://www.w3.org/2000/svg">
<path d="M87.9382 19.0035C87.9382 16.1498 87.9382 8.08398 87.9382 8.08398H109.254V12.3273H92.2895C92.2895 12.3273 92.2895 13.1583 92.2895 14.9653C92.2895 16.9419 92.2895 17.14 92.2895 17.14H105.81V21.2878H92.2895V26.0297H109.239V30.0361C103.805 29.976 87.9233 30.0361 87.9233 30.0361C87.9233 30.1493 87.9233 21.8677 87.9233 19.0106L87.9382 19.0035Z" fill="white"/>
<path d="M191.685 19.0035C191.685 16.1499 191.685 8.08398 191.685 8.08398H213V12.3273H196.032C196.032 12.3273 196.032 13.1583 196.032 14.9653C196.032 16.9419 196.032 17.14 196.032 17.14H209.564V21.2878H196.032V26.0403H212.982V30.0256C207.548 29.9654 191.666 30.0256 191.666 30.0256C191.666 30.1387 191.666 21.8571 191.666 19L191.685 19.0035Z" fill="white"/>
<path d="M138.538 13.3134C138.538 9.83391 139.58 8.21791 143.123 8.09061H157.089C157.296 8.08716 157.502 8.09542 157.708 8.11536C160.047 8.38411 161.614 10.1875 161.64 12.7406C161.681 16.9839 161.707 21.1954 161.64 25.4211C161.581 28.4374 159.972 29.9367 156.8 29.9791C152.259 30.0392 148.857 29.9791 144.317 30.011C141.607 30.011 138.557 28.9112 138.557 25.6863C138.538 23.0519 138.542 15.0037 138.538 13.3134ZM150.217 12.3445C142.912 12.3445 142.912 12.3445 142.912 19.1162C142.912 26.0647 142.912 26.0647 150.325 26.0576C157.367 26.0576 157.367 26.0576 157.367 19.2753C157.393 12.3304 157.393 12.3304 150.217 12.3445Z" fill="white"/>
<path d="M165.076 8.09061C165.076 8.09061 167.885 8.15426 169.631 8.09061H183.597C183.804 8.08716 184.01 8.09542 184.216 8.11536C186.555 8.38411 188.122 10.1875 188.148 12.7406C188.189 16.9839 188.215 21.1954 188.148 25.4211C188.089 28.4374 186.48 29.9367 183.308 29.9791C178.767 30.0392 175.365 29.9791 170.825 30.011C169.16 30.011 165.091 30.011 165.091 30.011L165.076 8.09061ZM176.725 12.3339H169.405C169.405 12.3339 169.405 15.6968 169.405 19.095C169.405 22.3411 169.405 26.0328 169.405 26.0328C169.405 26.0328 172.893 26.0328 176.851 26.0328C183.893 26.0328 183.893 26.0328 183.893 19.2506C183.901 12.3304 183.901 12.3304 176.729 12.3445L176.725 12.3339Z" fill="white"/>
<path d="M116.967 30.0363C113.942 30.0823 112.519 28.4946 112.412 25.8779C112.212 21.4436 112.26 16.9952 112.412 12.5573C112.512 9.81332 114.302 8.14781 117.134 8.10892C122.456 8.03819 127.778 8.18317 133.101 8.10892C134.713 8.08063 135.532 8.10892 135.532 8.10892L135.462 12.2603H119.584C117.286 12.3629 116.618 12.7341 116.6 15.1175C116.574 16.9103 116.659 18.7102 116.659 20.51C116.659 26.0547 116.659 26.0547 122.63 26.0617C125.847 26.0617 135.54 26.0617 135.54 26.0617C135.577 28.781 135.54 30.0469 135.54 30.0469C135.54 30.0469 119.524 29.9974 116.967 30.0363Z" fill="white"/>
<path d="M76.3443 21.3797C76.3443 23.3917 76.3443 30.0361 76.3443 30.0361H71.9671C71.9671 30.0361 71.8337 18.9362 71.9448 14.7035C71.9893 12.9354 71.9671 12.3449 71.9671 12.3449H62.853L62.8753 8.10156H85.4843C85.451 9.34274 85.4287 12.3449 85.4287 12.3449H76.3443C76.3443 12.3449 76.3481 19.2615 76.3443 21.3797Z" fill="white"/>
<path d="M62.1938 8.09045L51.6713 21.4216V30.0355H47.4645V21.418C46.5713 19.5121 36.79 8.08691 36.79 8.08691H41.853L49.5734 17.6097C49.5734 17.6097 56.1857 9.50489 57.1086 8.08691L62.1938 8.09045Z" fill="white"/>
<path d="M25.426 18.8651C26.2246 18.5683 26.9463 18.1099 27.5413 17.5214C28.1364 16.933 28.5907 16.2284 28.8729 15.4563C30.096 12.334 28.3651 8.76601 25.1035 7.83955C24.2846 7.61092 23.4364 7.49191 22.5831 7.48594C17.9501 7.45058 13.3171 7.45765 8.68411 7.48594C8.44735 7.49615 8.21116 7.45609 7.9926 7.36865C7.77403 7.2812 7.57854 7.14856 7.42023 6.98028C5.19638 4.83386 2.9503 2.71573 0.719043 0.579922L0.0963667 0H2.03111L3.10226 0.993651C3.57298 1.43566 3.80648 1.66197 4.15488 1.99437C4.33207 2.19505 4.55722 2.35218 4.81136 2.45248C5.0655 2.55279 5.3412 2.59336 5.61521 2.57075C11.2934 2.57075 16.9716 2.57075 22.6647 2.57075C25.9745 2.57075 28.8914 3.51136 31.2228 5.80276C32.8245 7.3969 33.8817 9.41701 34.2549 11.5964C34.6281 13.7757 34.2998 16.0118 33.3132 18.0094C33.1476 18.2893 33.0587 18.6046 33.0548 18.9261C33.0509 19.2475 33.1321 19.5647 33.291 19.8482C36.4043 26.3157 32.6127 33.7203 25.4037 35.0959C24.5715 35.2314 23.7273 35.2882 22.8834 35.2656C17.1483 35.2845 11.4133 35.2845 5.67822 35.2656C5.38744 35.2489 5.09663 35.2978 4.82938 35.4084C4.56213 35.519 4.32597 35.6882 4.14006 35.9021C3.69158 36.3866 2.01629 37.8965 2.01629 37.8965H0L0.596732 37.3519C2.95895 35.1124 5.32364 32.8729 7.69079 30.6333C7.78026 30.5494 7.88719 30.4843 8.00466 30.4423C8.12213 30.4003 8.24753 30.3822 8.37277 30.3893C13.4506 30.4141 18.5283 30.3893 23.6061 30.4494C25.5297 30.4706 28.1576 28.6107 28.8618 26.6021C29.9255 23.5823 28.6135 20.2018 25.526 19.0561C25.5001 19.0561 25.4111 19.0243 25.3815 18.9677C25.3518 18.9111 25.426 18.8651 25.426 18.8651Z" fill="white"/>
<path d="M8.70281 29.4737C9.40703 28.8584 10.1224 28.2537 10.8118 27.6243C11.6272 26.8782 12.4426 26.1356 13.2061 25.3435C13.3464 25.1684 13.5316 25.0309 13.744 24.9441C13.9563 24.8574 14.1885 24.8244 14.4181 24.8484H22.7872C22.9132 24.8484 23.1059 24.8484 23.2319 24.8484C23.266 24.8475 23.2985 24.8342 23.3226 24.8112C23.3467 24.7882 23.3607 24.7572 23.3616 24.7247C23.3616 24.6469 23.3616 24.318 23.3616 24.2402C23.3641 24.2256 23.3629 24.2107 23.3582 24.1966C23.3535 24.1825 23.3455 24.1696 23.3347 24.159C23.3239 24.1483 23.3107 24.1402 23.2961 24.1353C23.2815 24.1304 23.2658 24.1288 23.2505 24.1306H22.7872C20.6115 24.1306 18.4358 24.1306 16.2602 24.1306C14.3477 24.1306 12.6835 23.5754 11.5864 22.0089C11.0097 21.2206 10.6659 20.2988 10.5909 19.3401C10.5159 18.3814 10.7125 17.4211 11.1602 16.5598C12.0349 14.7281 13.6546 13.5965 15.7264 13.6319C15.7264 13.6319 22.802 13.6319 23.3542 13.6319C23.3629 13.6321 23.3714 13.6293 23.3781 13.6242C23.3849 13.619 23.3896 13.6117 23.3913 13.6036C23.3913 13.5682 23.3913 13.25 23.3913 13.0732C23.3913 13.0507 23.3819 13.0291 23.3652 13.0132C23.3486 12.9973 23.3259 12.9883 23.3023 12.9883H22.4832C19.8257 12.9883 17.1719 12.9706 14.5145 12.9883C14.2644 13.0001 14.0147 12.9583 13.7838 12.8659C13.5529 12.7735 13.3466 12.6329 13.1801 12.4544C11.8162 11.1107 10.4152 9.79876 9.03268 8.47272C8.97 8.40555 8.91182 8.33469 8.85848 8.26055C8.84103 8.2422 8.8288 8.21988 8.82296 8.19574C8.81712 8.1716 8.81786 8.14643 8.82512 8.12264C8.82512 8.0696 9.14758 8.08374 9.26248 8.08374C13.7546 8.08374 18.2431 8.10496 22.7353 8.10142C25.1 8.10142 26.9865 8.93948 27.9984 11.0364C28.4849 11.9603 28.6742 13.0008 28.5423 14.0271C28.4104 15.0533 27.9632 16.0194 27.2571 16.8038C26.1452 18.1581 24.5403 18.5718 22.8094 18.5718C20.8302 18.5718 18.8547 18.5718 16.8791 18.5718C16.6827 18.5718 16.4826 18.5718 16.2861 18.5718H15.9155C15.8978 18.5714 15.8802 18.5743 15.8638 18.5805C15.8474 18.5868 15.8325 18.5961 15.82 18.608C15.8075 18.62 15.7977 18.6342 15.7912 18.6499C15.7846 18.6655 15.7815 18.6823 15.782 18.6991C15.782 18.7663 15.782 18.8406 15.782 18.8795C15.782 18.9184 15.782 19.0598 15.782 19.1412C15.783 19.1715 15.7963 19.2003 15.8192 19.2214C15.842 19.2425 15.8726 19.2543 15.9044 19.2543H16.275H19.5107C20.9228 19.2543 22.3424 19.1942 23.7434 19.3144C26.6641 19.562 28.6025 21.7402 28.5432 24.5832C28.4839 27.4263 26.3601 29.6257 23.484 29.6717C18.6286 29.7495 13.7695 29.6929 8.91037 29.6929H8.44336L8.70281 29.4737Z" fill="white"/>
</svg>
