<svg width="265" height="279" viewBox="0 0 265 279" fill="none" xmlns="http://www.w3.org/2000/svg">
<path d="M130.748 118.066L130.36 118.782L131.083 118.407L154.161 106.41H160.082H160.082C161.773 106.408 163.395 105.734 164.591 104.535C165.786 103.337 166.459 101.712 166.461 100.018V100.017V86.1337V86.1335C166.459 84.4389 165.786 82.8142 164.591 81.6158C163.395 80.4174 161.773 79.7432 160.082 79.7413H160.082L132.829 79.7413L132.829 79.7413C131.137 79.7432 129.516 80.4174 128.32 81.6158C127.124 82.8142 126.452 84.4389 126.45 86.1335V86.1337L126.45 99.9975L126.45 99.9977C126.452 101.692 127.124 103.317 128.32 104.515C129.516 105.714 131.137 106.388 132.829 106.39H132.829H137.062L130.748 118.066ZM133.222 115.995L138.819 105.592L139.017 105.224H138.599H132.816C131.434 105.222 130.108 104.671 129.131 103.691C128.153 102.711 127.603 101.383 127.602 99.9973V86.1139C127.603 84.7281 128.153 83.3997 129.131 82.42C130.108 81.4403 131.433 80.8893 132.816 80.8876L160.082 80.9075C160.082 80.9075 160.082 80.9075 160.082 80.9075C161.464 80.9093 162.789 81.4603 163.767 82.44C164.744 83.4198 165.294 84.7482 165.296 86.134V99.9972C165.294 101.383 164.744 102.711 163.767 103.691C162.789 104.671 161.464 105.222 160.082 105.224H153.933H153.872L153.818 105.252L133.222 115.995Z" fill="#3D525D" stroke="#3D525D" stroke-width="0.5"/>
<path d="M153.904 85.0413V84.7913H153.654H130.974H130.724V85.0413V85.7074V85.9574H130.974H153.654H153.904V85.7074V85.0413Z" fill="#3D525D" stroke="#3D525D" stroke-width="0.5"/>
<path d="M161.881 89.1184V88.8684H161.631H130.974H130.724V89.1184V89.7846V90.0346H130.974H161.631H161.881V89.7846V89.1184Z" fill="#3D525D" stroke="#3D525D" stroke-width="0.5"/>
<path d="M161.881 92.7025V92.4525H161.631H130.974H130.724V92.7025V93.3687V93.6187H130.974H161.631H161.881V93.3687V92.7025Z" fill="#3D525D" stroke="#3D525D" stroke-width="0.5"/>
<path d="M161.881 96.28V96.03H161.631H130.974H130.724V96.28V96.9462V97.1962H130.974H161.631H161.881V96.9462V96.28Z" fill="#3D525D" stroke="#3D525D" stroke-width="0.5"/>
<path d="M161.881 99.8577V99.6077H161.631H130.974H130.724V99.8577V100.524V100.774H130.974H161.631H161.881V100.524V99.8577Z" fill="#3D525D" stroke="#3D525D" stroke-width="0.5"/>
<g style="mix-blend-mode:multiply">
<path d="M264.993 275.896C264.993 277.614 262.221 279 258.798 279H6.20169C2.77843 279 0.0065918 277.608 0.0065918 275.896C0.0065918 274.183 2.77843 272.791 6.20169 272.791H258.792C262.215 272.791 264.987 274.183 264.987 275.896H264.993Z" fill="#C9C9C9"/>
</g>
<path d="M95.3328 209.322H88.2271V267.228H95.3328V209.322Z" fill="#515151"/>
<path d="M62.6555 272.957C62.6555 272.864 62.6555 272.777 62.6555 272.684C62.6555 269.633 89.4899 261.525 91.7898 261.825C99.4937 262.838 120.924 269.633 120.924 272.684C120.924 272.777 120.924 272.864 120.924 272.957H62.6555Z" fill="#727272"/>
<path d="M98.2907 205.97H85.269V220.72H98.2907V205.97Z" fill="#2D2D2D"/>
<path d="M140.101 205.404H96.0107V208.715H140.101V205.404Z" fill="#31444E"/>
<path d="M81.8125 116.612H41.5576C41.5576 116.612 41.7304 124.267 42.4816 139.057C43.2327 153.847 49.6604 190.355 53.642 195.684C57.6237 201.014 66.6571 211.174 96.5424 206.677C104.652 193.186 81.8125 116.612 81.8125 116.612Z" fill="#1E2127"/>
<g style="mix-blend-mode:multiply">
<path d="M81.8125 116.612H60.9074C59.8039 123.055 59.1858 129.377 62.7021 134.66C73.3374 152.647 68.6845 171.967 63.3668 189.289C62.4673 191.685 62.0489 194.235 62.1356 196.794C62.2223 199.353 62.8124 201.869 63.872 204.198C70.333 207.256 80.39 209.115 96.5491 206.683C104.652 193.186 81.8125 116.612 81.8125 116.612Z" fill="#EFDEB9"/>
</g>
<path d="M41.5576 116.612C41.6108 117.025 46.8089 159.323 49.7402 176.697C52.871 195.231 57.9095 202.32 69.0168 203.785C75.6108 204.658 89.357 204.758 99.4606 204.705V208.702H94.9671C85.495 208.702 74.4076 208.509 68.4984 207.729C53.5557 205.731 48.7432 194.638 45.8251 177.344C42.8804 159.896 37.6757 118.984 37.6226 118.571L41.5576 116.612Z" fill="#3D525D"/>
<path d="M162.07 152.761C162.07 152.761 167.72 150.542 170.93 149.317C174.141 148.091 181.346 157.311 181.346 157.311L160.627 158.37L162.07 152.761Z" fill="#FFC88D"/>
<path d="M122.067 81.4768C122.592 85.1276 120.658 88.7185 117.733 89.4713C114.809 90.2241 112.017 87.9323 111.485 84.2882C110.953 80.6441 112.901 77.0466 115.819 76.2937C118.737 75.5409 121.535 77.8327 122.067 81.4768Z" fill="#E10000"/>
<path d="M120.452 81.5435C120.977 85.1943 119.043 88.7851 116.118 89.5379C113.193 90.2908 110.402 87.999 109.87 84.3549C109.338 80.7107 111.279 77.1132 114.204 76.3604C117.129 75.6076 119.92 77.9193 120.452 81.5435Z" fill="#FF4013"/>
<path d="M85.7998 62.3537C89.2454 59.852 89.8075 54.7369 87.0551 50.9289C84.3027 47.1209 79.2782 46.0619 75.8325 48.5636C72.3868 51.0653 71.8248 56.1804 74.5771 59.9884C77.3295 63.7964 82.3541 64.8554 85.7998 62.3537Z" fill="#7C3212"/>
<path d="M93.3854 54.7154C96.1373 58.5195 95.7185 65.6346 92.2753 68.1395C88.8321 70.6444 82.7899 70.1847 80.038 66.374C77.2861 62.5633 79.3733 57.4402 82.3113 54.3823C86.0736 50.3851 90.6202 50.8981 93.3854 54.7154Z" fill="#E10000"/>
<path d="M101.967 94.3146V101.103L111.665 105.214C111.665 105.214 104.665 119.784 94.2427 119.87C83.82 119.957 79.4927 118.465 80.43 115.207C81.3672 111.949 82.5305 105.6 82.5305 105.6C82.5305 105.6 88.3932 103.182 89.6229 101.103C91.2116 98.4384 90.507 89.1116 90.507 89.1116L101.967 94.3146Z" fill="#FFC384"/>
<path d="M117.361 81.5835C117.361 81.5835 118.611 79.9313 119.721 80.391C120.831 80.8506 120.299 85.8005 118.172 87.7192C116.045 89.6379 114.849 89.1316 114.782 88.3854C114.716 87.6393 117.361 81.5835 117.361 81.5835Z" fill="#F7B274"/>
<path d="M119.867 77.2865C119.269 85.7206 115.713 102.602 107.012 101.077C97.1475 100.943 90.6466 89.6979 90.6466 89.6979C90.6466 89.6979 86.778 89.1649 86.3858 84.4881C85.9936 79.8114 87.8548 78.3457 89.0447 79.9446C88.6458 76.074 90.959 68.5392 90.959 68.5392C90.959 68.5392 113.931 66.0409 116.736 65.7744C119.542 65.508 120.146 73.3559 119.867 77.2865Z" fill="#FFC384"/>
<path d="M119.867 77.2865C119.269 85.7206 115.713 102.602 107.012 101.077C97.1475 100.943 90.6466 89.6979 90.6466 89.6979C90.6466 89.6979 86.778 89.1649 86.3858 84.4881C85.9936 79.8114 87.8548 78.3457 89.0447 79.9446C88.6458 76.074 90.959 68.5392 90.959 68.5392C90.959 68.5392 113.931 66.0409 116.736 65.7744C119.542 65.508 120.146 73.3559 119.867 77.2865Z" fill="#FFC384"/>
<path d="M106.068 91.8164C107.725 92.3706 109.417 92.8157 111.133 93.1488C112.196 93.1388 113.257 93.0632 114.31 92.9223C114.31 92.9223 110.787 101.17 106.068 91.8164Z" fill="white"/>
<path d="M100.724 69.1054C100.724 69.1054 112.256 69.9582 115.015 68.6058C117.773 67.2534 118.272 67.8063 118.89 68.9389C119.508 70.0714 118.225 74.0553 119.309 76.0339C120.585 78.4123 119.03 80.7906 119.143 83.0624C123.131 70.8176 121.848 57.2003 109.877 53.4896C97.9052 49.7788 86.3259 49.7122 80.8155 64.3487C78.5422 70.3845 81.3074 84.8612 88.4796 88.6918C88.4796 88.6918 85.1893 84.195 86.7048 80.804C87.3097 79.4716 89.9685 79.7714 90.3275 81.3702C90.8194 83.0453 91.4166 84.6874 92.1156 86.2868C92.1156 86.2868 92.0557 81.1304 92.3682 79.7913C92.6806 78.4523 94.7279 75.3744 94.2493 73.7156C93.1326 69.8249 96.3498 68.3859 100.724 69.1054Z" fill="#934016"/>
<path d="M106.208 55.4683C105.901 55.1966 105.576 54.9451 105.237 54.7155C105.549 54.9686 105.908 55.2151 106.208 55.4683Z" fill="#A0451D"/>
<path d="M111.153 55.0286C113.387 57.7535 114.588 61.1821 114.543 64.7085C113.34 60.4848 109.405 57.8999 106.208 55.4683C109.345 58.1997 110.01 62.3968 111.22 66.0409C109.225 62.7099 107.896 59.3789 105.237 57.3803C107.231 60.0451 106.567 63.3761 107.231 66.0409C105.237 60.7113 101.249 56.7141 95.2665 54.7155C99.2547 57.3803 104.572 61.3775 103.243 67.3733C101.395 61.8105 95.539 54.5356 88.8653 56.7141C88.7324 56.834 88.5994 56.9472 88.4731 57.0672C89.8573 56.838 91.2763 56.95 92.6076 57.3936C97.2008 59.3922 101.136 63.2895 101.249 69.1521C103.516 69.2987 112.615 69.8183 115.022 68.6192C115.706 68.2416 116.447 67.9783 117.215 67.8397C117.271 65.3785 116.751 62.9384 115.699 60.7141C114.646 58.4898 113.09 56.5428 111.153 55.0286Z" fill="#A0451D"/>
<path d="M109.897 53.4962C109.298 53.3097 108.707 53.1498 108.122 52.9966C113.44 55.8879 117.235 60.7445 117.235 67.833C118.166 67.7264 118.518 68.2127 118.917 68.9455C119.535 70.0781 118.252 74.062 119.336 76.0406C120.612 78.419 119.056 80.7973 119.169 83.0691C123.104 70.8176 121.861 57.207 109.897 53.4962Z" fill="#A85720"/>
<path d="M82.6432 104.974C82.6432 104.974 102.365 118.298 111.671 104.974C118.983 112.522 120.977 112.968 122.526 117.852C124.075 122.735 132.496 146.945 133.161 148.717C133.826 150.489 162.854 150.935 162.854 150.935V159.823C162.854 159.823 127.458 160.875 126.408 159.823C125.357 158.77 115.879 134.953 115.879 134.953C115.879 134.953 118.391 143.154 114.29 147.151C110.189 151.149 109.012 164.599 109.012 164.599L78.2162 163.713C78.2162 163.713 78.1498 148.47 77.1527 142.974C76.1556 137.478 63.5261 122.848 72.0079 111.862C75.245 108.638 82.6432 104.974 82.6432 104.974Z" fill="#E10000"/>
<path d="M115.879 134.953C114.55 126.772 114.403 118.598 117.208 110.417C115.799 109.084 114.004 107.392 111.658 104.967C102.352 118.291 82.6302 104.967 82.6302 104.967C82.6302 104.967 75.2253 108.631 71.9948 111.862C63.5264 122.848 76.1559 137.505 77.153 142.968C78.15 148.43 78.2165 163.706 78.2165 163.706L109.013 164.593C109.013 164.593 110.196 151.142 114.29 147.145C117.973 143.554 116.324 136.579 115.945 135.193L115.879 134.953Z" fill="#FFF5F0"/>
<g style="mix-blend-mode:multiply">
<path d="M97.3866 117.812L95.9043 117.772L97.38 117.559C97.38 117.559 100.704 104.121 98.4369 94.5744C89.1641 92.9089 89.5164 107.232 90.8459 110.23C91.8296 112.455 91.1118 115.96 90.673 117.625L88.4064 117.559C87.2963 127.918 87.6818 134.44 88.5061 138.477C85.8472 132.895 82.3774 125.153 81.0081 122.488C78.9143 118.425 72.4201 111.616 69.3957 118.738C69.1219 119.957 69.0567 121.214 69.2029 122.455C70.1135 130.836 76.4615 139.11 77.1794 142.954C77.3921 144.147 77.5649 145.792 77.7045 147.618C81.4934 156.085 82.4173 157.371 83.328 158.33C84.4779 159.543 94.4951 171.095 99.4672 151.502C101.255 134.986 97.3866 117.812 97.3866 117.812Z" fill="#EFDEB9"/>
</g>
<path d="M85.0762 78.3657C85.0762 77.6195 85.1825 59.9518 95.4922 54.0692C101.548 50.6116 106.546 50.9646 111.013 53.0499C113.928 54.459 116.385 56.6673 118.099 59.4188C114.476 55.215 106.134 50.2984 96.4759 55.8013C87.17 61.1309 87.0703 78.1858 87.0703 78.359L85.0762 78.3657Z" fill="#A0A0A0"/>
<g style="mix-blend-mode:multiply">
<path d="M110.561 96.1533C110.174 96.12 109.79 96.2414 109.493 96.4911C109.195 96.7408 109.008 97.0983 108.972 97.4857C108.967 97.5567 108.967 97.628 108.972 97.6989C99.8326 100.037 93.6841 95.3872 90.6064 92.1028V93.0888C93.7682 96.4123 98.0124 98.4919 102.571 98.9514C104.779 99.1208 106.999 98.9159 109.139 98.3451C109.265 98.5641 109.446 98.7466 109.663 98.8752C109.881 99.0037 110.128 99.0739 110.38 99.079C110.633 99.0841 110.882 99.0239 111.104 98.9042C111.327 98.7845 111.515 98.6094 111.65 98.3957C111.785 98.1821 111.863 97.9371 111.877 97.6844C111.89 97.4317 111.838 97.1798 111.726 96.9531C111.614 96.7264 111.445 96.5325 111.236 96.39C111.028 96.2476 110.786 96.1615 110.534 96.14L110.561 96.1533Z" fill="#EFDEB9"/>
</g>
<path d="M103.655 97.3792C93.9099 97.3792 88.1934 89.3847 88.127 89.2715L88.672 88.8917C88.7518 89.0116 97.0008 100.55 110.548 95.3806L110.787 96.0001C108.514 96.8936 106.096 97.361 103.655 97.3792Z" fill="#4F4F4F"/>
<path d="M111.359 96.8595C112.17 96.8595 112.828 96.2004 112.828 95.3872C112.828 94.5741 112.17 93.9149 111.359 93.9149C110.547 93.9149 109.89 94.5741 109.89 95.3872C109.89 96.2004 110.547 96.8595 111.359 96.8595Z" fill="#FF4013"/>
<path d="M88.8865 90.8948C91.6542 90.2503 93.1846 86.6511 92.3048 82.8558C91.425 79.0604 88.468 76.5062 85.7003 77.1507C82.9326 77.7952 81.4022 81.3944 82.282 85.1897C83.1619 88.985 86.1188 91.5393 88.8865 90.8948Z" fill="#FF4013"/>
<path d="M87.6685 90.8976C90.4362 90.2531 91.9666 86.6539 91.0867 82.8586C90.2069 79.0632 87.25 76.509 84.4823 77.1535C81.7146 77.798 80.1842 81.3972 81.064 85.1925C81.9438 88.9878 84.9007 91.5421 87.6685 90.8976Z" fill="#E10000"/>
<path d="M101.255 114.927C101.255 114.927 100.75 109.164 101.408 107.512C102.066 105.86 103.661 103.135 102.697 101.923C101.734 100.71 103.987 97.3726 103.987 97.3726C104.153 95.4339 99.58 91.6765 95.4189 94.6078C91.2578 97.5391 93.3317 104.814 93.6308 107.332C93.9299 109.851 95.0533 114.994 95.0533 114.994L101.255 114.927Z" fill="#FFCEA1"/>
<path d="M69.389 114.754C69.389 114.754 67.0094 121.169 75.5376 134.986C84.0658 148.804 86.0068 153.2 87.1567 154.413C88.3067 155.625 97.3135 165.405 102.286 145.812C103.359 135.225 103.422 124.56 102.472 113.961L93.631 113.421C91.0519 137.518 91.2846 141.049 91.7299 140.483C90.0682 138.611 83.0887 122.568 81.0015 118.498C78.9143 114.427 72.4135 107.632 69.389 114.754Z" fill="#E10000"/>
<path d="M104.991 81.6035C104.599 81.1855 104.127 80.8517 103.602 80.6226C103.078 80.3936 102.512 80.274 101.94 80.2711C100.886 80.3638 99.9005 80.8373 99.1682 81.6035L98.6697 81.1571C99.5202 80.2565 100.673 79.7035 101.907 79.6049C102.57 79.6032 103.226 79.7384 103.834 80.002C104.443 80.2656 104.99 80.652 105.443 81.1372L104.991 81.6035Z" fill="#934016"/>
<path d="M118.219 81.5435C117.654 80.6175 117.095 80.1578 116.537 80.1778C115.633 80.1778 114.935 81.5102 114.928 81.5102L114.337 81.2038C114.37 81.1372 115.207 79.5449 116.51 79.4983C117.308 79.4983 118.086 80.0379 118.784 81.1838L118.219 81.5435Z" fill="#934016"/>
<path d="M96.5356 78.9187C96.6147 78.7851 96.7012 78.6561 96.7949 78.5323C97.0392 78.2035 97.3057 77.8919 97.5925 77.5996C97.772 77.4131 97.9781 77.2332 98.1974 77.04C98.4371 76.8435 98.6879 76.6611 98.9485 76.4937C99.2263 76.3081 99.5199 76.1475 99.826 76.014C100.144 75.8707 100.473 75.7526 100.81 75.661C101.157 75.585 101.511 75.5426 101.867 75.5344C102.213 75.5257 102.558 75.5707 102.89 75.6676C103.05 75.7142 103.216 75.7476 103.362 75.8009L103.774 76.0207C103.907 76.094 104.04 76.1606 104.16 76.2339L104.466 76.5004C104.65 76.6446 104.82 76.8075 104.971 76.9867L105.297 77.4197C105.469 77.6596 105.562 77.7995 105.562 77.7995C105.562 77.7995 105.423 77.6929 105.203 77.5063L104.805 77.1666C104.626 77.0361 104.439 76.916 104.246 76.8068L103.927 76.607L103.562 76.4604L103.176 76.3072L102.757 76.2272C102.48 76.1884 102.198 76.1839 101.92 76.2139C101.613 76.228 101.308 76.2703 101.009 76.3405C100.705 76.4169 100.407 76.5171 100.118 76.6403C99.8331 76.7528 99.5556 76.8841 99.2875 77.0333C99.015 77.1666 98.7757 77.3398 98.5298 77.473C98.2838 77.6063 98.0711 77.7728 97.8651 77.9194C97.0408 78.4723 96.5356 78.9187 96.5356 78.9187Z" fill="#934016"/>
<path d="M114.689 77.0332C114.828 76.78 115.033 76.5685 115.281 76.4203C115.399 76.3399 115.526 76.2729 115.659 76.2204C115.813 76.1619 115.974 76.1238 116.138 76.1072C116.315 76.0844 116.493 76.0844 116.67 76.1072C116.85 76.143 117.026 76.1965 117.195 76.2671C117.514 76.4097 117.802 76.616 118.039 76.8733C118.151 76.9825 118.251 77.1031 118.338 77.2331C118.418 77.353 118.491 77.4729 118.558 77.5795C118.654 77.7585 118.734 77.9458 118.797 78.1391C118.843 78.279 118.863 78.359 118.863 78.359L118.684 78.2124C118.571 78.1191 118.431 77.9726 118.252 77.8193C118.072 77.6661 118.066 77.6594 117.966 77.5728C117.866 77.4862 117.747 77.4129 117.647 77.3197C117.538 77.2303 117.423 77.1501 117.301 77.0798C117.185 77.0014 117.06 76.9366 116.929 76.8866C116.805 76.8279 116.676 76.7811 116.543 76.7467C116.414 76.7194 116.283 76.7016 116.151 76.6934C115.905 76.6797 115.659 76.7044 115.42 76.7667C115.168 76.8304 114.923 76.9197 114.689 77.0332Z" fill="#934016"/>
<path d="M109.79 89.9976C111.06 89.5105 112.356 89.0946 113.672 88.7518C114.669 88.5853 114.629 90.1442 114.629 90.1442L109.79 89.9976Z" fill="#F2AA68"/>
<path d="M151.474 274.496H136.631C134.97 274.496 130.868 266.835 130.868 266.835V274.496H128.655C128.655 274.496 125.331 261.699 130.25 258.661C134.857 264.836 145.206 268.654 145.206 268.654L151.474 274.496Z" fill="#161616"/>
<path d="M137.515 248.574C137.515 248.574 136.186 257.848 136.405 259.62C136.625 261.392 143.83 267.501 145.379 268.834C141.391 270.279 139.616 270.279 137.07 268.834C134.524 267.388 129.978 261.839 129.539 260.839C130.286 258.747 130.842 256.59 131.201 254.397C131.526 252.079 131.71 249.743 131.752 247.402L137.515 248.574Z" fill="#F9B87D"/>
<path d="M93.1992 180.362C93.1992 180.362 77.0268 205.637 98.6299 205.138C120.233 204.638 136.685 205.138 136.685 205.138C136.685 205.138 131.088 215.797 130.536 226.67C129.984 237.542 130.536 252.432 130.536 252.432L137.462 254.21C137.462 254.21 146.163 224.231 150.816 213.352C155.469 202.473 156.353 190.481 141.956 189.149C127.558 187.817 93.1992 180.362 93.1992 180.362Z" fill="#07335B"/>
<path d="M141.95 189.149C127.545 187.817 93.2065 180.362 93.2065 180.362C93.2065 180.362 77.0341 205.638 98.6372 205.138C120.24 204.638 136.692 205.138 136.692 205.138C136.692 205.138 136.566 205.384 136.346 205.804C139.244 203.139 142.575 201.44 147.121 202.586C149.57 203.599 151.576 205.457 152.778 207.823C155.324 198.756 153.934 190.255 141.95 189.149Z" fill="#062E4C"/>
<path d="M136.186 275.149H121.343C119.681 275.149 115.58 267.488 115.58 267.488V275.149H113.366C113.366 275.149 110.043 262.352 114.962 259.314C119.568 265.489 129.918 269.307 129.918 269.307L136.186 275.149Z" fill="#282828"/>
<path d="M122.227 249.221C122.227 249.221 120.898 258.494 121.117 260.266C121.336 262.038 128.542 268.148 130.091 269.48C126.102 270.926 124.327 270.926 121.782 269.48C119.236 268.034 114.689 262.485 114.25 261.485C114.997 259.393 115.554 257.237 115.912 255.043C116.237 252.725 116.422 250.389 116.464 248.048L122.227 249.221Z" fill="#FFC88D"/>
<path d="M72.6729 182.966C72.6729 182.966 61.7051 206.283 83.3082 205.784C104.911 205.284 121.363 205.784 121.363 205.784C121.363 205.784 115.766 216.443 115.214 227.315C114.663 238.188 115.214 253.077 115.214 253.077L122.141 254.856C122.141 254.856 130.842 224.877 135.495 213.998C140.148 203.119 141.032 191.127 126.634 189.795C112.236 188.462 72.6729 182.966 72.6729 182.966Z" fill="#0A3A78"/>
<path d="M138.379 199.109C137.608 194.185 134.272 190.501 126.654 189.782C112.25 188.449 72.6995 182.953 72.6995 182.953C72.6995 182.953 61.7318 206.27 83.3348 205.771C104.938 205.271 121.389 205.771 121.389 205.771C121.389 205.771 121.163 206.21 120.791 206.983C125.517 201.047 131.473 196.697 138.379 199.109Z" fill="#083566"/>
<path d="M68.4718 164.599H17.9539V275.149H68.4718V164.599Z" stroke="#2D2D2D" stroke-width="4" stroke-miterlimit="10"/>
<path d="M68.4652 197.949H17.2759V200.614H68.4652V197.949Z" fill="#2D2D2D"/>
<path d="M244.208 197.949H193.012V200.614H244.208V197.949Z" fill="#2D2D2D"/>
<path d="M243.729 164.599H193.211V271.638H243.729V164.599Z" stroke="#2D2D2D" stroke-width="4" stroke-miterlimit="10"/>
<path d="M246.395 164.599H68.4717V186.697H246.395V164.599Z" fill="#CBCBCB"/>
<path d="M74.8796 164.599H10.9744V186.697H74.8796V164.599Z" fill="#EFEFEF"/>
<path d="M251.028 160.156H6.42773V169.036H251.028V160.156Z" fill="#DFDFDF"/>
<path d="M71.5693 160.156H6.42773V169.036H71.5693V160.156Z" fill="#F9F9F9"/>
<path d="M243.729 205.657H213.864V272.957H243.729V205.657Z" fill="#444444"/>
<path d="M213.871 205.657H167.394V272.957H213.871V205.657Z" fill="#6D6D6D"/>
<path d="M202.457 216.077H173.709V216.91H202.457V216.077Z" fill="#444444"/>
<path d="M202.457 218.175H173.709V219.008H202.457V218.175Z" fill="#444444"/>
<path d="M202.457 220.267H173.709V221.1H202.457V220.267Z" fill="#444444"/>
<path d="M202.457 222.366H173.709V223.199H202.457V222.366Z" fill="#444444"/>
<path d="M202.457 224.464H173.709V225.297H202.457V224.464Z" fill="#444444"/>
<path d="M202.457 226.556H173.709V227.389H202.457V226.556Z" fill="#444444"/>
<path d="M202.457 228.655H173.709V229.488H202.457V228.655Z" fill="#444444"/>
<path d="M202.457 230.747H173.709V231.579H202.457V230.747Z" fill="#444444"/>
<path d="M202.457 232.845H173.709V233.678H202.457V232.845Z" fill="#444444"/>
<path d="M241.263 213.565H217.759V214.398H241.263V213.565Z" fill="#333333"/>
<path d="M241.263 215.664H217.759V216.497H241.263V215.664Z" fill="#333333"/>
<path d="M241.263 217.756H217.759V218.588H241.263V217.756Z" fill="#333333"/>
<path d="M241.263 219.854H217.759V220.687H241.263V219.854Z" fill="#333333"/>
<path d="M241.263 221.953H217.759V222.786H241.263V221.953Z" fill="#333333"/>
<path d="M241.263 234.704H217.759V235.537H241.263V234.704Z" fill="#333333"/>
<path d="M241.263 236.796H217.759V237.629H241.263V236.796Z" fill="#333333"/>
<path d="M241.263 238.894H217.759V239.727H241.263V238.894Z" fill="#333333"/>
<path d="M241.263 240.986H217.759V241.819H241.263V240.986Z" fill="#333333"/>
<path d="M241.263 243.085H217.759V243.918H241.263V243.085Z" fill="#333333"/>
<path d="M241.263 255.836H217.759V256.669H241.263V255.836Z" fill="#333333"/>
<path d="M241.263 257.928H217.759V258.761H241.263V257.928Z" fill="#333333"/>
<path d="M241.263 260.026H217.759V260.859H241.263V260.026Z" fill="#333333"/>
<path d="M241.263 262.125H217.759V262.958H241.263V262.125Z" fill="#333333"/>
<path d="M241.263 264.217H217.759V265.05H241.263V264.217Z" fill="#333333"/>
<path d="M202.457 243.878H173.709V244.71H202.457V243.878Z" fill="#444444"/>
<path d="M202.457 245.97H173.709V246.802H202.457V245.97Z" fill="#444444"/>
<path d="M202.457 248.068H173.709V248.901H202.457V248.068Z" fill="#444444"/>
<path d="M202.457 250.16H173.709V250.993H202.457V250.16Z" fill="#444444"/>
<path d="M202.457 252.259H173.709V253.091H202.457V252.259Z" fill="#444444"/>
<path d="M202.457 254.35H173.709V255.183H202.457V254.35Z" fill="#444444"/>
<path d="M202.457 256.449H173.709V257.282H202.457V256.449Z" fill="#444444"/>
<path d="M202.457 258.541H173.709V259.374H202.457V258.541Z" fill="#444444"/>
<path d="M202.457 260.639H173.709V261.472H202.457V260.639Z" fill="#444444"/>
<path d="M218.098 156.651H152.292V160.082H218.098V156.651Z" fill="#424242"/>
<path d="M152.465 156.651H140.407V160.082H152.465V156.651Z" fill="#6D6D6D"/>
<path d="M159.57 145.706C159.318 147.038 161.372 150.569 162.728 150.569L228.461 148.164C229.149 148.137 229.809 147.881 230.335 147.435C230.861 146.99 231.224 146.381 231.366 145.706L240.844 105.487C241.097 104.155 238.578 101.097 237.222 101.097H170.305C169.62 101.121 168.961 101.373 168.434 101.813C167.907 102.253 167.541 102.857 167.394 103.528L159.57 145.706Z" fill="#F4F4F4"/>
<path d="M161.159 148.164C161.088 148.462 161.087 148.772 161.156 149.07C161.224 149.369 161.359 149.648 161.552 149.885C161.745 150.123 161.989 150.313 162.267 150.441C162.544 150.568 162.848 150.631 163.153 150.622H230.043C230.731 150.595 231.391 150.339 231.917 149.894C232.443 149.448 232.806 148.84 232.948 148.164L240.771 106.013C240.842 105.715 240.843 105.405 240.775 105.107C240.706 104.808 240.571 104.53 240.378 104.292C240.185 104.054 239.941 103.864 239.663 103.737C239.386 103.609 239.082 103.547 238.777 103.555H171.887C171.199 103.582 170.539 103.838 170.013 104.284C169.487 104.729 169.124 105.338 168.983 106.013L161.159 148.164Z" fill="#ADADAD"/>
<path d="M198.111 110.873C197.967 110.873 197.826 110.912 197.703 110.988C197.58 111.063 197.481 111.171 197.415 111.3L194.243 118.99C194.145 119.228 194.291 119.417 194.57 119.417C194.713 119.417 194.855 119.377 194.977 119.302C195.1 119.227 195.2 119.119 195.265 118.99L198.438 111.3C198.535 111.062 198.389 110.873 198.111 110.873Z" fill="#565656"/>
<path d="M201.158 110.873C201.015 110.873 200.873 110.912 200.751 110.988C200.628 111.063 200.528 111.171 200.463 111.3L197.29 118.99C197.193 119.228 197.339 119.417 197.617 119.417C197.761 119.417 197.902 119.377 198.025 119.302C198.148 119.227 198.247 119.119 198.313 118.99L201.485 111.3C201.583 111.062 201.416 110.873 201.158 110.873Z" fill="#565656"/>
<path d="M204.199 110.873C204.055 110.873 203.914 110.912 203.791 110.988C203.668 111.063 203.569 111.171 203.503 111.3L200.33 118.99C200.233 119.228 200.379 119.417 200.657 119.417C200.801 119.417 200.942 119.377 201.065 119.302C201.188 119.227 201.288 119.119 201.353 118.99L204.526 111.3C204.63 111.062 204.484 110.873 204.199 110.873Z" fill="#565656"/>
<path d="M207.254 110.873C207.11 110.873 206.969 110.912 206.846 110.988C206.723 111.063 206.623 111.171 206.558 111.3L203.385 118.99C203.288 119.228 203.434 119.417 203.712 119.417C203.856 119.417 203.997 119.377 204.12 119.302C204.243 119.227 204.342 119.119 204.408 118.99L207.581 111.3C207.678 111.062 207.532 110.873 207.254 110.873Z" fill="#565656"/>
<path d="M210.301 110.873C210.157 110.873 210.016 110.912 209.893 110.988C209.77 111.063 209.671 111.171 209.605 111.3L206.433 118.99C206.335 119.228 206.481 119.417 206.76 119.417C206.903 119.417 207.045 119.377 207.167 119.302C207.29 119.227 207.39 119.119 207.455 118.99L210.628 111.3C210.725 111.062 210.579 110.873 210.301 110.873Z" fill="#565656"/>
<path d="M213.355 110.873C213.212 110.873 213.07 110.912 212.948 110.988C212.825 111.063 212.725 111.171 212.66 111.3L209.487 118.99C209.39 119.228 209.536 119.417 209.814 119.417C209.958 119.417 210.099 119.377 210.222 119.302C210.345 119.227 210.444 119.119 210.51 118.99L213.682 111.3C213.773 111.062 213.627 110.873 213.355 110.873Z" fill="#565656"/>
<path d="M210.687 125.946C210.687 125.946 213.013 142.268 213.512 148.264C214.01 154.26 215.007 160.089 207.862 160.089H192.241L196.01 158.277L197.612 154.446L195.139 125.853L210.687 125.946Z" fill="#A9A9A9"/>
<path d="M175.936 160.089H191.556C193.889 160.089 195.544 159.503 196.661 158.297C198.655 156.145 198.31 152.514 197.991 148.67L197.891 147.544C197.399 141.595 195.179 126.019 195.159 125.853L194.262 129.044C194.262 129.204 196.076 141.742 196.568 147.651L196.668 148.784C196.98 152.328 197.279 155.672 195.704 157.398C194.866 158.31 193.517 158.73 191.583 158.73H175.962L175.936 160.089Z" fill="#F4F4F4"/>
<path d="M227.909 239.787C228.397 239.777 228.867 239.598 229.239 239.281C235.394 234.358 234.902 190.555 234.663 169.503V166.838C234.443 145.952 215.28 140.423 215.087 140.37L214.907 141.036C215.1 141.089 233.779 146.492 233.998 166.864V169.529C234.217 188.849 234.729 234.065 228.826 238.781C228.658 238.934 228.455 239.042 228.235 239.098C228.014 239.154 227.784 239.155 227.564 239.101L227.411 239.767C227.575 239.794 227.743 239.801 227.909 239.787Z" fill="#C6C6C6"/>
<path d="M233.533 239.787C234.021 239.777 234.49 239.598 234.862 239.281C241.017 234.358 240.525 190.555 240.286 169.503V166.838C240.067 145.946 219.015 140.423 218.789 140.37L218.63 141.036C218.836 141.089 239.409 146.499 239.628 166.864V169.529C239.847 188.849 240.359 234.065 234.457 238.781C234.288 238.934 234.085 239.042 233.865 239.098C233.645 239.154 233.414 239.155 233.194 239.101L233.041 239.767C233.203 239.793 233.369 239.8 233.533 239.787Z" fill="#C6C6C6"/>
<path d="M41.4711 100.743C40.2381 100.721 39.0212 100.459 37.8883 99.9707C33.9931 98.3718 29.7522 94.9275 27.2529 92.216C24.1886 88.885 19.5224 80.7773 22.0948 76.4003L22.1347 76.347C22.1347 76.347 23.8496 74.4617 24.4213 73.8088C25.4383 72.6429 26.5483 72.6496 27.6916 73.8088C28.835 74.968 31.414 77.6195 31.886 78.1791C32.225 78.5788 33.2154 79.7913 31.5403 81.5101C31.0152 82.0364 30.6031 82.4361 30.284 82.7493C29.9586 83.0427 29.6543 83.3589 29.3734 83.6953L29.3002 83.8019C29.1341 84.0284 28.9214 84.3148 29.8254 85.3874C30.982 86.7665 34.9769 91.0302 36.7051 92.3426C37.1106 92.6824 37.3698 92.6491 37.6889 92.256C38.008 91.8629 38.5131 91.3766 39.0582 90.8037C39.4304 90.4173 39.7827 90.0509 39.9888 89.831C40.176 89.6139 40.4077 89.4397 40.668 89.3203C40.9284 89.2009 41.2114 89.1391 41.4977 89.1391C41.784 89.1391 42.067 89.2009 42.3273 89.3203C42.5877 89.4397 42.8194 89.6139 43.0066 89.831C43.9837 90.817 46.8552 93.7749 47.3338 94.2879C48.4505 95.5071 47.8723 96.6263 47.1876 97.3458C46.3336 98.2714 45.4258 99.1457 44.4689 99.964C43.5774 100.536 42.5276 100.809 41.4711 100.743ZM22.6731 76.7601C20.32 80.8772 24.8135 88.5519 27.7648 91.7697C30.191 94.4345 34.3388 97.7655 38.1409 99.3577C39.1919 99.8109 40.3206 100.055 41.4644 100.077C42.379 100.134 43.2881 99.9005 44.0635 99.411C44.9976 98.6121 45.8853 97.7602 46.7223 96.8595C47.6728 95.8535 47.294 95.1806 46.8619 94.7076C46.4298 94.2346 43.5383 91.25 42.5546 90.2707C42.4246 90.1235 42.2664 90.004 42.0894 89.9193C41.9124 89.8346 41.7202 89.7864 41.5243 89.7777C41.3294 89.7855 41.1381 89.8319 40.9612 89.9142C40.7844 89.9965 40.6256 90.1132 40.494 90.2574C40.2879 90.4772 39.9356 90.8503 39.5567 91.2434C39.0383 91.783 38.4533 92.3892 38.2273 92.669C38.126 92.821 37.9921 92.9484 37.8353 93.0418C37.6786 93.1352 37.503 93.1923 37.3214 93.209C37.1397 93.2256 36.9567 93.2013 36.7857 93.1378C36.6147 93.0744 36.4599 92.9734 36.3329 92.8423C34.5515 91.5099 30.5566 87.2328 29.3534 85.8005C28.1503 84.3681 28.4694 83.8352 28.8084 83.3888L28.8615 83.3155C29.1635 82.9369 29.497 82.5848 29.8586 82.2629C30.1777 81.9498 30.5898 81.5501 31.1083 81.0304C32.225 79.9112 31.9192 79.205 31.414 78.6121C30.9088 78.0192 28.6023 75.6342 27.2596 74.2818C26.3955 73.4157 25.7374 73.3758 24.9597 74.2818C24.4146 74.8814 22.8858 76.5402 22.6797 76.7734L22.6731 76.7601Z" fill="#3D525D" stroke="#3D525D"/>
<path d="M51.209 96.4399C51.7596 96.4399 52.206 95.9925 52.206 95.4406C52.206 94.8887 51.7596 94.4413 51.209 94.4413C50.6583 94.4413 50.2119 94.8887 50.2119 95.4406C50.2119 95.9925 50.6583 96.4399 51.209 96.4399Z" fill="#3D525D"/>
<path d="M55.031 96.4399C55.5817 96.4399 56.0281 95.9925 56.0281 95.4406C56.0281 94.8887 55.5817 94.4413 55.031 94.4413C54.4803 94.4413 54.0339 94.8887 54.0339 95.4406C54.0339 95.9925 54.4803 96.4399 55.031 96.4399Z" fill="#3D525D"/>
<path d="M58.8533 96.4399C59.4039 96.4399 59.8503 95.9925 59.8503 95.4406C59.8503 94.8887 59.4039 94.4413 58.8533 94.4413C58.3026 94.4413 57.8562 94.8887 57.8562 95.4406C57.8562 95.9925 58.3026 96.4399 58.8533 96.4399Z" fill="#3D525D"/>
<path d="M62.6753 96.4399C63.226 96.4399 63.6724 95.9925 63.6724 95.4406C63.6724 94.8887 63.226 94.4413 62.6753 94.4413C62.1246 94.4413 61.6782 94.8887 61.6782 95.4406C61.6782 95.9925 62.1246 96.4399 62.6753 96.4399Z" fill="#3D525D"/>
<path d="M66.4973 96.4399C67.048 96.4399 67.4944 95.9925 67.4944 95.4406C67.4944 94.8887 67.048 94.4413 66.4973 94.4413C65.9466 94.4413 65.5002 94.8887 65.5002 95.4406C65.5002 95.9925 65.9466 96.4399 66.4973 96.4399Z" fill="#3D525D"/>
<path d="M70.3193 96.4399C70.87 96.4399 71.3164 95.9925 71.3164 95.4406C71.3164 94.8887 70.87 94.4413 70.3193 94.4413C69.7687 94.4413 69.3223 94.8887 69.3223 95.4406C69.3223 95.9925 69.7687 96.4399 70.3193 96.4399Z" fill="#3D525D"/>
<path d="M74.1416 96.4399C74.6923 96.4399 75.1387 95.9925 75.1387 95.4406C75.1387 94.8887 74.6923 94.4413 74.1416 94.4413C73.5909 94.4413 73.1445 94.8887 73.1445 95.4406C73.1445 95.9925 73.5909 96.4399 74.1416 96.4399Z" fill="#3D525D"/>
<path d="M77.9636 96.4399C78.5143 96.4399 78.9607 95.9925 78.9607 95.4406C78.9607 94.8887 78.5143 94.4413 77.9636 94.4413C77.413 94.4413 76.9666 94.8887 76.9666 95.4406C76.9666 95.9925 77.413 96.4399 77.9636 96.4399Z" fill="#3D525D"/>
<path d="M81.7856 96.4399C82.3363 96.4399 82.7827 95.9925 82.7827 95.4406C82.7827 94.8887 82.3363 94.4413 81.7856 94.4413C81.235 94.4413 80.7886 94.8887 80.7886 95.4406C80.7886 95.9925 81.235 96.4399 81.7856 96.4399Z" fill="#3D525D"/>
<path d="M85.6076 96.4399C86.1583 96.4399 86.6047 95.9925 86.6047 95.4406C86.6047 94.8887 86.1583 94.4413 85.6076 94.4413C85.057 94.4413 84.6106 94.8887 84.6106 95.4406C84.6106 95.9925 85.057 96.4399 85.6076 96.4399Z" fill="#3D525D"/>
<path d="M84.0923 36.508C84.6429 36.508 85.0893 36.0606 85.0893 35.5087C85.0893 34.9568 84.6429 34.5094 84.0923 34.5094C83.5416 34.5094 83.0952 34.9568 83.0952 35.5087C83.0952 36.0606 83.5416 36.508 84.0923 36.508Z" fill="#3D525D"/>
<path d="M87.9143 36.508C88.465 36.508 88.9114 36.0606 88.9114 35.5087C88.9114 34.9568 88.465 34.5094 87.9143 34.5094C87.3636 34.5094 86.9172 34.9568 86.9172 35.5087C86.9172 36.0606 87.3636 36.508 87.9143 36.508Z" fill="#3D525D"/>
<path d="M91.7366 36.508C92.2872 36.508 92.7336 36.0606 92.7336 35.5087C92.7336 34.9568 92.2872 34.5094 91.7366 34.5094C91.1859 34.5094 90.7395 34.9568 90.7395 35.5087C90.7395 36.0606 91.1859 36.508 91.7366 36.508Z" fill="#3D525D"/>
<path d="M95.5586 36.508C96.1092 36.508 96.5556 36.0606 96.5556 35.5087C96.5556 34.9568 96.1092 34.5094 95.5586 34.5094C95.0079 34.5094 94.5615 34.9568 94.5615 35.5087C94.5615 36.0606 95.0079 36.508 95.5586 36.508Z" fill="#3D525D"/>
<path d="M99.3806 36.508C99.9313 36.508 100.378 36.0606 100.378 35.5087C100.378 34.9568 99.9313 34.5094 99.3806 34.5094C98.8299 34.5094 98.3835 34.9568 98.3835 35.5087C98.3835 36.0606 98.8299 36.508 99.3806 36.508Z" fill="#3D525D"/>
<path d="M103.203 36.508C103.753 36.508 104.2 36.0606 104.2 35.5087C104.2 34.9568 103.753 34.5094 103.203 34.5094C102.652 34.5094 102.206 34.9568 102.206 35.5087C102.206 36.0606 102.652 36.508 103.203 36.508Z" fill="#3D525D"/>
<path d="M107.025 36.508C107.575 36.508 108.022 36.0606 108.022 35.5087C108.022 34.9568 107.575 34.5094 107.025 34.5094C106.474 34.5094 106.028 34.9568 106.028 35.5087C106.028 36.0606 106.474 36.508 107.025 36.508Z" fill="#3D525D"/>
<path d="M110.847 36.508C111.398 36.508 111.844 36.0606 111.844 35.5087C111.844 34.9568 111.398 34.5094 110.847 34.5094C110.296 34.5094 109.85 34.9568 109.85 35.5087C109.85 36.0606 110.296 36.508 110.847 36.508Z" fill="#3D525D"/>
<path d="M114.669 36.508C115.22 36.508 115.666 36.0606 115.666 35.5087C115.666 34.9568 115.22 34.5094 114.669 34.5094C114.118 34.5094 113.672 34.9568 113.672 35.5087C113.672 36.0606 114.118 36.508 114.669 36.508Z" fill="#3D525D"/>
<path d="M118.491 36.508C119.042 36.508 119.488 36.0606 119.488 35.5087C119.488 34.9568 119.042 34.5094 118.491 34.5094C117.94 34.5094 117.494 34.9568 117.494 35.5087C117.494 36.0606 117.94 36.508 118.491 36.508Z" fill="#3D525D"/>
<path d="M122.895 66.5187L122.723 67.1925L123.285 66.7824L132.416 60.1145C136.381 62.2896 140.947 63.115 145.424 62.4636C149.954 61.8045 154.141 59.6702 157.341 56.3898C160.541 53.1095 162.575 48.8654 163.13 44.3119C163.684 39.7585 162.729 35.1485 160.411 31.1929C158.093 27.2373 154.541 24.1556 150.303 22.4233C146.065 20.691 141.375 20.4042 136.958 21.6073C132.541 22.8104 128.641 25.4364 125.861 29.0803C123.08 32.7241 121.573 37.1834 121.571 41.7705C121.555 46.4095 123.096 50.918 125.942 54.5729L122.895 66.5187ZM142.414 21.7715V22.0215H142.414C142.414 22.0215 142.415 22.0215 142.415 22.0215L142.414 21.7715ZM127.033 54.0703L127.031 54.0682L126.84 54.229L127.035 54.0724C127.034 54.0717 127.034 54.071 127.033 54.0703ZM124.655 64.3297L124.338 64.5612L124.241 64.9416L124.558 64.7101L124.655 64.3297ZM132.667 58.9085L132.543 59.1256L132.667 58.9087L132.667 58.9085ZM142.467 22.0215C142.467 22.0215 142.467 22.0215 142.467 22.0215H142.467V21.7715L142.467 22.0215Z" fill="#3D525D" stroke="#3D525D" stroke-width="0.5"/>
<path d="M148.074 37.86L148.074 37.8602L148.125 37.9305C148.125 37.931 148.125 37.9315 148.126 37.932C148.31 38.1781 148.501 38.5019 148.457 38.9675C148.414 39.4175 148.155 39.9548 147.571 40.6524C146.994 41.3416 145.689 42.782 144.306 44.2156C142.934 45.6371 141.469 47.0709 140.558 47.7558C140.408 47.9065 140.227 48.023 140.028 48.097L139.941 47.8626L140.028 48.097C139.822 48.1734 139.601 48.2027 139.382 48.1827C139.163 48.1627 138.952 48.0939 138.763 47.9814C138.579 47.8719 138.422 47.7236 138.301 47.5471C138.13 47.3538 137.807 47.0112 137.461 46.6436C137.304 46.4771 137.143 46.3055 136.988 46.1404C136.609 45.7467 136.256 45.3734 136.05 45.1531L136.048 45.1507L136.048 45.1507C135.938 45.0309 135.806 44.934 135.66 44.8656L135.765 44.639L135.66 44.8656C135.516 44.7988 135.361 44.7605 135.203 44.7528C135.044 44.7612 134.888 44.8009 134.745 44.8696C134.598 44.9398 134.467 45.0389 134.359 45.161L134.354 45.1667L134.349 45.1721C133.372 46.1508 130.517 49.0926 130.048 49.6017C129.821 49.8487 129.669 50.0816 129.65 50.3413C129.632 50.5925 129.736 50.9367 130.186 51.4126L130.187 51.4141C131.013 52.3035 131.889 53.1448 132.811 53.9339C133.539 54.3889 134.39 54.6052 135.247 54.5525L135.257 54.5519L135.257 54.5521C136.368 54.5307 137.465 54.2933 138.486 53.853L138.491 53.8512L138.491 53.8512C142.248 52.3105 146.393 48.9662 148.776 46.3269L148.777 46.3257C150.231 44.7371 152.078 42.0329 153.266 39.2237C153.86 37.8198 154.285 36.3997 154.419 35.0865C154.551 33.785 154.395 32.6062 153.852 31.6504C153.549 31.3381 152.09 29.7279 151.584 29.1367M148.074 37.86L151.773 28.9733M148.074 37.86L148.067 37.851C147.757 37.4632 147.415 37.1022 147.045 36.7718C146.976 36.7043 146.903 36.6328 146.826 36.5572C146.545 36.2818 146.206 35.9503 145.802 35.5454C145.273 35.0156 145.134 34.6012 145.141 34.2911C145.148 33.9748 145.308 33.7044 145.51 33.4647C145.934 32.9615 148.318 30.4856 149.649 29.1509M148.074 37.86L149.473 28.9733M151.584 29.1367C151.584 29.1364 151.584 29.1361 151.583 29.1358L151.773 28.9733M151.584 29.1367C151.584 29.1369 151.585 29.1372 151.585 29.1375L151.773 28.9733M151.584 29.1367C151.214 28.7124 150.92 28.5671 150.66 28.5712C150.389 28.5755 150.069 28.7404 149.649 29.1509M151.773 28.9733C150.996 28.0806 150.337 28.1272 149.473 28.9733M149.649 29.1509C149.65 29.1505 149.65 29.1502 149.65 29.1498L149.473 28.9733M149.649 29.1509C149.649 29.1512 149.649 29.1516 149.648 29.1519L149.473 28.9733M132.062 54.8388L132.075 54.85L132.089 54.8593C133.022 55.4569 134.12 55.7435 135.225 55.6781C136.488 55.6549 137.734 55.3858 138.895 54.886C142.854 53.2684 147.123 49.7911 149.618 47.0698L149.618 47.0698C151.173 45.3732 153.121 42.4886 154.36 39.4727C154.98 37.964 155.426 36.4124 155.552 34.9531C155.678 33.4941 155.485 32.1113 154.807 30.9585L154.8 30.9465L154.792 30.9354L154.752 30.8821L154.744 30.8721L154.736 30.863L154.552 31.0318L154.736 30.863L154.736 30.8629L154.736 30.8626L154.735 30.8616L154.731 30.8576L154.717 30.8419L154.661 30.7814L154.459 30.5604C154.29 30.3746 154.058 30.12 153.808 29.8446C153.307 29.2926 152.738 28.6608 152.455 28.3308L152.455 28.3308L152.453 28.3282C151.924 27.7287 151.356 27.3597 150.721 27.3468C150.087 27.3339 149.463 27.6769 148.824 28.317C147.59 29.5539 145.096 32.1335 144.616 32.7027L144.616 32.7026L144.61 32.7095C144.602 32.7209 144.592 32.7332 144.581 32.7463C144.413 32.9592 144.065 33.3968 143.973 34.0018C143.871 34.6652 144.079 35.4724 144.976 36.3715C145.495 36.8918 145.908 37.2995 146.236 37.6143L146.236 37.6144L146.241 37.6196C146.555 37.9029 146.849 38.2076 147.12 38.5314L147.18 38.6182C147.188 38.6323 147.195 38.6454 147.202 38.6578C147.264 38.7669 147.292 38.8176 147.275 38.9313C147.25 39.0896 147.123 39.3782 146.676 39.9117C146.103 40.5944 144.82 41.995 143.463 43.3932C142.102 44.7945 140.683 46.1758 139.835 46.8294L139.835 46.8293L139.827 46.8358C139.663 46.9738 139.553 46.9868 139.483 46.975C139.401 46.9612 139.304 46.9027 139.191 46.7752C138.928 46.4773 138.359 45.8801 137.815 45.3151L137.813 45.3135C137.436 44.9285 137.088 44.5663 136.892 44.3501C136.681 44.107 136.421 43.9118 136.129 43.7779C135.836 43.6435 135.518 43.5739 135.195 43.5739C134.873 43.5739 134.555 43.6435 134.262 43.7779C133.972 43.9107 133.714 44.1038 133.504 44.3442C132.49 45.3345 129.655 48.2823 129.175 48.8034L129.175 48.8039C128.57 49.4646 128.41 50.1261 128.518 50.7329C128.623 51.323 128.975 51.8253 129.322 52.2003C130.182 53.1332 131.097 54.0142 132.062 54.8388ZM129.864 49.4324C129.392 49.9454 129.053 50.5783 130.004 51.5843L129.864 49.4324Z" fill="#3D525D" stroke="#3D525D" stroke-width="0.5"/>
<path d="M92.7336 25.6356C99.7968 25.6356 105.523 19.8969 105.523 12.8178C105.523 5.73872 99.7968 0 92.7336 0C85.6704 0 79.9446 5.73872 79.9446 12.8178C79.9446 19.8969 85.6704 25.6356 92.7336 25.6356Z" fill="#3D525D"/>
<path d="M17.9473 34.5046C17.9473 29.4297 22.0612 25.3158 27.136 25.3158H66.5883C71.6631 25.3158 75.7771 29.4297 75.7771 34.5046C75.7771 39.5794 71.6631 43.6933 66.5883 43.6933H27.136C22.0612 43.6933 17.9473 39.5794 17.9473 34.5046Z" fill="#3D525D"/>
<path d="M92.0439 14.0649C92.0439 13.6954 92.1254 13.3898 92.2885 13.1482C92.4586 12.9066 92.7032 12.6401 93.0223 12.3487C93.2563 12.1355 93.4265 11.9579 93.5328 11.8158C93.6463 11.6665 93.703 11.4995 93.703 11.3148C93.703 11.0519 93.5966 10.8458 93.3839 10.6965C93.1783 10.5402 92.9018 10.462 92.5544 10.462C92.2211 10.462 91.9233 10.5331 91.661 10.6752C91.4057 10.8102 91.1895 11.0021 91.0122 11.2508L89.7253 10.494C90.0231 10.0392 90.4237 9.68747 90.9271 9.43875C91.4376 9.19003 92.0403 9.06567 92.7352 9.06567C93.5505 9.06567 94.2028 9.23978 94.6921 9.58798C95.1884 9.93618 95.4365 10.4194 95.4365 11.0376C95.4365 11.329 95.3869 11.5848 95.2876 11.8051C95.1955 12.0254 95.0785 12.2137 94.9367 12.3701C94.802 12.5193 94.6247 12.6934 94.4049 12.8924C94.1426 13.1269 93.9511 13.3258 93.8306 13.4893C93.7101 13.6456 93.6498 13.8375 93.6498 14.0649H92.0439ZM92.8521 16.7404C92.5614 16.7404 92.3168 16.648 92.1183 16.4632C91.9269 16.2713 91.8311 16.0404 91.8311 15.7704C91.8311 15.5003 91.9269 15.2765 92.1183 15.0988C92.3097 14.9141 92.5544 14.8217 92.8521 14.8217C93.1499 14.8217 93.3945 14.9141 93.586 15.0988C93.7774 15.2765 93.8731 15.5003 93.8731 15.7704C93.8731 16.0404 93.7739 16.2713 93.5753 16.4632C93.3839 16.648 93.1428 16.7404 92.8521 16.7404Z" fill="white"/>
<path d="M29.3059 34.5916C29.5337 34.6702 29.7112 34.7937 29.8382 34.9622C29.9689 35.1269 30.0343 35.3197 30.0343 35.5406C30.0343 35.7802 29.9558 35.988 29.799 36.1639C29.6421 36.3399 29.4292 36.4747 29.1602 36.5683C28.895 36.6619 28.6036 36.7087 28.2861 36.7087C28.0172 36.7087 27.7483 36.675 27.4793 36.6076C27.2141 36.5402 26.962 36.4372 26.7229 36.2987L27.0031 35.6473C27.1749 35.7521 27.3635 35.8326 27.569 35.8888C27.7781 35.9412 27.9817 35.9674 28.1797 35.9674C28.4486 35.9674 28.6709 35.9187 28.8464 35.8214C29.0257 35.7241 29.1154 35.5874 29.1154 35.4115C29.1154 35.2654 29.0538 35.155 28.9305 35.0801C28.811 35.0053 28.6466 34.9678 28.4374 34.9678H27.4793V34.2827H28.3702C28.5532 34.2827 28.6952 34.2453 28.796 34.1704C28.9006 34.0955 28.9529 33.9926 28.9529 33.8615C28.9529 33.7081 28.8782 33.5883 28.7288 33.5021C28.5831 33.416 28.3945 33.373 28.1629 33.373C27.991 33.373 27.8136 33.3973 27.6306 33.446C27.4476 33.4909 27.2739 33.5602 27.1095 33.6538L26.835 32.9462C27.2496 32.7328 27.6978 32.6261 28.1797 32.6261C28.486 32.6261 28.768 32.671 29.0257 32.7609C29.2835 32.8507 29.4889 32.9818 29.6421 33.154C29.7952 33.3262 29.8718 33.5265 29.8718 33.7549C29.8718 33.942 29.8214 34.1086 29.7205 34.2546C29.6197 34.4006 29.4815 34.513 29.3059 34.5916Z" fill="white"/>
<path d="M34.0643 35.9225V37.2927H33.2518V36.6413H31.1339V37.2927H30.3214V35.9225H30.4447C30.6315 35.9187 30.7603 35.8083 30.8313 35.5912C30.9023 35.374 30.9471 35.0652 30.9658 34.6646L31.005 33.6201H33.6328V35.9225H34.0643ZM31.7558 34.7264C31.7446 35.0333 31.7203 35.2842 31.683 35.4788C31.6494 35.6735 31.584 35.8214 31.4869 35.9225H32.7587V34.3389H31.7726L31.7558 34.7264Z" fill="white"/>
<path d="M36.3905 33.5752C36.6706 33.5752 36.9246 33.6407 37.1525 33.7717C37.3841 33.899 37.5652 34.0806 37.696 34.3164C37.8267 34.5485 37.8921 34.8199 37.8921 35.1307C37.8921 35.4414 37.8267 35.7147 37.696 35.9506C37.5652 36.1827 37.3841 36.3642 37.1525 36.4953C36.9246 36.6226 36.6706 36.6862 36.3905 36.6862C36.0057 36.6862 35.7032 36.5645 35.4828 36.3212V37.7307H34.6087V33.6201H35.4436V33.9682C35.6602 33.7062 35.9758 33.5752 36.3905 33.5752ZM36.2392 35.9674C36.4633 35.9674 36.6463 35.8925 36.7883 35.7428C36.934 35.5893 37.0068 35.3852 37.0068 35.1307C37.0068 34.8761 36.934 34.6739 36.7883 34.5242C36.6463 34.3707 36.4633 34.2939 36.2392 34.2939C36.0151 34.2939 35.8302 34.3707 35.6845 34.5242C35.5425 34.6739 35.4716 34.8761 35.4716 35.1307C35.4716 35.3852 35.5425 35.5893 35.6845 35.7428C35.8302 35.8925 36.0151 35.9674 36.2392 35.9674Z" fill="white"/>
<path d="M39.6265 33.5752C40.0934 33.5752 40.452 33.6875 40.7022 33.9121C40.9525 34.133 41.0777 34.468 41.0777 34.9173V36.6413H40.2596V36.265C40.0953 36.5458 39.789 36.6862 39.3407 36.6862C39.1091 36.6862 38.9074 36.6469 38.7356 36.5683C38.5675 36.4897 38.4386 36.3811 38.349 36.2426C38.2593 36.104 38.2145 35.9468 38.2145 35.7709C38.2145 35.4901 38.3191 35.2692 38.5283 35.1082C38.7412 34.9472 39.068 34.8667 39.5088 34.8667H40.2036C40.2036 34.6758 40.1457 34.5298 40.0299 34.4287C39.9141 34.3239 39.7404 34.2715 39.5088 34.2715C39.3482 34.2715 39.1894 34.2977 39.0326 34.3501C38.8794 34.3988 38.7487 34.4662 38.6403 34.5523L38.3266 33.9402C38.4909 33.8241 38.687 33.7343 38.9149 33.6706C39.1465 33.607 39.3837 33.5752 39.6265 33.5752ZM39.5592 36.0966C39.7086 36.0966 39.8413 36.0629 39.957 35.9955C40.0728 35.9243 40.155 35.8214 40.2036 35.6866V35.3778H39.6041C39.2455 35.3778 39.0662 35.4957 39.0662 35.7315C39.0662 35.8439 39.1091 35.9337 39.195 36.0011C39.2847 36.0647 39.4061 36.0966 39.5592 36.0966Z" fill="white"/>
<path d="M44.1398 35.0633C44.4946 35.1831 44.6721 35.4227 44.6721 35.7821C44.6721 36.0554 44.5694 36.2669 44.3639 36.4166C44.1585 36.5664 43.8522 36.6413 43.445 36.6413H41.8369V33.6201H43.3778C43.755 33.6201 44.0501 33.6893 44.2631 33.8279C44.476 33.9626 44.5824 34.1536 44.5824 34.4006C44.5824 34.5504 44.5432 34.6833 44.4648 34.7994C44.3901 34.9117 44.2817 34.9996 44.1398 35.0633ZM42.6382 34.8611H43.2993C43.6056 34.8611 43.7588 34.7526 43.7588 34.5354C43.7588 34.322 43.6056 34.2153 43.2993 34.2153H42.6382V34.8611ZM43.3722 36.046C43.6934 36.046 43.854 35.9356 43.854 35.7147C43.854 35.5986 43.8167 35.5144 43.742 35.462C43.6673 35.4058 43.5496 35.3778 43.389 35.3778H42.6382V36.046H43.3722Z" fill="white"/>
<path d="M46.7568 36.6862C46.4356 36.6862 46.1461 36.6207 45.8883 36.4897C45.6343 36.3549 45.4345 36.1696 45.2888 35.9337C45.1469 35.6979 45.0759 35.4302 45.0759 35.1307C45.0759 34.8312 45.1469 34.5635 45.2888 34.3276C45.4345 34.0918 45.6343 33.9083 45.8883 33.7773C46.1461 33.6425 46.4356 33.5752 46.7568 33.5752C47.0743 33.5752 47.3507 33.6425 47.586 33.7773C47.8251 33.9083 47.9988 34.0974 48.1071 34.3445L47.4292 34.7095C47.2723 34.4325 47.0463 34.2939 46.7512 34.2939C46.5233 34.2939 46.3347 34.3688 46.1853 34.5186C46.0359 34.6683 45.9612 34.8724 45.9612 35.1307C45.9612 35.389 46.0359 35.593 46.1853 35.7428C46.3347 35.8925 46.5233 35.9674 46.7512 35.9674C47.05 35.9674 47.276 35.8289 47.4292 35.5518L48.1071 35.9225C47.9988 36.1621 47.8251 36.3493 47.586 36.484C47.3507 36.6188 47.0743 36.6862 46.7568 36.6862Z" fill="white"/>
<path d="M51.1599 34.3389H50.1401V36.6413H49.2717V34.3389H48.2519V33.6201H51.1599V34.3389Z" fill="white"/>
<path d="M53.9286 35.0633C54.2835 35.1831 54.4609 35.4227 54.4609 35.7821C54.4609 36.0554 54.3582 36.2669 54.1528 36.4166C53.9473 36.5664 53.641 36.6413 53.2339 36.6413H51.6258V33.6201H53.1666C53.5439 33.6201 53.839 33.6893 54.0519 33.8279C54.2648 33.9626 54.3713 34.1536 54.3713 34.4006C54.3713 34.5504 54.3321 34.6833 54.2536 34.7994C54.1789 34.9117 54.0706 34.9996 53.9286 35.0633ZM52.427 34.8611H53.0882C53.3945 34.8611 53.5476 34.7526 53.5476 34.5354C53.5476 34.322 53.3945 34.2153 53.0882 34.2153H52.427V34.8611ZM53.161 36.046C53.4823 36.046 53.6429 35.9356 53.6429 35.7147C53.6429 35.5986 53.6055 35.5144 53.5308 35.462C53.4561 35.4058 53.3385 35.3778 53.1778 35.3778H52.427V36.046H53.161Z" fill="white"/>
<path d="M58.1313 33.6201L56.7698 36.8266C56.6316 37.1748 56.4597 37.42 56.2543 37.5622C56.0526 37.7045 55.8079 37.7756 55.5203 37.7756C55.3634 37.7756 55.2084 37.7513 55.0553 37.7026C54.9021 37.654 54.777 37.5866 54.6798 37.5005L54.9992 36.8771C55.0665 36.937 55.143 36.9838 55.2289 37.0175C55.3186 37.0512 55.4064 37.0681 55.4923 37.0681C55.6118 37.0681 55.7089 37.0381 55.7836 36.9782C55.8583 36.9221 55.9256 36.8266 55.9854 36.6918L55.9966 36.6637L54.6911 33.6201H55.5931L56.4392 35.6698L57.2909 33.6201H58.1313Z" fill="white"/>
<path d="M58.553 33.6201H59.4214V35.4171L60.8894 33.6201H61.6907V36.6413H60.8222V34.8443L59.3598 36.6413H58.553V33.6201ZM60.0658 33.2944C59.4084 33.2944 59.0778 33.0042 59.0741 32.424H59.6456C59.6493 32.555 59.6848 32.6579 59.752 32.7328C59.823 32.8039 59.9257 32.8395 60.0602 32.8395C60.1947 32.8395 60.2974 32.8039 60.3684 32.7328C60.4431 32.6579 60.4804 32.555 60.4804 32.424H61.0631C61.0594 33.0042 60.7269 33.2944 60.0658 33.2944Z" fill="white"/>
<path d="M65.0635 34.3389H64.0437V36.6413H63.1752V34.3389H62.1555V33.6201H65.0635V34.3389Z" fill="white"/>
<path d="M68.3339 35.1419C68.3339 35.1531 68.3283 35.2318 68.3171 35.3778H66.0367C66.0778 35.5649 66.1749 35.7128 66.328 35.8214C66.4812 35.93 66.6717 35.9842 66.8995 35.9842C67.0564 35.9842 67.1946 35.9618 67.3142 35.9169C67.4374 35.8682 67.5514 35.7933 67.6559 35.6922L68.121 36.1976C67.8371 36.5233 67.4225 36.6862 66.8771 36.6862C66.5372 36.6862 66.2365 36.6207 65.975 36.4897C65.7136 36.3549 65.5119 36.1696 65.3699 35.9337C65.228 35.6979 65.157 35.4302 65.157 35.1307C65.157 34.8349 65.2261 34.5691 65.3643 34.3333C65.5063 34.0937 65.6986 33.9083 65.9414 33.7773C66.188 33.6425 66.4625 33.5752 66.7651 33.5752C67.0602 33.5752 67.3272 33.6388 67.5663 33.7661C67.8054 33.8934 67.9921 34.0768 68.1266 34.3164C68.2648 34.5523 68.3339 34.8274 68.3339 35.1419ZM66.7707 34.2378C66.5727 34.2378 66.4065 34.2939 66.272 34.4063C66.1375 34.5186 66.0554 34.6721 66.0255 34.8667H67.5103C67.4804 34.6758 67.3982 34.5242 67.2637 34.4119C67.1293 34.2958 66.9649 34.2378 66.7707 34.2378Z" fill="white"/>
</svg>
