<svg width="276" height="287" viewBox="0 0 276 287" fill="none" xmlns="http://www.w3.org/2000/svg">
<g clip-path="url(#clip0)">
<path d="M111.46 287C168.333 287 214.438 285.705 214.438 284.107C214.438 282.509 168.333 281.214 111.46 281.214C54.5865 281.214 8.48169 282.509 8.48169 284.107C8.48169 285.705 54.5865 287 111.46 287Z" fill="#C9C9C9"/>
<path d="M163.391 238.21H157.39V260.792H163.391V238.21Z" fill="#C7C7C7"/>
<path d="M157.39 239.392L161.952 240.078V260.792H163.384V238.21H157.39V239.392Z" fill="#B5B5B5"/>
<path d="M164.236 259.861H156.545V275.631H164.236V259.861Z" fill="#696969"/>
<path d="M182.112 275.631H138.662V277.18H182.112V275.631Z" fill="#696969"/>
<path d="M161.195 276.405H159.586V281.214H161.195V276.405Z" fill="#696969"/>
<path d="M160.384 284.657C161.619 284.657 162.621 283.651 162.621 282.409C162.621 281.168 161.619 280.161 160.384 280.161C159.148 280.161 158.146 281.168 158.146 282.409C158.146 283.651 159.148 284.657 160.384 284.657Z" fill="#C7C7C7"/>
<path d="M157.707 282.429C157.787 281.78 158.098 281.181 158.582 280.743C159.066 280.305 159.691 280.058 160.343 280.046C160.994 280.034 161.627 280.26 162.127 280.68C162.626 281.1 162.957 281.688 163.06 282.334H162.181C162.173 281.855 161.976 281.399 161.633 281.066C161.29 280.733 160.83 280.55 160.353 280.558C159.876 280.567 159.422 280.765 159.091 281.109C158.759 281.454 158.578 281.916 158.586 282.395L157.707 282.429Z" fill="#696969"/>
<path d="M140.264 276.405H138.662V281.214H140.264V276.405Z" fill="#696969"/>
<path d="M139.466 284.657C140.702 284.657 141.703 283.651 141.703 282.409C141.703 281.168 140.702 280.161 139.466 280.161C138.231 280.161 137.229 281.168 137.229 282.409C137.229 283.651 138.231 284.657 139.466 284.657Z" fill="#C7C7C7"/>
<path d="M136.79 282.429C136.87 281.78 137.18 281.181 137.665 280.743C138.149 280.305 138.774 280.058 139.425 280.046C140.077 280.034 140.71 280.26 141.209 280.68C141.709 281.1 142.04 281.688 142.143 282.334H141.264C141.256 281.855 141.059 281.399 140.716 281.066C140.373 280.733 139.913 280.55 139.436 280.558C138.959 280.567 138.505 280.765 138.174 281.109C137.842 281.454 137.661 281.916 137.669 282.395L136.79 282.429Z" fill="#696969"/>
<path d="M182.105 276.405H180.503V281.214H182.105V276.405Z" fill="#696969"/>
<path d="M181.308 284.657C182.543 284.657 183.545 283.651 183.545 282.409C183.545 281.168 182.543 280.161 181.308 280.161C180.072 280.161 179.071 281.168 179.071 282.409C179.071 283.651 180.072 284.657 181.308 284.657Z" fill="#C7C7C7"/>
<path d="M178.631 282.429C178.711 281.78 179.022 281.181 179.506 280.743C179.99 280.305 180.615 280.058 181.267 280.046C181.918 280.034 182.551 280.26 183.051 280.68C183.55 281.1 183.881 281.688 183.984 282.334H183.105C183.097 281.855 182.9 281.399 182.557 281.066C182.215 280.733 181.754 280.55 181.277 280.558C180.8 280.567 180.346 280.765 180.015 281.109C179.684 281.454 179.502 281.916 179.51 282.395L178.631 282.429Z" fill="#696969"/>
<path d="M150.706 234.135L151.645 238.72H169.893L172.089 232.777L150.706 234.135Z" fill="#696969"/>
<path d="M169.893 238.72L172.089 232.777L150.706 234.135L151.098 236.051C156.687 237.368 167.392 236.173 167.392 236.173L166.777 238.72H169.893Z" fill="#5C5C5C"/>
<path d="M158.491 235.833L135.256 234.645C135.256 234.645 131.37 225.986 146.874 221.062C162.377 216.138 166.345 212.729 167.865 205.605C169.386 198.48 174.374 155.015 174.374 155.015H199.974C199.974 155.015 198.623 168.007 198.542 169.447C198.46 170.887 198.373 210.454 193.561 216.906C188.749 223.357 181.058 228.96 177.34 230.067C173.623 231.174 158.491 235.833 158.491 235.833Z" fill="#1E2127"/>
<path d="M158.91 235.833C158.253 235.836 157.621 235.583 157.146 235.126C156.671 234.669 156.392 234.045 156.366 233.385C156.341 232.725 156.572 232.081 157.01 231.589C157.448 231.097 158.059 230.795 158.714 230.746C165 230.244 182.308 227.942 186.883 223.337C192.439 217.754 196.278 204.423 196.953 157.528C196.962 156.858 197.233 156.219 197.708 155.749C198.182 155.279 198.821 155.015 199.488 155.015H199.522C199.854 155.019 200.183 155.09 200.489 155.222C200.795 155.354 201.072 155.545 201.304 155.785C201.536 156.025 201.719 156.308 201.842 156.619C201.966 156.929 202.027 157.261 202.022 157.596C201.346 206.372 197.082 220.288 190.465 226.936C183.747 233.687 161.614 235.623 159.113 235.826L158.91 235.833Z" fill="#3D525D"/>
<path d="M164.236 259.861H162.627V275.631H164.236V259.861Z" fill="#5C5C5C"/>
<path d="M30.5208 284.358L39.0297 203.723H71.4701L78.7353 284.358H82.4525L76.5389 197.801H33.623L26.5063 284.358H30.5208Z" fill="#8A8A8A"/>
<path d="M57.3855 188.354C57.2031 188.364 57.0204 188.364 56.8381 188.354L56.9529 187.274C57.3957 187.373 57.857 187.347 58.2859 187.199C58.7148 187.051 59.0946 186.787 59.3835 186.436C59.6723 186.084 59.8588 185.659 59.9225 185.208C59.9861 184.757 59.9244 184.297 59.7442 183.879C59.2711 182.874 57.1354 183.75 57.1152 183.763L56.6826 182.765C57.8315 182.262 59.9807 181.828 60.7377 183.444C60.9768 184.017 61.0675 184.641 61.0013 185.259C60.9351 185.876 60.7142 186.467 60.3592 186.976C60.0141 187.433 59.5624 187.798 59.0438 188.038C58.5252 188.279 57.9557 188.387 57.3855 188.354Z" fill="#E10000"/>
<path d="M58.1493 183.437L58.0952 182.337C57.6113 182.412 57.139 182.549 56.6895 182.744L57.122 183.743C57.4544 183.61 57.7983 183.507 58.1493 183.437ZM58.3385 187.118C57.9012 187.253 57.4409 187.294 56.9868 187.24L56.8719 188.32C57.0543 188.33 57.237 188.33 57.4194 188.32C57.7587 188.32 58.0967 188.279 58.4264 188.198L58.3385 187.118Z" fill="#B33434"/>
<path d="M56.2839 178.826H46.6194C46.1155 178.826 45.707 179.236 45.707 179.743V192.979C45.707 193.486 46.1155 193.896 46.6194 193.896H56.2839C56.7878 193.896 57.1963 193.486 57.1963 192.979V179.743C57.1963 179.236 56.7878 178.826 56.2839 178.826Z" fill="#E10000"/>
<path d="M47.9575 179.41H46.8896V193.896H47.9575V179.41Z" fill="#E1A4A4"/>
<path d="M136.851 118.002C136.851 118.002 134.296 115.964 135.54 111.889C136.783 107.814 141.338 105.831 141.338 105.831L141.115 106.51C141.115 106.51 149.11 101.981 160.546 105.152L159.87 105.546C159.87 105.546 167.791 108.038 168.298 120.881L167.061 118.844C167.061 118.844 167.568 126.43 167.683 128.746C167.797 131.062 167.906 137.575 168.304 139.388L165.263 135.653C165.263 135.653 163.749 141.84 162.783 142.953L161.134 138.763C160.454 139.946 159.49 140.939 158.329 141.649C158.329 141.649 161.309 120.433 136.851 118.002Z" fill="#542418"/>
<path d="M148.016 146.105L147.651 144.067L158.41 139.028L159.89 142.987C159.89 142.987 160.046 145.65 158.302 147.232C156.499 148.742 154.525 150.035 152.422 151.083C151.151 151.708 148.996 149.894 148.996 149.894L148.016 146.105Z" fill="#FFC98C"/>
<path d="M158.403 139.001L147.644 144.04L148.009 146.077C149.2 146.439 150.465 146.475 151.675 146.181C152.884 145.887 153.994 145.275 154.889 144.407C156.317 143.126 157.65 141.741 158.876 140.264L158.403 139.001Z" fill="#F0B46E"/>
<path d="M146.029 147.884L151.652 150.152L164.276 146.077C164.276 146.077 161.573 156.842 160.221 158.743C158.87 160.645 151.611 166.662 151.611 166.662C151.611 166.662 147.299 160.176 146.069 156.475C144.839 152.774 146.029 147.884 146.029 147.884Z" fill="#F3F3F3"/>
<path d="M150.381 154.207C150.381 154.207 148.901 159.26 148.989 162.567C149.077 165.875 151.611 166.676 151.611 166.676L155.842 163.097C155.842 163.097 154.375 156.53 154.49 154.207C154.517 154.207 151.266 153.827 150.381 154.207Z" fill="#E10000"/>
<path d="M155.382 163.491L155.842 163.104C155.842 163.104 154.375 156.536 154.49 154.214C153.275 154.064 152.049 154.026 150.827 154.098L150.347 154.214C150.347 154.214 153.307 154.764 153.726 154.811C153.76 154.818 154.26 161.032 155.382 163.491Z" fill="#3D525D"/>
<path d="M146.874 151.945L148.394 154.302C149.466 152.926 150.639 151.632 151.902 150.431C151.902 150.431 154.882 151.918 155.842 154.886C155.842 154.886 159.715 153.473 163.053 148.679C163.053 148.679 164.107 147.246 164.107 147.198C164.107 147.15 163.993 146.179 163.736 146.098C162.645 146.119 161.563 146.291 160.519 146.607C160.012 146.865 153.085 149.874 153.085 149.874L151.625 150.152L146.874 151.945Z" fill="#E6DFB3"/>
<path d="M149.746 150.689C149.838 151.882 150.051 153.063 150.381 154.214C151.76 154.326 153.145 154.326 154.524 154.214L154.815 150.689L151.652 150.159L149.746 150.689Z" fill="#E10000"/>
<path d="M149.962 152.414C150.569 151.717 151.214 151.055 151.895 150.431C152.948 151.008 153.88 151.786 154.639 152.72L154.808 150.682L151.645 150.152L149.746 150.865C149.766 151.157 149.847 151.762 149.962 152.414Z" fill="#3D525D"/>
<path d="M132.383 152.298C130.99 153.415 129.768 154.731 128.754 156.203C127.321 158.411 117.001 174.968 117.001 174.968L87.271 186.738C87.271 186.738 91.8938 189.142 92.4885 193.217C92.4885 193.217 121.3 185.407 124.848 183.369C124.848 183.369 134.31 173.861 135.242 172.761C136.175 171.661 132.383 152.298 132.383 152.298Z" fill="#5C83BB"/>
<path d="M134.229 173.834C132.684 167.101 132.003 160.197 132.201 153.29C131.018 158.044 132.032 172.102 132.032 172.102L124.868 183.342C124.868 183.342 131.539 176.639 134.229 173.834Z" fill="#1F54A2"/>
<path d="M72.4026 193.217C72.4026 193.217 74.4301 188.66 78.0323 187.587C81.6346 186.514 87.2711 186.738 87.2711 186.738C87.2711 186.738 92.3196 189.061 92.4886 193.217H72.4026Z" fill="#FFC98C"/>
<path d="M170.508 147.931C170.508 147.931 178.51 150.322 179.861 151.945C179.861 151.945 178.847 185.773 179.861 191.913C180.875 198.052 182.004 204.362 182.112 213.476L139.987 211.866C139.987 211.866 139.878 200.457 138.763 194.297C137.648 188.137 133.147 171.124 132.383 163.056C131.62 154.988 132.383 152.271 132.383 152.271L146.502 147.178C146.502 147.178 144.63 152.02 146.069 156.475C147.509 160.93 151.476 165.773 151.476 165.773C151.476 165.773 156.633 163.144 158.741 160.428C160.85 157.711 166.094 148.203 166.094 148.203L170.508 147.931Z" fill="#5C83BB"/>
<path d="M142.014 148.828L132.397 152.298C131.004 153.415 129.781 154.731 128.768 156.204C127.335 158.411 117.015 174.968 117.015 174.968L98.1319 182.439C97.963 182.725 97.842 183.037 97.7737 183.363L117.468 175.552C117.468 175.552 128.775 158.003 129.417 156.536C129.417 156.536 130.843 154.105 132.248 153.1L141.757 149.432L142.014 148.828Z" fill="#85A2CC"/>
<path d="M179.861 191.913C179.462 189.502 179.375 182.84 179.422 175.613C175.948 171.539 169.555 169.943 169.555 169.943C169.555 169.943 171.075 178.52 172.346 181.067C173.178 182.872 173.774 184.778 174.117 186.738L155.869 189.298C155.869 189.298 156.491 195.343 156.829 195.512C157.167 195.682 175.076 197.353 180.834 197.74C180.497 195.73 180.172 193.815 179.861 191.913Z" fill="#1F54A2"/>
<path d="M151.476 165.8C151.952 169.139 152.629 172.445 153.504 175.702C154.686 179.634 155.964 197.292 156.383 200.348V211.893H156.795V200.321C156.795 200.321 155.315 180.313 153.923 175.661L151.814 165.773L151.476 165.8Z" fill="#1F54A2"/>
<path d="M136.046 191.01C136.046 191.01 135.959 188.259 137.648 188.157C138.39 188.082 139.137 188.082 139.878 188.157L139.601 191.01H136.046Z" fill="#F0B46E"/>
<path d="M91.5289 277.465C91.8612 278.51 92.0876 279.586 92.2047 280.677C92.2684 281.901 92.2684 283.128 92.2047 284.351H58.8857C59.0745 283.086 59.4267 281.851 59.9333 280.677C60.6091 279.319 63.5355 278.749 66.6917 278.64C70.1864 278.325 73.6087 277.451 76.8293 276.052C76.9512 275.988 77.0686 275.915 77.1808 275.835C78.404 274.898 91.5289 277.465 91.5289 277.465Z" fill="#F5EFC9"/>
<path d="M59.3453 282.253C59.1533 282.943 58.9999 283.644 58.8857 284.351H92.225C92.225 284.351 92.2791 283.353 92.2791 282.253H59.3453Z" fill="#3D525D"/>
<path d="M157.558 211.866H139.987C139.987 211.866 110.25 218.658 106.647 221.15C103.045 223.643 77.5862 275.937 77.5862 275.937L91.5558 277.519L119.711 237.246C119.711 237.246 158.234 226.38 158.687 225.7C159.14 225.021 161.391 218.658 157.558 211.866Z" fill="#34464F"/>
<path d="M108.445 276.385C108.445 276.385 118.806 227.262 120.157 224.77C121.509 222.278 125.564 220.471 129.619 219.337C133.674 218.203 157.558 211.866 157.558 211.866L182.112 213.449C182.112 213.449 181.436 224.315 174.677 227.032C167.919 229.748 136.155 234.387 136.155 234.387L123.564 278.422L108.445 276.385Z" fill="#3D525D"/>
<path d="M108.445 276.385C108.445 276.385 100.896 278.877 97.9697 279.441C95.0433 280.005 93.2388 280.915 92.3399 282.042C91.7951 282.878 91.594 283.893 91.779 284.874L124.017 284.61C124.129 282.523 123.977 280.43 123.564 278.382L108.445 276.385Z" fill="#F5EFC9"/>
<path d="M91.779 284.901L124.017 284.637C124.082 283.844 124.093 283.047 124.05 282.253L92.1169 282.409C91.7482 283.184 91.63 284.056 91.779 284.901Z" fill="#3D525D"/>
<path d="M154.517 182.527L176.144 176.585L169.555 169.963C169.555 169.963 167.358 162.492 171.244 156.55C175.13 150.607 178.679 151.945 179.861 151.952C181.044 151.959 188.478 167.043 192.533 178.588C192.533 178.588 192.027 185.719 187.634 187.757L159.755 190.982C159.755 190.982 160.715 185.291 154.517 182.527Z" fill="#5C83BB"/>
<path d="M154.517 182.527C154.74 182.622 154.943 182.731 155.146 182.833C157.795 182.052 177.908 176.17 181.436 175.96C179.66 176.044 177.892 176.252 176.144 176.585L154.517 182.527Z" fill="#85A2CC"/>
<path d="M138.973 191.01C138.763 190.369 138.711 189.686 138.82 189.02C138.93 188.355 139.198 187.725 139.601 187.186C140.994 185.509 142.203 183.94 144.157 183.417C146.11 182.894 152.152 182.262 154.517 182.527C154.517 182.527 157.518 183.315 159.045 185.434C160.573 187.553 159.809 191.016 159.809 191.016L138.973 191.01Z" fill="#FFC98C"/>
<path d="M152.774 191.01H159.789C158.681 189.964 156.775 188.361 155.632 188.572C154.767 188.735 153.504 189.998 152.774 191.01Z" fill="#F0B46E"/>
<path d="M149.009 191.01C149.259 189.848 149.612 188.712 150.064 187.614C149.111 188.347 148.293 190.106 147.962 191.01H149.009Z" fill="#F0B46E"/>
<path d="M145.278 191.01C145.887 189.57 146.502 187.614 146.502 187.614C145.481 188.232 144.609 190.073 144.103 191.01H145.278Z" fill="#F0B46E"/>
<path d="M142.014 191.01C142.521 189.271 143.21 186.738 143.21 186.738C142.095 187.349 141.257 189.787 140.825 191.01H142.014Z" fill="#F0B46E"/>
<path d="M151.476 165.8C151.476 165.8 160.431 160.794 163.81 145.765L170.825 147.463C170.825 147.463 166.858 153.663 163.053 156.21L164.405 157.569C164.405 157.569 158.066 165.46 151.476 165.8Z" fill="#85A2CC"/>
<path d="M151.476 165.8C151.476 165.8 145.671 155.782 146.502 147.205L141.595 148.706C141.595 148.706 142.9 154.648 144.42 157.025L143.231 157.535C143.231 157.535 146.576 163.932 151.476 165.8Z" fill="#85A2CC"/>
<path d="M169.217 168.734C169.217 168.734 166.169 154.383 177.962 151.85C177.962 151.85 167.919 153.894 169.217 168.734Z" fill="#1F54A2"/>
<path d="M151.645 150.152C151.645 150.152 157.511 146.818 159.877 142.96C161.479 143.79 162.996 144.777 164.405 145.908C164.405 145.908 160.005 152.427 156.545 154.207C156.545 154.207 154.396 150.621 151.645 150.152Z" fill="#F3F3F3"/>
<path d="M151.645 150.152C151.645 150.152 148.685 147.544 148.009 146.077C147.078 146.371 146.236 146.897 145.562 147.605C145.562 147.605 145.941 151.809 147.63 154.186C147.63 154.207 150.172 150.621 151.645 150.152Z" fill="#F3F3F3"/>
<path d="M161.695 190.813C161.921 189.03 161.733 187.22 161.147 185.522C160.269 183.41 157.856 182.201 157.092 181.855L154.551 182.534C160.742 185.305 159.782 191.023 159.782 191.023L161.695 190.813Z" fill="#F5EFC9"/>
<path d="M136.851 118.002C136.718 120.514 136.825 123.034 137.168 125.526C137.729 128.637 137.844 132.657 138.128 134.749C138.412 136.841 140.102 139.449 144.434 142.22C148.766 144.991 148.678 144.651 149.739 144.651C150.8 144.651 157.444 141.255 159.248 138.369C161.053 135.483 161.614 135.272 162.175 131.326C162.735 127.381 163.58 116.976 157.329 112.31C151.077 107.645 140.358 106.796 136.851 118.002Z" fill="#FFC98C"/>
<path d="M136.851 118.002C136.851 118.002 138.878 115 141.338 115.17C141.338 115.17 147.367 112.847 151.476 114.035C151.476 114.035 153.787 117.146 154.517 119.523L154.889 115.903C154.889 115.903 157.383 121.56 157.667 125.071C157.951 128.583 158.025 129.656 158.025 129.656C158.025 129.656 159.809 125.241 160.877 124.902C161.945 124.562 164.101 126.036 164.101 126.036C164.101 126.036 167.858 115.794 158.795 110.3C149.732 104.806 145.84 107.19 142.014 108.718C138.189 110.246 136.898 115.231 136.851 118.002Z" fill="#542418"/>
<path d="M167.696 128.752C167.581 126.43 167.074 118.851 167.074 118.851L168.311 120.888C168.257 119.323 168.065 117.766 167.737 116.236C167.061 115.367 166.514 114.776 166.514 114.776L165.25 117.75C165.25 117.75 162.29 113.329 160.262 110.361C158.234 107.393 151.476 105.668 151.476 105.668C153.212 106.863 154.843 108.206 156.349 109.682C158.099 111.55 160.262 116.304 160.884 117.832C161.506 119.36 162.033 130.396 160.262 133.377C159.735 134.26 159.032 135.462 158.295 136.719C158.504 138.359 158.522 140.018 158.349 141.663C159.51 140.952 160.475 139.96 161.154 138.777L162.803 142.967C163.77 141.853 165.283 135.666 165.283 135.666L168.325 139.402C167.919 137.581 167.811 131.048 167.696 128.752Z" fill="#3D1B12"/>
<path d="M163.418 115.02L162.168 113.159C161.21 112.022 160.067 111.055 158.789 110.3C157.512 109.527 156.181 108.846 154.808 108.263C155.344 108.717 155.857 109.2 156.342 109.709C158.092 111.577 160.255 116.331 160.877 117.859C161.181 118.606 161.465 121.649 161.465 124.902C162.408 125.123 163.302 125.519 164.101 126.07C164.101 126.07 166.236 120.236 163.418 115.02Z" fill="#3D1B12"/>
<path d="M161.411 119.387C160.134 112.433 156.714 103.767 143.839 105.057L141.088 106.51C141.088 106.51 150.55 104.045 155.903 110.979C157.856 113.557 159.148 116.577 159.667 119.774C160.174 119.645 160.816 119.502 161.411 119.387Z" fill="#556873"/>
<path d="M161.416 133.355C164.081 133.156 166.004 129.794 165.711 125.848C165.417 121.902 163.019 118.865 160.354 119.065C157.689 119.265 155.766 122.626 156.059 126.572C156.353 130.519 158.751 133.555 161.416 133.355Z" fill="#556873"/>
<path d="M162.338 131.247C164.471 131.087 166.01 128.398 165.775 125.241C165.54 122.084 163.621 119.655 161.489 119.815C159.356 119.975 157.817 122.664 158.051 125.821C158.286 128.978 160.205 131.407 162.338 131.247Z" fill="#6A818F"/>
<path d="M148.151 139.992C148.017 139.996 147.886 139.95 147.783 139.862C147.681 139.774 147.615 139.651 147.599 139.518C147.582 139.384 147.615 139.248 147.692 139.137C147.769 139.027 147.885 138.949 148.016 138.919C150.381 138.315 154.348 137.228 154.909 136.882C155.369 136.603 157.248 133.989 158.789 131.618C158.828 131.559 158.878 131.507 158.937 131.467C158.996 131.427 159.062 131.399 159.132 131.384C159.201 131.37 159.273 131.369 159.343 131.383C159.413 131.396 159.479 131.423 159.539 131.462C159.598 131.502 159.65 131.552 159.69 131.611C159.73 131.67 159.758 131.737 159.772 131.807C159.786 131.877 159.787 131.949 159.774 132.019C159.76 132.089 159.733 132.156 159.694 132.216C158.924 133.398 156.315 137.283 155.464 137.819C154.612 138.356 149.327 139.707 148.279 139.972L148.151 139.992Z" fill="#6A818F"/>
<path d="M147.502 140.984C148.297 140.984 148.942 140.336 148.942 139.537C148.942 138.738 148.297 138.091 147.502 138.091C146.707 138.091 146.062 138.738 146.062 139.537C146.062 140.336 146.707 140.984 147.502 140.984Z" fill="#556873"/>
<path d="M142.108 126.852C142.505 126.783 142.712 126.053 142.57 125.221C142.427 124.39 141.99 123.771 141.593 123.84C141.195 123.908 140.989 124.638 141.131 125.47C141.273 126.302 141.71 126.92 142.108 126.852Z" fill="#354047"/>
<path d="M149.857 126.54C150.259 126.51 150.534 125.803 150.472 124.962C150.409 124.12 150.032 123.462 149.63 123.493C149.228 123.523 148.953 124.229 149.016 125.071C149.078 125.913 149.455 126.57 149.857 126.54Z" fill="#354047"/>
<path d="M147.644 120.772C147.576 120.772 147.51 120.75 147.455 120.711C147.399 120.672 147.356 120.617 147.332 120.553C147.308 120.49 147.304 120.42 147.32 120.354C147.335 120.287 147.371 120.227 147.421 120.182C148.044 119.701 148.775 119.383 149.551 119.257C150.326 119.132 151.12 119.202 151.861 119.462C151.938 119.497 152 119.559 152.033 119.638C152.066 119.716 152.069 119.803 152.041 119.884C152.013 119.964 151.956 120.031 151.881 120.071C151.807 120.111 151.72 120.121 151.638 120.1C151.008 119.88 150.334 119.819 149.675 119.923C149.016 120.027 148.392 120.294 147.86 120.698C147.799 120.747 147.723 120.774 147.644 120.772Z" fill="#542418"/>
<path d="M139.365 122.076C139.282 122.076 139.203 122.045 139.142 121.988C139.11 121.957 139.085 121.919 139.068 121.878C139.051 121.836 139.042 121.792 139.042 121.747C139.042 121.702 139.051 121.658 139.068 121.617C139.085 121.575 139.11 121.538 139.142 121.506C140.217 120.297 142.629 120.827 142.731 120.827C142.775 120.836 142.817 120.854 142.855 120.88C142.892 120.906 142.924 120.939 142.949 120.977C142.974 121.015 142.991 121.058 142.999 121.102C143.007 121.147 143.007 121.193 142.998 121.238C142.988 121.282 142.97 121.325 142.945 121.362C142.919 121.4 142.886 121.432 142.848 121.457C142.811 121.482 142.768 121.499 142.723 121.507C142.679 121.516 142.633 121.515 142.589 121.506C142.001 121.377 140.318 121.207 139.649 121.968C139.613 122.007 139.569 122.037 139.52 122.056C139.47 122.075 139.417 122.082 139.365 122.076Z" fill="#542418"/>
<path d="M146.536 130.96C146.536 130.96 144.38 131.245 143.988 130.96C143.596 130.674 144.947 130.505 145.562 130.566C145.92 130.591 146.26 130.729 146.536 130.96Z" fill="#E3AA68"/>
<path d="M144.434 136.067C144.434 136.067 148.266 136.114 150.374 135.266C150.374 135.266 149.584 137.48 147.401 137.527C146.821 137.577 146.238 137.468 145.715 137.211C145.193 136.954 144.749 136.558 144.434 136.067Z" fill="#AB5454"/>
<path d="M147.928 136.169C147.182 136.357 146.502 136.747 145.961 137.296C146.422 137.465 146.911 137.544 147.401 137.527C147.931 137.506 148.447 137.352 148.903 137.08C149.359 136.807 149.739 136.424 150.009 135.965C149.312 135.985 148.616 136.053 147.928 136.169Z" fill="#CC6464"/>
<path d="M144.434 136.067C144.568 136.284 144.732 136.48 144.92 136.651C146.62 136.619 148.311 136.412 149.969 136.033C150.134 135.793 150.272 135.536 150.381 135.266C148.266 136.121 144.434 136.067 144.434 136.067Z" fill="#F5EFC9"/>
<path d="M121.793 179.036L57.6221 178.371L50.0459 133.377L114.21 134.043L121.793 179.036Z" fill="#E4E4E4"/>
<path d="M93.0159 159.491L93.8539 178.744L101.531 178.826L93.0159 159.491Z" fill="#909090"/>
<path d="M80.8844 192.456L72.0647 159.491H93.0158L102.14 191.859L80.8844 192.456Z" fill="#C4C4C4"/>
<path d="M80.8845 192.456L102.14 191.859L101.376 189.162H80.0059L80.8845 192.456Z" fill="#B5B5B5"/>
<path d="M91.0762 159.491L100.153 191.92L102.14 191.859L93.0158 159.491H91.0762Z" fill="#DEDEDE"/>
<path d="M99.3823 189.162L100.153 191.92L102.14 191.859L101.376 189.162H99.3823Z" fill="#CFCFCF"/>
<path d="M159.748 191.016H107.77V193.903H159.748V191.016Z" fill="#E0E0E0"/>
<path d="M117.461 191.016H63.6167V193.903H117.461V191.016Z" fill="#ADADAD"/>
<path d="M108.783 191.016H63.6167V193.903H108.783V191.016Z" fill="#C4C4C4"/>
<path d="M114.305 175.559C114.801 175.559 115.204 175.155 115.204 174.656C115.204 174.157 114.801 173.753 114.305 173.753C113.808 173.753 113.406 174.157 113.406 174.656C113.406 175.155 113.808 175.559 114.305 175.559Z" fill="#BF4949"/>
<path d="M113.656 172.129C114.152 172.129 114.555 171.725 114.555 171.226C114.555 170.727 114.152 170.323 113.656 170.323C113.16 170.323 112.757 170.727 112.757 171.226C112.757 171.725 113.16 172.129 113.656 172.129Z" fill="#FFF699"/>
<path d="M112.203 134.023L120.016 179.016L121.793 179.036L114.21 134.043L112.203 134.023Z" fill="#FCFCFC"/>
<path d="M71.8621 141.84L73.4976 151.531L74.5654 151.348L72.9299 141.656L71.8621 141.84ZM74.9507 141.84L76.5862 151.531L77.654 151.348L76.0185 141.656L74.9507 141.84ZM78.0393 141.84L79.6748 151.531L80.7426 151.348L79.1071 141.656L78.0393 141.84ZM81.1279 141.84L82.7634 151.531L83.8312 151.348L82.1957 141.656L81.1279 141.84ZM84.2164 141.84L85.852 151.531L86.9198 151.348L85.2437 141.663L84.2164 141.84ZM88.3661 141.656L87.2983 141.84L88.9338 151.531L90.0016 151.348L88.3661 141.656Z" fill="#909090"/>
<path d="M126.74 284.657L135.256 203.744H167.696L174.962 284.657H178.679L172.765 197.801H129.849L122.726 284.657H126.74Z" fill="#A3A3A3"/>
<path d="M73.0786 99.4678L74.9237 100.31L75.2008 99.6919L73.3557 98.8497L73.0786 99.4678ZM89.7313 107.095L93.1511 108.657L93.4282 108.039L90.0084 106.477L89.7313 107.095ZM80.621 102.925L84.0408 104.487L84.3179 103.869L80.8981 102.307L80.621 102.925ZM98.8687 111.271L102.288 112.833L102.566 112.215L99.1458 110.653L98.8687 111.271ZM117.116 119.618L120.536 121.18L120.813 120.562L117.394 119L117.116 119.618ZM107.952 115.428L111.372 116.99L111.656 116.372L108.222 114.816L107.952 115.428ZM126.47 123.163L126.186 123.781L128.031 124.623L128.308 124.005L126.47 123.163Z" fill="#3D525D"/>
<path d="M146.536 96.4659L146.232 92.3911L146.908 92.3367L147.212 96.4116L146.536 96.4659ZM145.725 85.5996L145.421 81.5247L146.096 81.4772L146.401 85.552L145.725 85.5996Z" fill="#3D525D"/>
<path d="M178.875 127.204L178.658 126.559L182.504 125.275L182.72 125.92L178.875 127.204ZM189.134 123.774L188.918 123.129L192.763 121.846L192.98 122.491L189.134 123.774ZM199.393 120.345L199.177 119.699L203.022 118.416L203.239 119.061L199.393 120.345Z" fill="#3D525D"/>
<path d="M198.934 72.8249L195.507 70.6448L195.872 70.0675L199.299 72.2476L198.934 72.8249ZM189.796 67.0182L186.37 64.8381L186.735 64.2609L190.161 66.4409L189.796 67.0182ZM180.659 61.2115L177.226 59.0586L177.591 58.4813L181.017 60.6614L180.659 61.2115Z" fill="#3D525D"/>
<path d="M79.506 66.8755L79.2627 66.2439L83.0474 64.7838L83.2907 65.4154L79.506 66.8755ZM89.5963 62.9772L89.353 62.3456L93.1377 60.8855L93.381 61.5171L89.5963 62.9772ZM99.6934 59.0586L99.4501 58.427L103.235 56.9668L103.478 57.5984L99.6934 59.0586Z" fill="#3D525D"/>
<path d="M80.7494 42.3516L78.2893 40.0425L80.7494 37.7334L81.3036 38.331L79.4788 40.0425L81.3036 41.7539L80.7494 42.3516Z" fill="#3D525D"/>
<path d="M210.896 27.1252L213.356 24.8229L210.896 22.5138L210.342 23.1114L212.166 24.8229L210.342 26.5275L210.896 27.1252Z" fill="#3D525D"/>
<path d="M230.725 168.992L228.265 166.683L230.725 164.374L231.279 164.971L229.455 166.683L231.279 168.394L230.725 168.992Z" fill="#3D525D"/>
<path d="M22.4918 125.805L20.0317 123.496L22.4918 121.187L23.046 121.784L21.2212 123.496L23.046 125.207L22.4918 125.805Z" fill="#3D525D"/>
<path d="M26.7901 125.805L24.3301 123.496L26.7901 121.187L27.3443 121.784L25.5196 123.496L27.3443 125.207L26.7901 125.805Z" fill="#3D525D"/>
<path d="M178.996 97.4778L181.457 95.1688L178.996 92.8665L178.442 93.4573L180.267 95.1688L178.442 96.8802L178.996 97.4778Z" fill="#3D525D"/>
<path d="M174.698 97.4778L177.165 95.1688L174.698 92.8665L174.144 93.4573L175.975 95.1688L174.144 96.8802L174.698 97.4778Z" fill="#3D525D"/>
<path d="M37.0089 39.4788C29.6905 39.4788 22.5365 41.6595 16.4515 45.7453C10.3665 49.831 5.62386 55.6382 2.82324 62.4326C0.0226239 69.2269 -0.710144 76.7032 0.717597 83.9161C2.14534 91.1289 5.66946 97.7543 10.8443 102.954C16.0192 108.155 22.6124 111.696 29.7901 113.131C36.9679 114.565 44.4078 113.829 51.1691 111.015C57.9304 108.2 63.7093 103.435 67.7752 97.3198C71.841 91.2051 74.0112 84.0161 74.0112 76.662C74.0112 66.8004 70.1128 57.3427 63.1735 50.3695C56.2342 43.3963 46.8225 39.4788 37.0089 39.4788ZM37.0089 111.55C30.1423 111.55 23.43 109.504 17.7206 105.67C12.0113 101.837 7.56142 96.3878 4.9337 90.0129C2.30598 83.638 1.61845 76.6233 2.95805 69.8557C4.29765 63.0882 7.60421 56.8718 12.4596 51.9926C17.315 47.1135 23.5011 43.7908 30.2358 42.4446C36.9704 41.0985 43.951 41.7894 50.2949 44.4299C56.6388 47.0705 62.061 51.5421 65.8758 57.2794C69.6907 63.0167 71.7269 69.7618 71.7269 76.662C71.7269 85.9101 68.0728 94.7798 61.5678 101.322C55.0627 107.864 46.239 111.542 37.0359 111.55H37.0089Z" fill="#3D525D"/>
<path d="M14.8616 67.6361V67.6358C14.8635 66.2575 15.4091 64.9359 16.3794 63.9609C17.3497 62.9859 18.6654 62.4371 20.0381 62.4352L20.0384 62.4352L56.6826 62.4352H56.6829C58.0556 62.4371 59.3713 62.9859 60.3416 63.9609C61.3119 64.9359 61.8576 66.2575 61.8594 67.6358V67.6361V87.148V87.1483C61.8576 88.5266 61.3119 89.8482 60.3416 90.8232C59.3713 91.7982 58.0556 92.3471 56.6829 92.3489H56.6826H40.613C40.9743 93.9382 41.8985 95.3454 43.2181 96.3044L43.0711 96.5066M14.8616 67.6361L42.8143 97.308L42.8129 97.558C42.8131 97.558 42.8133 97.558 42.8136 97.558C42.9602 97.5587 43.1031 97.5125 43.2216 97.4262L43.0745 97.2241L43.2216 97.4262C43.3402 97.3399 43.4282 97.2179 43.473 97.0782C43.5178 96.9385 43.5171 96.7881 43.471 96.6488C43.4249 96.5095 43.3358 96.3883 43.2163 96.3031L43.0711 96.5066M14.8616 67.6361L14.8616 87.1616L14.8616 87.1619C14.8635 88.5402 15.4091 89.8618 16.3794 90.8368C17.3497 91.8118 18.6654 92.3606 20.0381 92.3625H20.0384H35.189L14.8616 67.6361ZM43.0711 96.5066C41.6869 95.5007 40.7225 94.0197 40.3569 92.3489L43.0711 96.5066ZM39.7913 90.9864L39.7933 90.9864L56.6893 90.9864C57.6981 90.9864 58.6658 90.5838 59.3795 89.8666C60.0932 89.1494 60.4944 88.1764 60.4944 87.1616V67.6361C60.4944 66.6213 60.0932 65.6483 59.3795 64.9311C58.6658 64.214 57.6981 63.8113 56.6893 63.8113H20.0452C19.0364 63.8113 18.0687 64.214 17.3551 64.9311C16.6414 65.6483 16.2402 66.6212 16.2402 67.636C16.2402 67.636 16.2402 67.6361 16.2402 67.6361L16.2672 87.1612L16.2672 87.1616C16.2672 88.1764 16.6684 89.1494 17.3821 89.8666C18.0958 90.5838 19.0635 90.9864 20.0722 90.9864H35.6161H35.6166V91.2364C35.6999 91.236 35.7817 91.2594 35.8523 91.3039C35.9229 91.3484 35.9794 91.4121 36.0153 91.4877L39.7913 90.9864ZM39.7913 90.9864C39.6939 90.9872 39.5978 91.0087 39.5093 91.0494C39.4208 91.0901 39.342 91.1491 39.278 91.2225L39.4664 91.3868L39.278 91.2225C39.214 91.2959 39.1662 91.382 39.1377 91.4751C39.1093 91.5679 39.1007 91.6657 39.1125 91.7621C39.2602 92.987 39.674 94.1603 40.3204 95.2006L39.7913 90.9864ZM39.5159 83.8461C39.754 83.8464 39.9829 83.7546 40.1551 83.5901C40.3274 83.4257 40.4299 83.2012 40.4417 82.9633L40.442 82.9633V82.9509V82.9169C40.442 82.6709 40.3448 82.4347 40.1713 82.2603C39.9978 82.086 39.7621 81.9878 39.5162 81.9878H25.3776C25.1317 81.9878 24.896 82.086 24.7225 82.2603C24.549 82.4347 24.4518 82.6709 24.4518 82.9169C24.4518 83.1629 24.549 83.3991 24.7225 83.5735C24.896 83.7479 25.1317 83.8461 25.3776 83.8461H39.5159ZM39.5159 83.8461L39.5162 83.5961V83.8461H39.5159ZM40.5611 92.0989H56.6826C57.9887 92.0972 59.2408 91.575 60.1644 90.6469C61.088 89.7188 61.6076 88.4605 61.6094 87.148V67.6361C61.6076 66.3236 61.088 65.0654 60.1644 64.1373C59.2408 63.2092 57.9887 62.687 56.6826 62.6852H20.0384C18.7323 62.687 17.4802 63.2092 16.5566 64.1373C15.633 65.0654 15.1134 66.3236 15.1116 67.6361V87.1616C15.1134 88.4741 15.633 89.7324 16.5566 90.6604C17.4802 91.5885 18.7323 92.1107 20.0384 92.1125H35.3395C37.351 96.007 42.4092 97.2343 42.7067 97.3065L40.5611 92.0989ZM41.0702 78.525L40.893 78.7014L41.0702 78.525C40.8966 78.3507 40.661 78.2525 40.4151 78.2525H25.3776C25.1317 78.2525 24.896 78.3507 24.7225 78.525C24.549 78.6994 24.4518 78.9356 24.4518 79.1816C24.4518 79.4276 24.549 79.6639 24.7225 79.8382C24.896 80.0126 25.1317 80.1108 25.3776 80.1108H40.4151C40.661 80.1108 40.8966 80.0126 41.0702 79.8382C41.2436 79.6639 41.3409 79.4277 41.3409 79.1816C41.3409 78.9356 41.2436 78.6994 41.0702 78.525ZM44.8288 78.525L45.006 78.7014L44.8288 78.525C44.6553 78.6994 44.558 78.9356 44.558 79.1816C44.558 79.4277 44.6553 79.6639 44.8288 79.8382C45.0023 80.0126 45.2379 80.1108 45.4839 80.1108H52.7492C52.9951 80.1108 53.2307 80.0126 53.4043 79.8382C53.5778 79.6639 53.675 79.4276 53.675 79.1816C53.675 78.9356 53.5778 78.6994 53.4043 78.525C53.2307 78.3507 52.9951 78.2525 52.7492 78.2525H45.4839C45.2379 78.2525 45.0023 78.3507 44.8288 78.525ZM52.7492 70.7819H28.1959C27.9499 70.7819 27.7143 70.8801 27.5408 71.0545C27.3673 71.2288 27.27 71.465 27.27 71.711C27.27 71.9571 27.3673 72.1933 27.5408 72.3676C27.7143 72.542 27.9499 72.6402 28.1959 72.6402H52.7492C52.9951 72.6402 53.2307 72.542 53.4043 72.3676C53.5778 72.1933 53.675 71.9571 53.675 71.711C53.675 71.465 53.5778 71.2288 53.4043 71.0544C53.2307 70.8801 52.9951 70.7819 52.7492 70.7819ZM52.7492 74.5172H25.3776C25.1317 74.5172 24.896 74.6154 24.7225 74.7897C24.549 74.9641 24.4518 75.2003 24.4518 75.4463C24.4518 75.6924 24.549 75.9286 24.7225 76.1029C24.896 76.2773 25.1317 76.3755 25.3776 76.3755H52.7492C52.9951 76.3755 53.2307 76.2773 53.4043 76.1029C53.5778 75.9286 53.675 75.6923 53.675 75.4463C53.675 75.2003 53.5778 74.9641 53.4043 74.7897C53.2307 74.6154 52.9951 74.5172 52.7492 74.5172Z" fill="#3D525D" stroke="#3D525D" stroke-width="0.5"/>
<path d="M141.845 -0.0270996C134.528 -0.0270976 127.375 2.15298 121.291 6.23752C115.206 10.3221 110.464 16.1277 107.662 22.9204C104.861 29.7132 104.126 37.1881 105.552 44.4002C106.978 51.6123 110.499 58.2378 115.671 63.439C120.843 68.6402 127.434 72.1837 134.61 73.6215C141.786 75.0593 149.225 74.3268 155.987 71.5167C162.749 68.7066 168.529 63.9449 172.598 57.8337C176.668 51.7226 178.842 44.5363 178.848 37.1833C178.851 32.298 177.897 27.4599 176.039 22.9455C174.181 18.4311 171.456 14.3289 168.019 10.8732C164.583 7.41755 160.503 4.67623 156.012 2.8059C151.521 0.935571 146.707 -0.0271009 141.845 -0.0270996ZM141.845 72.0438C134.979 72.0438 128.266 69.9977 122.557 66.1642C116.848 62.3307 112.398 56.8819 109.77 50.507C107.142 44.1322 106.455 37.1174 107.794 30.3499C109.134 23.5823 112.441 17.3659 117.296 12.4868C122.151 7.60765 128.338 4.28492 135.072 2.93877C141.807 1.59262 148.787 2.28351 155.131 4.92408C161.475 7.56465 166.897 12.0363 170.712 17.7735C174.527 23.5108 176.563 30.256 176.563 37.1561C176.567 41.7399 175.671 46.2795 173.928 50.5154C172.185 54.7513 169.628 58.6005 166.404 61.843C163.18 65.0855 159.351 67.6577 155.138 69.4127C150.924 71.1677 146.407 72.071 141.845 72.071V72.0438Z" fill="#3D525D"/>
<path d="M155.843 25.089H155.842L127.403 25.089L127.402 25.089C126.658 25.091 125.946 25.3886 125.421 25.9165C124.896 26.4444 124.6 27.1595 124.598 27.9055V27.9062L124.598 45.693L124.598 45.6936C124.6 46.4396 124.896 47.1547 125.421 47.6826C125.946 48.2105 126.658 48.5082 127.402 48.5101H127.403H155.842H155.843C156.586 48.5082 157.298 48.2105 157.824 47.6826C158.349 47.1547 158.645 46.4396 158.647 45.6936V45.693V27.9062V27.9055C158.645 27.1595 158.349 26.4444 157.824 25.9165C157.298 25.3886 156.586 25.091 155.843 25.089ZM127.156 29.2568L127.156 29.2569L141.274 37.4063C141.274 37.4064 141.274 37.4064 141.274 37.4064C141.379 37.4672 141.498 37.4992 141.619 37.4992C141.74 37.4992 141.859 37.4671 141.964 37.4063L141.966 37.4053L155.746 29.2555L155.746 29.2554C155.904 29.1621 156.018 29.01 156.063 28.8327C156.109 28.6555 156.083 28.4673 155.99 28.3094C155.897 28.1515 155.746 28.0367 155.569 27.9906C155.391 27.9446 155.203 27.9712 155.046 28.0646L154.845 28.183L154.852 28.1965L141.621 36.0176L127.845 28.0565C127.845 28.0565 127.845 28.0564 127.845 28.0564C127.767 28.011 127.68 27.9815 127.59 27.9697C127.5 27.958 127.408 27.9642 127.32 27.9879C127.143 28.0359 126.993 28.1525 126.902 28.3117C126.811 28.4708 126.786 28.6596 126.834 28.8367C126.881 29.0137 126.997 29.165 127.156 29.2568ZM157.268 45.7132C157.266 46.0935 157.115 46.4575 156.848 46.726C156.581 46.9946 156.219 47.146 155.841 47.1476C155.841 47.1476 155.841 47.1476 155.841 47.1476H127.404C127.403 47.1476 127.403 47.1476 127.403 47.1476C127.026 47.146 126.664 46.9946 126.397 46.726C126.129 46.4574 125.978 46.0932 125.976 45.7128V27.9067C125.978 27.5263 126.129 27.1621 126.397 26.8935C126.664 26.6249 127.026 26.4735 127.403 26.4719H155.841C156.219 26.4735 156.581 26.6249 156.848 26.8935C157.115 27.1621 157.266 27.526 157.268 27.9063C157.268 27.9066 157.268 27.9069 157.268 27.9072V45.7124C157.268 45.7126 157.268 45.7129 157.268 45.7132Z" fill="#3D525D" stroke="#3D525D" stroke-width="0.5"/>
<path d="M238.997 59.2555C231.678 59.2555 224.523 61.4369 218.437 65.5239C212.352 69.6108 207.609 75.4197 204.809 82.2156C202.009 89.0115 201.278 96.4892 202.708 103.703C204.138 110.916 207.665 117.542 212.842 122.741C218.02 127.94 224.616 131.479 231.795 132.911C238.975 134.342 246.415 133.602 253.176 130.784C259.937 127.965 265.714 123.195 269.777 117.077C273.839 110.958 276.005 103.767 276 96.4115C275.993 86.5546 272.091 77.1039 265.152 70.1366C258.214 63.1693 248.806 59.2555 238.997 59.2555ZM238.997 131.326C232.132 131.326 225.421 129.281 219.712 125.449C214.003 121.616 209.553 116.169 206.925 109.796C204.296 103.423 203.607 96.4092 204.945 89.6424C206.282 82.8756 209.586 76.6592 214.439 71.779C219.291 66.8988 225.475 63.5739 232.208 62.2247C238.941 60.8755 245.92 61.5625 252.265 64.1989C258.609 66.8353 264.033 71.3027 267.851 77.0364C271.669 82.7701 273.71 89.5126 273.715 96.4115C273.719 100.995 272.824 105.535 271.08 109.771C269.337 114.007 266.78 117.856 263.556 121.098C260.332 124.341 256.504 126.913 252.29 128.668C248.076 130.423 243.559 131.326 238.997 131.326Z" fill="#3D525D"/>
<path d="M228.459 108.603L228.459 108.602L232.954 104.086L232.958 104.082L232.958 104.082C233.446 103.615 234.093 103.355 234.767 103.355C235.44 103.355 236.087 103.615 236.575 104.082L236.58 104.086L236.579 104.086L240.524 108.057C240.75 108.274 241.051 108.394 241.363 108.394C241.675 108.394 241.975 108.274 242.201 108.057L252.748 97.4583C252.749 97.4582 252.749 97.4581 252.749 97.458C252.97 97.234 253.094 96.9311 253.094 96.6152C253.094 96.2992 252.97 95.9963 252.749 95.7723C252.749 95.7722 252.749 95.7722 252.748 95.7721L248.802 91.8L228.459 108.603ZM228.459 108.603C228.205 108.86 228.008 109.167 227.88 109.506C227.752 109.844 227.696 110.205 227.716 110.566C227.735 110.928 227.83 111.281 227.994 111.603C228.158 111.925 228.388 112.209 228.668 112.436M228.459 108.603L256.168 83.3956M256.168 83.3956L256.282 83.1733C256.604 83.3391 256.888 83.5709 257.115 83.8536L257.116 83.854C259.508 86.8426 261.012 90.4494 261.454 94.259C261.895 98.0686 261.257 101.926 259.613 105.387C257.968 108.848 255.384 111.773 252.158 113.823C248.931 115.873 245.194 116.965 241.377 116.975L241.273 116.975L241.259 116.961C236.672 116.937 232.23 115.342 228.668 112.436M256.168 83.3956L256.282 83.1733M256.168 83.3956L256.282 83.1733M228.668 112.436C228.668 112.436 228.668 112.436 228.668 112.436L228.826 112.242L228.668 112.436C228.668 112.436 228.668 112.436 228.668 112.436ZM256.282 83.1733C255.96 83.0075 255.607 82.9115 255.245 82.8914L256.282 83.1733ZM234.766 104.736L234.993 104.737C235.064 104.751 235.134 104.771 235.202 104.798C235.347 104.856 235.479 104.942 235.591 105.051C235.591 105.051 235.591 105.052 235.592 105.052L239.537 109.016L239.536 109.016L239.541 109.02C240.028 109.487 240.676 109.747 241.349 109.747C242.023 109.747 242.67 109.487 243.158 109.02L243.158 109.021L243.162 109.016L253.712 98.4147L253.712 98.4143C254.191 97.9308 254.46 97.2766 254.46 96.5948C254.46 95.9131 254.191 95.2589 253.712 94.7754L253.712 94.775L249.758 90.802L249.758 90.8018C249.648 90.6914 249.561 90.5602 249.501 90.4156C249.441 90.2711 249.411 90.1161 249.411 89.9596C249.411 89.803 249.441 89.6481 249.501 89.5035C249.561 89.359 249.648 89.2278 249.758 89.1173L254.266 84.6081L254.266 84.6075C254.383 84.4894 254.524 84.3975 254.679 84.3377C254.833 84.2779 254.998 84.2514 255.164 84.2599C255.332 84.2691 255.497 84.3138 255.647 84.3913C255.798 84.4687 255.93 84.5772 256.036 84.7097L256.037 84.711C258.989 88.3522 260.491 92.965 260.251 97.6557C260.012 102.346 258.048 106.78 254.741 110.099C251.434 113.417 247.019 115.383 242.351 115.617C237.684 115.851 233.097 114.335 229.478 111.363L229.476 111.362C229.345 111.255 229.237 111.122 229.159 110.971C229.082 110.82 229.037 110.653 229.028 110.484L229.028 110.483C229.019 110.317 229.045 110.15 229.105 109.994C229.164 109.839 229.256 109.698 229.374 109.581C229.374 109.581 229.374 109.581 229.374 109.581L233.928 105.086L233.93 105.084C234.04 104.973 234.17 104.886 234.314 104.826C234.457 104.766 234.611 104.736 234.766 104.736ZM248.247 90.9649C248.375 91.2771 248.564 91.5607 248.802 91.7997L255.245 82.8914C254.885 82.8711 254.526 82.9277 254.19 83.0576C253.854 83.1874 253.549 83.3874 253.296 83.6442C253.296 83.6444 253.296 83.6445 253.296 83.6447L248.802 88.16C248.564 88.399 248.375 88.6827 248.247 88.995C248.118 89.3073 248.051 89.642 248.051 89.98C248.051 90.3179 248.118 90.6526 248.247 90.9649Z" fill="#3D525D" stroke="#3D525D" stroke-width="0.5"/>
<path d="M233.032 94.5363L229.995 81.7387L229.995 81.7387L229.994 81.7351C229.957 81.5863 229.871 81.4542 229.75 81.3596C229.629 81.2651 229.48 81.2136 229.326 81.2136C229.172 81.2136 229.023 81.2651 228.902 81.3596C228.781 81.4542 228.695 81.5864 228.658 81.7351L228.657 81.7376L226.48 90.7284H218.215C218.032 90.7284 217.857 90.8016 217.727 90.9314C217.598 91.0612 217.526 91.2369 217.526 91.4199C217.526 91.6028 217.598 91.7786 217.727 91.9084C217.857 92.0382 218.032 92.1113 218.215 92.1113L227.001 92.1113L227.002 92.1113C227.157 92.1107 227.307 92.0577 227.428 91.9611C227.549 91.8647 227.634 91.7304 227.67 91.5799C227.67 91.5797 227.67 91.5794 227.67 91.5792L229.297 84.8587L232.246 97.277L233.032 94.5363ZM233.032 94.5363L234.109 91.1738L234.11 91.1735C234.154 91.0343 234.242 90.9128 234.36 90.8267C234.478 90.7406 234.62 90.6942 234.767 90.6945H234.767L233.032 94.5363ZM235.274 92.0774H241.761C241.945 92.0774 242.12 92.0042 242.249 91.8744C242.378 91.7446 242.451 91.5689 242.451 91.3859C242.451 91.2029 242.378 91.0272 242.249 90.8974C242.12 90.7676 241.945 90.6945 241.761 90.6945L234.767 90.6945L232.489 97.2198L232.246 97.2775C232.28 97.4246 232.362 97.5564 232.479 97.6525C232.593 97.7463 232.734 97.801 232.881 97.8087M235.274 92.0774L235.329 91.9027L235.091 91.8274V92.0774H235.274ZM235.274 92.0774L233.613 97.3358L233.612 97.3389L233.612 97.3389C233.561 97.491 233.46 97.6211 233.325 97.7066C233.192 97.7901 233.036 97.8261 232.881 97.8087M232.881 97.8087C232.885 97.8089 232.889 97.8091 232.892 97.8092L232.901 97.5593L232.869 97.8073C232.873 97.8078 232.877 97.8082 232.881 97.8087Z" fill="#3D525D" stroke="#3D525D" stroke-width="0.5"/>
<path d="M178.287 193.217H29.7097C28.6534 193.217 27.7971 194.077 27.7971 195.139V195.879C27.7971 196.941 28.6534 197.801 29.7097 197.801H178.287C179.343 197.801 180.199 196.941 180.199 195.879V195.139C180.199 194.077 179.343 193.217 178.287 193.217Z" fill="#DFDFDF"/>
<path d="M135.209 193.217H26.5671C25.6601 193.217 24.9248 193.956 24.9248 194.867V196.151C24.9248 197.062 25.6601 197.801 26.5671 197.801H135.209C136.116 197.801 136.851 197.062 136.851 196.151V194.867C136.851 193.956 136.116 193.217 135.209 193.217Z" fill="#F9F9F9"/>
</g>
<defs>
<clipPath id="clip0">
<rect width="276" height="287" fill="white"/>
</clipPath>
</defs>
</svg>
