<svg width="64" height="65" viewBox="0 0 64 65" fill="none" xmlns="http://www.w3.org/2000/svg">
<path fill-rule="evenodd" clip-rule="evenodd" d="M42.6561 8.58481C37.499 6.28693 31.7371 5.71769 26.23 6.96194C20.7229 8.20619 15.7656 11.1973 12.0973 15.4891C8.42906 19.781 6.24642 25.1437 5.87494 30.7774C5.50346 36.411 6.96304 42.0139 10.036 46.7502C13.1089 51.4866 17.6307 55.1027 22.9267 57.0593C28.2227 59.016 34.0093 59.2082 39.4235 57.6074C44.8377 56.0066 49.5894 52.6985 52.9699 48.1765C56.3504 43.6545 58.1786 38.1609 58.1818 32.515V29.8403C58.1818 28.2337 59.4843 26.9312 61.0909 26.9312C62.6976 26.9312 64 28.2337 64 29.8403V32.5167C63.9961 39.4172 61.7616 46.1333 57.6299 51.6602C53.4982 57.187 47.6905 61.2302 41.0732 63.1868C34.4558 65.1433 27.3833 64.9084 20.9104 62.517C14.4374 60.1255 8.91094 55.7058 5.15512 49.9169C1.3993 44.128 -0.38467 37.2801 0.0693642 30.3945C0.523398 23.5089 3.19113 16.9546 7.67456 11.709C12.158 6.46336 18.2169 2.80754 24.9478 1.28678C31.6787 -0.233972 38.7209 0.461792 45.0241 3.27031C46.4916 3.92422 47.1512 5.64402 46.4973 7.11158C45.8433 8.57913 44.1236 9.23871 42.6561 8.58481Z" fill="#3D525D"/>
<path fill-rule="evenodd" clip-rule="evenodd" d="M59.7832 10.351C60.9199 11.4865 60.9208 13.3285 59.7853 14.4651L30.6944 43.5851C30.1489 44.1311 29.4088 44.438 28.637 44.4382C27.8652 44.4383 27.1251 44.1318 26.5793 43.5861L17.8521 34.8588C16.716 33.7228 16.716 31.8808 17.8521 30.7448C18.9881 29.6087 20.8301 29.6087 21.9661 30.7448L28.6353 37.414L55.6692 10.3531C56.8047 9.21644 58.6466 9.21553 59.7832 10.351Z" fill="#FF4013"/>
</svg>
