<svg width="20" height="12" viewBox="0 0 20 12" fill="none" xmlns="http://www.w3.org/2000/svg">
<path d="M19.3001 1.10019C19.5001 0.600193 19.3001 0.300194 18.7001 0.300194H16.6001C16.1001 0.300194 15.8001 0.600196 15.7001 0.900196C15.7001 0.900196 14.6001 3.5002 13.1001 5.2002C12.6001 5.7002 12.4001 5.80019 12.1001 5.80019C11.9001 5.80019 11.8001 5.6002 11.8001 5.2002V1.00019C11.8001 0.500195 11.6001 0.200195 11.2001 0.200195H7.9001C7.6001 0.200195 7.4001 0.400195 7.4001 0.700195C7.4001 1.2002 8.2001 1.30019 8.2001 2.80019V6.00019C8.2001 6.70019 8.0001 6.8002 7.8001 6.8002C7.1001 6.8002 5.3001 4.2002 4.3001 1.2002C4.1001 0.600195 3.9001 0.400196 3.4001 0.400196H1.3001C0.700102 0.400196 0.600098 0.700195 0.600098 1.00019C0.600098 1.50019 1.3001 4.30019 3.9001 8.00019C5.7001 10.5002 8.1001 11.9002 10.3001 11.9002C11.6001 11.9002 11.8001 11.6002 11.8001 11.1002V9.00019C11.8001 8.40019 12.0001 8.3002 12.3001 8.3002C12.6001 8.3002 13.1001 8.50019 14.4001 9.70019C15.9001 11.2002 16.1001 11.8002 16.9001 11.8002H19.0001C19.6001 11.8002 19.9001 11.5002 19.7001 10.9002C19.5001 10.3002 18.9001 9.4002 17.9001 8.4002C17.4001 7.8002 16.7001 7.2002 16.4001 6.9002C16.1001 6.5002 16.2001 6.30019 16.4001 6.00019C16.4001 6.00019 19.1001 2.30019 19.3001 1.10019Z" fill="white"/>
</svg>
