<svg width="268" height="286" viewBox="0 0 268 286" fill="none" xmlns="http://www.w3.org/2000/svg">
<g clip-path="url(#clip0)">
<g opacity="0.69">
<path opacity="0.69" d="M245.72 274.442H20.4557C18.9368 274.442 17.48 275.051 16.406 276.135C15.3319 277.218 14.7285 278.688 14.7285 280.221C14.7285 281.754 15.3319 283.224 16.406 284.307C17.48 285.391 18.9368 286 20.4557 286H245.72C247.239 286 248.696 285.391 249.77 284.307C250.844 283.224 251.447 281.754 251.447 280.221C251.447 278.688 250.844 277.218 249.77 276.135C248.696 275.051 247.239 274.442 245.72 274.442Z" fill="#C9C9C9"/>
</g>
<path d="M64.8613 278.045C66.9146 278.045 68.5792 276.366 68.5792 274.294C68.5792 272.222 66.9146 270.542 64.8613 270.542C62.8079 270.542 61.1433 272.222 61.1433 274.294C61.1433 276.366 62.8079 278.045 64.8613 278.045Z" fill="#3D3E3F"/>
<path d="M80.8652 278.045C82.9185 278.045 84.5831 276.366 84.5831 274.294C84.5831 272.222 82.9185 270.542 80.8652 270.542C78.8118 270.542 77.1472 272.222 77.1472 274.294C77.1472 276.366 78.8118 278.045 80.8652 278.045Z" fill="#3D3E3F"/>
<path d="M101.65 278.045C103.703 278.045 105.368 276.366 105.368 274.294C105.368 272.222 103.703 270.542 101.65 270.542C99.5962 270.542 97.9316 272.222 97.9316 274.294C97.9316 276.366 99.5962 278.045 101.65 278.045Z" fill="#3D3E3F"/>
<path d="M116.815 278.045C118.868 278.045 120.533 276.366 120.533 274.294C120.533 272.222 118.868 270.542 116.815 270.542C114.761 270.542 113.097 272.222 113.097 274.294C113.097 276.366 114.761 278.045 116.815 278.045Z" fill="#3D3E3F"/>
<path d="M95.7092 224.337H85.9111V256.269H95.7092V224.337Z" fill="#8E8A88"/>
<path d="M96.918 243.173H84.7019V262.016H96.918V243.173Z" fill="#5B5757"/>
<path d="M119.617 274.124H115.655V270.048L94.8286 261.692L96.2892 257.982L119.617 267.34V274.124Z" fill="#5B5757"/>
<path d="M104.047 274.124H100.091V270.048L89.3774 261.692L90.8381 257.982L104.047 267.34V274.124Z" fill="#5B5757"/>
<path d="M79.0552 274.124H83.0107V270.048L93.7313 261.692L92.2637 257.982L79.0552 267.34V274.124Z" fill="#5B5757"/>
<path d="M67.0557 274.124H63.1001V267.34L86.4281 257.982L87.8888 261.692L67.0557 270.048V274.124Z" fill="#5B5757"/>
<path d="M64.8194 269.583C63.5528 269.585 62.3387 270.094 61.4438 270.998C60.5488 271.903 60.0461 273.128 60.0461 274.407H69.5996C69.5996 273.127 69.096 271.9 68.1995 270.996C67.303 270.091 66.0872 269.583 64.8194 269.583Z" fill="#5B5757"/>
<path d="M80.8304 269.583C79.5638 269.585 78.3497 270.094 77.4547 270.998C76.5598 271.903 76.0571 273.128 76.0571 274.407H85.6106C85.6106 273.127 85.1069 271.9 84.2105 270.996C83.314 270.091 82.0982 269.583 80.8304 269.583Z" fill="#5B5757"/>
<path d="M101.705 269.583C100.439 269.585 99.2247 270.094 98.3298 270.998C97.4348 271.903 96.9321 273.129 96.9321 274.407H106.5C106.5 273.772 106.375 273.144 106.134 272.557C105.893 271.971 105.54 271.439 105.095 270.991C104.649 270.543 104.121 270.188 103.539 269.946C102.957 269.705 102.334 269.581 101.705 269.583Z" fill="#5B5757"/>
<path d="M117.185 269.583C115.919 269.585 114.705 270.094 113.81 270.998C112.915 271.903 112.412 273.128 112.412 274.407H121.966C121.966 273.127 121.462 271.9 120.565 270.996C119.669 270.091 118.453 269.583 117.185 269.583Z" fill="#5B5757"/>
<path d="M134.524 279.251H137.319V269.668C137.319 269.668 141.911 274.717 145.454 278.504C145.727 278.791 146.035 279.042 146.37 279.251H159.473C159.473 276.311 157.642 274.28 155.979 273.032C153.765 271.421 151.796 269.492 150.137 267.305C148.466 265.063 147.726 262.891 145.58 261.114L142.337 258.427C140.97 257.577 139.355 257.228 137.762 257.438C136.17 257.649 134.698 258.406 133.594 259.583C129.401 263.815 133.804 270.528 133.804 270.528L134.524 279.251Z" fill="#E10000"/>
<path d="M144.685 258.688L144.371 210.205C144.417 208.099 144.012 206.008 143.182 204.075C142.352 202.142 141.117 200.413 139.563 199.007L136.509 198.041L122.476 198.372L125.9 207.935L128.849 214.324C127.451 231.876 130.247 236.707 131.924 243.032C133.483 248.942 134.762 255.387 135.866 259.844C136.096 260.775 136.096 261.805 136.704 262.538C139.556 266.008 147.963 275.754 150.535 273.553C153.638 270.888 144.685 258.688 144.685 258.688Z" fill="#E2876A"/>
<path d="M118.876 279.251H121.672V269.668C121.672 269.668 126.256 274.717 129.807 278.504C130.08 278.791 130.387 279.042 130.722 279.251H143.826C143.826 276.311 141.995 274.28 140.332 273.032C138.117 271.422 136.148 269.492 134.489 267.305C132.819 265.063 132.078 262.891 129.932 261.114L126.69 258.427C125.323 257.577 123.707 257.228 122.115 257.438C120.523 257.649 119.051 258.406 117.947 259.583C115.417 262.136 116.032 265.627 116.913 267.968C117.766 270.197 118.309 272.535 118.527 274.914L118.876 279.251Z" fill="#F12929"/>
<path d="M73.003 181.687H65.0569V207.836H73.003V181.687Z" fill="#34454E"/>
<path d="M115.927 227.708H62.2825C61.5769 227.706 60.9007 227.423 60.4018 226.919C59.9028 226.416 59.6217 225.734 59.6199 225.022C59.6217 224.31 59.9028 223.627 60.4018 223.124C60.9007 222.62 61.5769 222.337 62.2825 222.335H115.934C116.64 222.337 117.316 222.62 117.815 223.124C118.314 223.627 118.595 224.31 118.597 225.022C118.595 225.735 118.313 226.418 117.813 226.922C117.312 227.425 116.634 227.708 115.927 227.708Z" fill="#1E2127"/>
<path d="M112.3 207.286H65.1549C60.5233 207.286 56.7686 211.075 56.7686 215.748V216.954C56.7686 221.628 60.5233 225.417 65.1549 225.417H112.3C116.932 225.417 120.687 221.628 120.687 216.954V215.748C120.687 211.075 116.932 207.286 112.3 207.286Z" fill="#C11414"/>
<path d="M64.3722 221.418V211.263C64.374 210.203 64.7921 209.187 65.5348 208.438C66.2776 207.688 67.2844 207.267 68.3347 207.265H60.7311C59.6807 207.267 58.6739 207.688 57.9312 208.438C57.1885 209.187 56.7704 210.203 56.7686 211.263V221.418C56.7704 222.478 57.1885 223.494 57.9312 224.243C58.6739 224.993 59.6807 225.415 60.7311 225.416H68.3347C67.2844 225.415 66.2776 224.993 65.5348 224.243C64.7921 223.494 64.374 222.478 64.3722 221.418Z" fill="#5F727C"/>
<path d="M116.731 207.286H68.3346C66.1462 207.286 64.3721 209.076 64.3721 211.284V221.418C64.3721 223.626 66.1462 225.417 68.3346 225.417H116.731C118.919 225.417 120.693 223.626 120.693 221.418V211.284C120.693 209.076 118.919 207.286 116.731 207.286Z" fill="#3D525D"/>
<path d="M129.038 258.688L130.436 213.555C130.483 211.449 130.077 209.357 129.247 207.424C128.417 205.491 127.182 203.762 125.628 202.356L120.868 198.012L113.488 211.496C111.154 230.536 115.096 234.513 116.5 241.262C117.835 247.665 119.429 254.464 120.309 259.908C120.463 260.853 120.456 261.812 121.057 262.545C123.908 266.015 132.316 275.76 134.887 273.56C137.99 270.888 129.038 258.688 129.038 258.688Z" fill="#EF9D7D"/>
<path d="M60.9127 142.577C60.9104 141.225 61.3203 139.906 62.0868 138.797H60.2278C58.669 138.797 57.174 139.422 56.0718 140.534C54.9696 141.646 54.3503 143.155 54.3503 144.728V181.715C54.3503 183.288 54.9696 184.797 56.0718 185.909C57.174 187.021 58.669 187.646 60.2278 187.646H62.0868C61.3207 186.537 60.9109 185.218 60.9127 183.866V142.577Z" fill="#F23636"/>
<path d="M89.9365 181.722V144.735C89.9365 143.162 89.3172 141.653 88.215 140.541C87.1128 139.429 85.6178 138.804 84.059 138.804H62.0938C61.3273 139.913 60.9174 141.232 60.9197 142.584V183.88C60.9179 185.232 61.3277 186.551 62.0938 187.66H84.059C84.8315 187.66 85.5963 187.507 86.3098 187.208C87.0234 186.91 87.6716 186.472 88.2175 185.921C88.7633 185.369 89.1961 184.715 89.4911 183.994C89.7861 183.274 89.9374 182.502 89.9365 181.722Z" fill="#F23636"/>
<path d="M60.9127 142.577C60.9104 141.225 61.3203 139.906 62.0868 138.797H60.2278C58.669 138.797 57.174 139.422 56.0718 140.534C54.9696 141.646 54.3503 143.155 54.3503 144.728V181.715C54.3503 183.288 54.9696 184.797 56.0718 185.909C57.174 187.021 58.669 187.646 60.2278 187.646H62.0868C61.3207 186.537 60.9109 185.218 60.9127 183.866V142.577Z" fill="#5F727C"/>
<path d="M89.9365 181.722V144.735C89.9365 143.162 89.3172 141.653 88.215 140.541C87.1128 139.429 85.6178 138.804 84.059 138.804H62.0938C61.3273 139.913 60.9174 141.232 60.9197 142.584V183.88C60.9179 185.232 61.3277 186.551 62.0938 187.66H84.059C84.8315 187.66 85.5963 187.507 86.3098 187.208C87.0234 186.91 87.6716 186.472 88.2175 185.921C88.7633 185.369 89.1961 184.715 89.4911 183.994C89.7861 183.274 89.9374 182.502 89.9365 181.722Z" fill="#1E2127"/>
<path d="M127.326 177.174L137.872 175.495L148.229 180.721L149.99 184.55H125.012L127.326 177.174Z" fill="#EF9D7D"/>
<path d="M105.92 143.254C105.74 142.827 105.453 142.454 105.087 142.172C104.721 141.891 104.289 141.71 103.834 141.647C103.378 141.584 102.914 141.642 102.487 141.815C102.06 141.988 101.685 142.27 101.398 142.633C99.8219 144.823 98.7455 147.337 98.2462 149.996C97.128 155.009 96.3732 162.541 95.9399 168.006C95.6464 171.716 98.5467 184.339 102.23 184.339H133.168V174.325L112.901 173.993C110.385 173.993 107.499 169.713 108.96 163.14C110.169 157.668 109.113 150.355 105.92 143.254Z" fill="#3D525D"/>
<path d="M113.894 192.879C111.632 191.062 109.268 189.378 106.814 187.836C103.928 186.017 99.8255 182.745 100.168 179.085C100.168 178.883 100.189 178.685 100.231 178.493C100.406 177.098 100.86 175.754 101.565 174.542C102.271 173.33 103.212 172.275 104.333 171.441C107.338 169.17 112.377 163.31 108.687 150.99L106.444 143.755C106.08 142.582 105.384 141.544 104.441 140.766C103.498 139.989 102.35 139.508 101.139 139.382L100.629 139.333L76.7141 139.368L69.0266 140.073C69.0266 140.073 72.0737 154.692 74.31 165.87C75.4701 171.645 77.364 174.79 76.5114 178.126C75.2884 182.928 73.9746 187.808 71.9548 192.307C68.5933 199.79 72.3183 214.366 82.1303 214.366H113.418C116.263 206.877 122.042 201.271 129.828 199.663L138.913 198.203L113.894 192.879Z" fill="#1E2127"/>
<path d="M95.3179 133.868C96.8974 134.441 98.5836 134.653 100.254 134.487C101.925 134.321 103.538 133.782 104.976 132.909C108.24 130.878 108.219 117.733 105.235 114.172C102.251 110.61 99.546 110.54 99.546 110.54L95.3179 133.868Z" fill="#AF593A"/>
<path d="M93.7732 129.763V137.704L100.601 139.361C100.601 139.361 102.537 163.683 90.9079 176.314C90.9079 176.314 88.9371 150.588 76.686 139.396L83.465 137.986V127.034L93.7732 129.763Z" fill="#EF9D7D"/>
<path d="M99.546 110.547C99.1127 106.95 97.7918 104.045 93.8153 102.733C89.9855 101.471 83.7516 101.809 80.6347 104.708C76.5813 108.481 76.0642 114.157 76.4415 119.355C77.0635 127.211 84.4785 134.954 92.5154 134.989C94.3324 134.989 96.0097 133.988 97.4074 132.916C99.3573 131.505 101.244 129.749 102.013 127.465C103.683 122.528 99.8325 117.824 99.6648 112.937C99.6927 112.112 99.6438 111.308 99.546 110.547Z" fill="#FFB08D"/>
<path d="M77.2313 115.314L77.8603 116.287C76.7002 114.778 74.6525 114.369 73.4994 115.547C72.2065 116.865 72.3462 119.827 73.7649 121.428C75.1836 123.029 77.5318 122.916 78.4892 121.216C79.4467 119.517 78.8247 116.611 77.2313 115.314Z" fill="#FFB08D"/>
<path d="M83.7026 149.079C89.7688 161.18 90.9289 176.321 90.9289 176.321C97.8127 168.846 99.9442 157.28 100.531 149.079H83.7026Z" fill="#F1F1F1"/>
<path d="M89.2307 102.127C89.2307 102.127 77.986 100.85 77.2312 115.314C76.9257 119.308 77.8657 123.299 79.9196 126.727C81.9736 130.155 85.0386 132.849 88.6856 134.432C88.6856 134.432 72.9472 137.168 69.963 130.328C66.9789 123.487 67.7896 96.3794 85.4289 96.3794L88.6856 96.9294C88.6856 96.9294 94.6539 93.0931 100.622 100.216C106.59 107.338 113.649 128.692 104.69 133.071L103.802 131.174C102.671 128.758 102.291 126.054 102.712 123.417L103.879 116.061C103.879 116.061 89.2307 108.699 89.2307 102.127Z" fill="#AF593A"/>
<path d="M90.922 103.749C89.6692 102.589 88.5635 101.276 87.6304 99.8419C85.4756 100.964 83.4585 102.337 81.6201 103.932C76.5184 108.523 75.1836 113.607 74.8691 118.431C79.5795 119.996 93.4449 114.122 95.9958 107.634C94.1793 106.515 92.4794 105.213 90.922 103.749Z" fill="#AF593A"/>
<path d="M97.2605 176.976L107.806 175.291L118.163 180.524L119.925 184.353H94.9473L97.2605 176.976Z" fill="#EF9D7D"/>
<path d="M69.0335 140.109C69.0335 140.109 64.6935 141.329 62.7437 149.981C61.6255 154.995 60.8708 169.854 60.4375 175.319C60.1439 179.029 63.0442 184.43 66.7272 184.43H97.6659V174.417L77.3989 174.085C74.883 174.085 73.5691 171.13 74.7642 162.569C76.2737 151.787 74.9528 146.321 69.0335 140.109Z" fill="#3D525D"/>
<path d="M155.846 179.438H100.35V184.466H155.846V179.438Z" fill="#DCE9F9"/>
<path d="M157.992 162.301L154.588 159.015L145.832 172.019H158.677L157.992 162.301Z" fill="#565656"/>
<path d="M172.109 181.024H159.662V182.399H172.109V181.024Z" fill="#ADADAD"/>
<path d="M195.129 129.629H135.516C135.022 129.63 134.541 129.793 134.147 130.095C133.754 130.397 133.469 130.82 133.336 131.301L122.895 169.113C122.801 169.453 122.786 169.81 122.852 170.156C122.917 170.502 123.061 170.828 123.273 171.108C123.484 171.389 123.756 171.617 124.069 171.773C124.382 171.93 124.726 172.012 125.075 172.012H184.688C185.18 172.013 185.659 171.853 186.052 171.555C186.446 171.257 186.732 170.838 186.869 170.362L197.31 132.549C197.408 132.208 197.425 131.849 197.362 131.5C197.298 131.151 197.155 130.822 196.943 130.539C196.731 130.256 196.457 130.026 196.143 129.868C195.828 129.71 195.481 129.629 195.129 129.629Z" fill="#ADADAD"/>
<path d="M157.314 182.399V159.107H154.588V181.024H139.556V184.437H142.281V182.399H157.314Z" fill="#F4F4F4"/>
<path d="M179.44 182.399H167V181.024H164.275V159.107H157.314V182.399H142.281V184.437H179.44V182.399Z" fill="#ADADAD"/>
<path d="M128.499 169.12L138.941 131.308C139.073 130.827 139.358 130.404 139.752 130.102C140.146 129.8 140.627 129.637 141.121 129.636H135.53C135.036 129.637 134.555 129.8 134.161 130.102C133.767 130.404 133.482 130.827 133.35 131.308L122.909 169.12C122.815 169.46 122.8 169.816 122.866 170.163C122.931 170.509 123.075 170.835 123.286 171.115C123.497 171.396 123.77 171.624 124.083 171.78C124.395 171.937 124.74 172.019 125.089 172.019H130.68C130.331 172.019 129.986 171.937 129.674 171.78C129.361 171.624 129.088 171.396 128.877 171.115C128.666 170.835 128.522 170.509 128.457 170.163C128.391 169.816 128.406 169.46 128.499 169.12Z" fill="#F4F4F4"/>
<path d="M156.992 134.326C156.848 134.326 156.706 134.366 156.583 134.442C156.459 134.518 156.359 134.626 156.294 134.756L153.107 142.513C153.009 142.753 153.156 142.944 153.435 142.944C153.58 142.944 153.721 142.904 153.845 142.828C153.968 142.752 154.068 142.643 154.134 142.513L157.321 134.756C157.419 134.516 157.272 134.326 156.992 134.326Z" fill="#565656"/>
<path d="M160.053 134.326C159.909 134.326 159.767 134.366 159.644 134.442C159.52 134.518 159.42 134.626 159.355 134.756L156.168 142.513C156.07 142.753 156.217 142.944 156.496 142.944C156.641 142.944 156.782 142.904 156.906 142.828C157.029 142.752 157.129 142.643 157.195 142.513L160.382 134.756C160.48 134.516 160.312 134.326 160.053 134.326Z" fill="#565656"/>
<path d="M163.107 134.326C162.963 134.326 162.821 134.366 162.698 134.442C162.574 134.518 162.474 134.626 162.409 134.756L159.222 142.513C159.124 142.753 159.271 142.944 159.55 142.944C159.695 142.944 159.836 142.904 159.96 142.828C160.083 142.752 160.183 142.643 160.249 142.513L163.436 134.756C163.541 134.516 163.394 134.326 163.107 134.326Z" fill="#565656"/>
<path d="M166.176 134.326C166.031 134.326 165.889 134.366 165.766 134.442C165.643 134.518 165.542 134.626 165.477 134.756L162.29 142.513C162.192 142.753 162.339 142.944 162.618 142.944C162.763 142.944 162.905 142.904 163.028 142.828C163.151 142.752 163.251 142.643 163.317 142.513L166.504 134.756C166.602 134.516 166.455 134.326 166.176 134.326Z" fill="#565656"/>
<path d="M169.237 134.326C169.092 134.326 168.95 134.366 168.827 134.442C168.704 134.518 168.603 134.626 168.538 134.756L165.351 142.513C165.253 142.753 165.4 142.944 165.679 142.944C165.824 142.944 165.966 142.904 166.089 142.828C166.212 142.752 166.312 142.643 166.378 142.513L169.565 134.756C169.663 134.516 169.516 134.326 169.237 134.326Z" fill="#565656"/>
<path d="M172.305 134.326C172.16 134.326 172.018 134.366 171.895 134.442C171.772 134.518 171.672 134.626 171.606 134.756L168.419 142.513C168.321 142.753 168.468 142.944 168.747 142.944C168.892 142.944 169.034 142.904 169.157 142.828C169.28 142.752 169.381 142.643 169.446 142.513L172.633 134.756C172.724 134.516 172.577 134.326 172.305 134.326Z" fill="#565656"/>
<path d="M89.8597 188.584V185.904H43.0079V188.584H42.5466V278.412H48.3891V200.805H87.9029V278.412H93.7453V188.584H89.8597Z" fill="#3F4344"/>
<path d="M212.398 188.584V185.904H165.547V188.584H165.085V278.412H170.935V200.805H210.442V278.412H216.284V188.584H212.398Z" fill="#2E3435"/>
<path d="M220.897 184.395H49.5283V193.422H220.897V184.395Z" fill="#D0D0D0"/>
<path d="M97.5611 184.395H37.7524V193.422H97.5611V184.395Z" fill="#F9F9F9"/>
<path d="M76.686 121.52C78.6854 121.52 80.3061 119.884 80.3061 117.867C80.3061 115.849 78.6854 114.214 76.686 114.214C74.6867 114.214 73.0659 115.849 73.0659 117.867C73.0659 119.884 74.6867 121.52 76.686 121.52Z" fill="#3F4344"/>
<path d="M89.1957 133.564H84.7579C84.006 133.567 83.2612 133.418 82.5666 133.128C81.872 132.837 81.2414 132.41 80.7115 131.872L77.336 128.466C76.8026 127.931 76.3797 127.295 76.0917 126.594C75.8038 125.893 75.6566 125.142 75.6587 124.383V119.905H77.0914V124.383C77.0907 124.95 77.2015 125.513 77.4174 126.037C77.6334 126.561 77.9501 127.036 78.3493 127.436L81.7248 130.842C82.1211 131.245 82.5925 131.565 83.112 131.783C83.6314 132.001 84.1884 132.112 84.7509 132.112H89.1887L89.1957 133.564Z" fill="#3F4344"/>
<path d="M90.4256 130.998H88.7973C88.4191 130.998 88.0565 131.149 87.7892 131.419C87.5218 131.689 87.3716 132.055 87.3716 132.436C87.3716 132.818 87.5218 133.184 87.7892 133.453C88.0565 133.723 88.4191 133.875 88.7973 133.875H90.4256C90.8037 133.875 91.1664 133.723 91.4337 133.453C91.7011 133.184 91.8513 132.818 91.8513 132.436C91.8513 132.055 91.7011 131.689 91.4337 131.419C91.1664 131.149 90.8037 130.998 90.4256 130.998Z" fill="#3F4344"/>
<path d="M106.395 109.39V108.481C106.122 99.7502 99.4061 93.6221 90.8031 93.6221C86.6598 93.6258 82.6873 95.2883 79.7575 98.2446C76.8278 101.201 75.1802 105.209 75.1765 109.39V117.006H76.9726V109.39C76.9546 105.975 78.1783 102.672 80.4119 100.106C82.6456 97.5401 85.7341 95.8898 89.0927 95.4674C92.4512 95.0451 95.8466 95.8802 98.636 97.8144C101.425 99.7487 103.415 102.648 104.228 105.963C105.061 107.613 105.792 109.313 106.416 111.055L106.395 109.39Z" fill="#3F4344"/>
<path d="M147.425 40.6054C139.567 40.881 131.981 43.5727 125.682 48.3199C119.382 53.0671 114.671 59.6432 112.178 67.1674C109.685 74.6916 109.531 82.8048 111.735 90.4203C113.938 98.0357 118.396 104.79 124.509 109.778L119.044 118.241C118.847 118.548 118.746 118.908 118.754 119.275C118.763 119.641 118.88 119.996 119.091 120.294C119.302 120.592 119.597 120.819 119.938 120.946C120.278 121.073 120.649 121.093 121.001 121.005L137.592 116.774C142.954 118.414 148.605 118.857 154.154 118.071C159.702 117.285 165.014 115.289 169.721 112.221C174.427 109.154 178.415 105.09 181.408 100.31C184.4 95.5304 186.325 90.1505 187.049 84.5443C187.773 78.9381 187.278 73.2401 185.599 67.8464C183.92 62.4527 181.097 57.4927 177.326 53.3112C173.555 49.1298 168.927 45.8271 163.763 43.6329C158.6 41.4387 153.024 40.4056 147.425 40.6054Z" fill="#FF4013"/>
<path d="M148.774 111.654C166.71 111.654 181.25 96.9821 181.25 78.8835C181.25 60.7848 166.71 46.1129 148.774 46.1129C130.838 46.1129 116.298 60.7848 116.298 78.8835C116.298 96.9821 130.838 111.654 148.774 111.654Z" fill="white"/>
<path d="M115.655 78.284L114.39 79.1866C113.608 79.7421 112.67 80.0302 111.715 80.0086C110.759 79.9871 109.835 79.657 109.078 79.0667L96.2193 69.0318C96.2193 69.0318 95.0522 64.8006 93.4239 62.4452C92.3139 60.9154 90.9774 59.5668 89.4613 58.4468C89.4613 58.4468 88.2942 59.6245 90.1602 62.2125L91.3832 64.7371C91.3832 64.7371 84.3945 64.6596 83.2135 63.9967C82.3184 63.4394 81.5798 62.6601 81.068 61.733C80.9976 61.6136 80.8996 61.5131 80.7823 61.4403C80.6651 61.3674 80.5321 61.3243 80.3947 61.3145C80.2573 61.3048 80.1197 61.3289 79.9935 61.3845C79.8674 61.4402 79.7564 61.5259 79.6702 61.6343C79.1042 62.3395 78.6918 63.4607 79.9009 64.8147C81.9975 67.1701 85.4918 70.2306 88.5318 70.9358L91.5649 71.641C91.5649 71.641 101.908 91.2455 109.603 93.6009C117.297 95.9562 125.676 83.2486 125.676 83.2486L115.655 78.284Z" fill="#FDA281"/>
<path d="M179.531 78.284L180.796 79.1866C181.577 79.7432 182.515 80.0319 183.471 80.0104C184.427 79.9888 185.351 79.658 186.107 79.0668L198.966 69.0318C198.966 69.0318 200.133 64.8006 201.762 62.4452C202.876 60.9143 204.217 59.5657 205.738 58.4468C205.738 58.4468 206.905 59.6245 205.039 62.2125L203.816 64.7371C203.816 64.7371 210.805 64.6596 211.986 63.9967C212.884 63.4403 213.625 62.6609 214.138 61.733C214.209 61.6136 214.307 61.5131 214.424 61.4403C214.541 61.3674 214.674 61.3243 214.812 61.3145C214.949 61.3048 215.087 61.3289 215.213 61.3845C215.339 61.4402 215.45 61.5259 215.536 61.6343C216.102 62.3395 216.515 63.4607 215.306 64.8147C213.209 67.1701 209.715 70.2306 206.675 70.9358L203.642 71.634C203.642 71.634 193.298 91.2385 185.604 93.5938C177.909 95.9492 169.53 83.2415 169.53 83.2415L179.531 78.284Z" fill="#FDA281"/>
<path d="M130.142 61.5426L112.559 79.2854L120.232 91.2808L135.097 81.0343L130.142 61.5426Z" fill="#0A3A78"/>
<path d="M162.513 108.572C162.43 99.1156 162.8 74.0176 168.803 63.7922L155.651 57.53L141.037 58.0307L130.142 61.5567L129.283 82.5504C128.948 90.7214 129.793 98.898 131.791 106.823C136.372 109.662 141.579 111.308 146.946 111.616C152.313 111.924 157.672 110.883 162.541 108.586L162.513 108.572Z" fill="#0A3A78"/>
<path d="M144.685 55.4144L138.703 58.2705L137.62 67.4945C137.62 67.4945 140.101 63.1857 144.308 64.1659L144.685 55.4144Z" fill="#F0F0F0"/>
<path d="M144.308 49.7941V64.1801L153.568 59.3495V49.7941H144.308Z" fill="#FDA281"/>
<path d="M153.575 53.3764V49.7728H144.308V57.6852C144.567 57.6852 144.818 57.6852 145.077 57.6852C146.73 57.6938 148.361 57.308 149.838 56.5592C151.315 55.8104 152.595 54.7198 153.575 53.3764Z" fill="#F49376"/>
<path d="M146.761 27.5591L134.88 30.4151C134.88 30.4151 135.579 41.2822 137.117 46.811C137.858 49.4625 140.108 51.2396 142.246 52.3679C143.635 53.109 145.183 53.4963 146.754 53.4963C148.325 53.4963 149.873 53.109 151.262 52.3679C153.4 51.2396 155.644 49.4625 156.391 46.811C157.943 41.2822 158.628 30.4151 158.628 30.4151L146.761 27.5591Z" fill="#FDA281"/>
<path d="M135.509 37.7845L136.278 32.1429C136.278 32.1429 140.136 39.1526 154.19 31.0499C154.19 31.0499 154.344 38.0595 157.586 39.3077L158.635 30.3729L148.48 24.5127L134.126 28.2502C133.82 31.0175 134.138 33.8186 135.055 36.4446L135.509 37.7845Z" fill="#AA5D46"/>
<path d="M157.586 39.3571L159.131 38.7365C159.131 38.7365 162.374 28.2996 161.29 26.7482C161.026 26.3142 160.666 25.9478 160.238 25.6774C159.81 25.4071 159.326 25.2402 158.823 25.1897C158.823 25.1897 154.966 18.6454 144.93 19.8936C134.894 21.1418 131.959 19.8936 131.959 19.8936C131.959 19.8936 130.107 29.2798 134.894 30.4293C139.682 31.5788 148.941 27.2065 148.941 27.2065L156.629 32.8481L157.586 39.3571Z" fill="#AA5D46"/>
<path d="M158.292 43.158C160.049 43.158 161.472 41.7215 161.472 39.9494C161.472 38.1773 160.049 36.7407 158.292 36.7407C156.536 36.7407 155.113 38.1773 155.113 39.9494C155.113 41.7215 156.536 43.158 158.292 43.158Z" fill="#FDA281"/>
<path d="M153.575 59.3424V55.4144L160.354 59.025L152.666 70.682C152.666 70.682 149.633 63.3902 144.343 64.18L153.575 59.3424Z" fill="#F0F0F0"/>
<path d="M168.768 63.7922L183.626 79.2854L173.968 92.7759L159.858 82.2825L168.768 63.7922Z" fill="#0A3A78"/>
<path d="M144.504 64.2365L144.112 64.1237C144.042 64.3846 137.124 89.941 143.686 111.238L144.133 111.301C137.487 90.089 144.434 64.4974 144.504 64.2365Z" fill="#384952"/>
<path d="M145.244 71.4789C145.758 71.4789 146.174 71.0589 146.174 70.5409C146.174 70.0229 145.758 69.603 145.244 69.603C144.731 69.603 144.315 70.0229 144.315 70.5409C144.315 71.0589 144.731 71.4789 145.244 71.4789Z" fill="#F0F0F0"/>
<path d="M143.763 78.284C144.276 78.284 144.692 77.8641 144.692 77.3461C144.692 76.8281 144.276 76.4082 143.763 76.4082C143.25 76.4082 142.833 76.8281 142.833 77.3461C142.833 77.8641 143.25 78.284 143.763 78.284Z" fill="#F0F0F0"/>
<path d="M143.267 86.034C143.78 86.034 144.196 85.6141 144.196 85.0961C144.196 84.5781 143.78 84.1582 143.267 84.1582C142.754 84.1582 142.337 84.5781 142.337 85.0961C142.337 85.6141 142.754 86.034 143.267 86.034Z" fill="#F0F0F0"/>
<path d="M143.015 93.5233C143.529 93.5233 143.945 93.1034 143.945 92.5854C143.945 92.0674 143.529 91.6475 143.015 91.6475C142.502 91.6475 142.086 92.0674 142.086 92.5854C142.086 93.1034 142.502 93.5233 143.015 93.5233Z" fill="#F0F0F0"/>
<path d="M144.008 100.773C144.521 100.773 144.937 100.353 144.937 99.8349C144.937 99.3169 144.521 98.897 144.008 98.897C143.494 98.897 143.078 99.3169 143.078 99.8349C143.078 100.353 143.494 100.773 144.008 100.773Z" fill="#F0F0F0"/>
<path d="M145.244 109.27C145.758 109.27 146.174 108.85 146.174 108.332C146.174 107.814 145.758 107.395 145.244 107.395C144.731 107.395 144.315 107.814 144.315 108.332C144.315 108.85 144.731 109.27 145.244 109.27Z" fill="#F0F0F0"/>
<path d="M47.2361 125.102C46.9001 125.1 46.5678 125.032 46.2584 124.9C45.9489 124.768 45.6684 124.575 45.433 124.333L35.9145 114.722H8.65885C6.36664 114.72 4.16884 113.8 2.548 112.164C0.927165 110.529 0.0157668 108.311 0.013916 105.998V90.0467C0.0157668 87.7337 0.927165 85.5159 2.548 83.8804C4.16884 82.2449 6.36664 81.3252 8.65885 81.3234H47.4877C49.7799 81.3252 51.9777 82.2449 53.5985 83.8804C55.2194 85.5159 56.1308 87.7337 56.1326 90.0467V106.005C56.1308 107.903 55.5157 109.748 54.3806 111.262C53.2455 112.775 51.6524 113.873 49.8428 114.39V122.5C49.8485 123.016 49.6994 123.522 49.415 123.951C49.1307 124.38 48.7244 124.713 48.2494 124.905C47.928 125.038 47.5835 125.105 47.2361 125.102ZM8.65885 83.2556C6.87635 83.2575 5.16739 83.9728 3.90697 85.2446C2.64655 86.5165 1.93764 88.241 1.93579 90.0396V105.998C1.93579 107.798 2.64388 109.524 3.9045 110.798C5.16512 112.071 6.87514 112.787 8.65885 112.789H36.7112L46.8028 122.972C46.8946 123.064 47.0111 123.126 47.1377 123.151C47.2643 123.176 47.3953 123.163 47.5146 123.113C47.6338 123.064 47.736 122.98 47.8082 122.872C47.8805 122.764 47.9197 122.637 47.921 122.507V112.817L48.7037 112.669C50.2486 112.383 51.6452 111.559 52.6511 110.342C53.6571 109.125 54.2089 107.59 54.2107 106.005V90.0467C54.2089 88.248 53.5 86.5236 52.2396 85.2517C50.9791 83.9799 49.2702 83.2645 47.4877 83.2627L8.65885 83.2556Z" fill="#3D525D"/>
<path d="M29.6875 92.0142H7.76416C7.5093 92.0142 7.26488 91.9121 7.08467 91.7302C6.90446 91.5484 6.80322 91.3018 6.80322 91.0446C6.80322 90.7874 6.90446 90.5408 7.08467 90.359C7.26488 90.1771 7.5093 90.075 7.76416 90.075H29.6875C29.9423 90.075 30.1868 90.1771 30.367 90.359C30.5472 90.5408 30.6484 90.7874 30.6484 91.0446C30.6484 91.3018 30.5472 91.5484 30.367 91.7302C30.1868 91.9121 29.9423 92.0142 29.6875 92.0142Z" fill="#3D525D"/>
<path d="M46.1247 99.2072H7.76416C7.5093 99.2072 7.26488 99.1051 7.08467 98.9232C6.90446 98.7414 6.80322 98.4948 6.80322 98.2376C6.80322 97.9804 6.90446 97.7338 7.08467 97.5519C7.26488 97.3701 7.5093 97.2679 7.76416 97.2679H46.1247C46.3796 97.2679 46.624 97.3701 46.8042 97.5519C46.9844 97.7338 47.0857 97.9804 47.0857 98.2376C47.0857 98.4948 46.9844 98.7414 46.8042 98.9232C46.624 99.1051 46.3796 99.2072 46.1247 99.2072Z" fill="#3D525D"/>
<path d="M46.1248 106.943H40.5339C40.2791 106.943 40.0347 106.841 39.8544 106.659C39.6742 106.477 39.573 106.231 39.573 105.974C39.573 105.717 39.6742 105.47 39.8544 105.288C40.0347 105.106 40.2791 105.004 40.5339 105.004H46.1248C46.3797 105.004 46.6241 105.106 46.8043 105.288C46.9845 105.47 47.0858 105.717 47.0858 105.974C47.0858 106.231 46.9845 106.477 46.8043 106.659C46.6241 106.841 46.3797 106.943 46.1248 106.943Z" fill="#3D525D"/>
<path d="M25.4943 106.943H7.76416C7.5093 106.943 7.26488 106.841 7.08467 106.659C6.90446 106.477 6.80322 106.231 6.80322 105.974C6.80322 105.717 6.90446 105.47 7.08467 105.288C7.26488 105.106 7.5093 105.004 7.76416 105.004H25.4943C25.7492 105.004 25.9936 105.106 26.1738 105.288C26.354 105.47 26.4552 105.717 26.4552 105.974C26.4552 106.231 26.354 106.477 26.1738 106.659C25.9936 106.841 25.7492 106.943 25.4943 106.943Z" fill="#3D525D"/>
<path d="M194.361 61.5638C193.886 61.3718 193.479 61.0394 193.195 60.6103C192.911 60.1811 192.762 59.6753 192.767 59.159V51.0493C190.958 50.5323 189.365 49.4339 188.23 47.9207C187.094 46.4076 186.479 44.5622 186.478 42.6645V26.7058C186.479 24.3929 187.391 22.1751 189.012 20.5396C190.632 18.9041 192.83 17.9844 195.122 17.9825H233.951C236.243 17.9844 238.441 18.9041 240.062 20.5396C241.683 22.1751 242.594 24.3929 242.596 26.7058V42.6645C242.594 44.9775 241.683 47.1952 240.062 48.8307C238.441 50.4662 236.243 51.3859 233.951 51.3878H206.696L197.17 60.9996C196.934 61.2424 196.652 61.4353 196.342 61.5673C196.031 61.6993 195.697 61.7676 195.36 61.7683C195.017 61.767 194.677 61.6975 194.361 61.5638ZM195.122 19.9571C193.34 19.959 191.631 20.6743 190.371 21.9462C189.11 23.218 188.401 24.9424 188.399 26.7411V42.6645C188.401 44.2495 188.953 45.7838 189.959 47.0011C190.965 48.2184 192.362 49.0419 193.906 49.3286L194.689 49.4767V59.159C194.69 59.2892 194.73 59.4161 194.802 59.5239C194.874 59.6317 194.976 59.7157 195.096 59.7653C195.215 59.8149 195.346 59.828 195.472 59.803C195.599 59.778 195.716 59.7159 195.807 59.6245L205.899 49.4414H233.951C235.734 49.4414 237.443 48.7279 238.705 47.4574C239.967 46.1868 240.678 44.4631 240.681 42.6645V26.7058C240.679 24.9072 239.971 23.1827 238.71 21.9109C237.45 20.639 235.741 19.9237 233.958 19.9218L195.122 19.9571Z" fill="#3D525D"/>
<path d="M210.896 27.3264H232.819C233.074 27.3264 233.319 27.2242 233.499 27.0424C233.679 26.8605 233.78 26.6139 233.78 26.3567C233.78 26.0996 233.679 25.8529 233.499 25.6711C233.319 25.4892 233.074 25.3871 232.819 25.3871H210.896C210.641 25.3871 210.397 25.4892 210.216 25.6711C210.036 25.8529 209.935 26.0996 209.935 26.3567C209.935 26.6139 210.036 26.8605 210.216 27.0424C210.397 27.2242 210.641 27.3264 210.896 27.3264Z" fill="#3D525D"/>
<path d="M194.458 34.5124H232.819C233.074 34.5124 233.318 34.4103 233.499 34.2284C233.679 34.0466 233.78 33.7999 233.78 33.5428C233.78 33.2856 233.679 33.039 233.499 32.8571C233.318 32.6753 233.074 32.5731 232.819 32.5731H194.458C194.204 32.5731 193.959 32.6753 193.779 32.8571C193.599 33.039 193.498 33.2856 193.498 33.5428C193.498 33.7999 193.599 34.0466 193.779 34.2284C193.959 34.4103 194.204 34.5124 194.458 34.5124Z" fill="#3D525D"/>
<path d="M194.458 42.2555H200.049C200.304 42.2555 200.549 42.1533 200.729 41.9715C200.909 41.7896 201.01 41.543 201.01 41.2858C201.01 41.0286 200.909 40.782 200.729 40.6002C200.549 40.4183 200.304 40.3162 200.049 40.3162H194.458C194.204 40.3162 193.959 40.4183 193.779 40.6002C193.599 40.782 193.498 41.0286 193.498 41.2858C193.498 41.543 193.599 41.7896 193.779 41.9715C193.959 42.1533 194.204 42.2555 194.458 42.2555Z" fill="#3D525D"/>
<path d="M215.089 42.2555H232.812C233.067 42.2555 233.312 42.1533 233.492 41.9715C233.672 41.7896 233.773 41.543 233.773 41.2858C233.773 41.0286 233.672 40.782 233.492 40.6002C233.312 40.4183 233.067 40.3162 232.812 40.3162H215.089C214.834 40.3162 214.59 40.4183 214.41 40.6002C214.229 40.782 214.128 41.0286 214.128 41.2858C214.128 41.543 214.229 41.7896 214.41 41.9715C214.59 42.1533 214.834 42.2555 215.089 42.2555Z" fill="#3D525D"/>
<path d="M45.3423 164.558H18.7855C18.6818 164.586 18.5731 164.59 18.4677 164.569C18.3623 164.548 18.2631 164.503 18.1777 164.438C18.0924 164.372 18.0233 164.287 17.9757 164.19C17.9281 164.093 17.9033 163.986 17.9033 163.877C17.9033 163.769 17.9281 163.662 17.9757 163.565C18.0233 163.468 18.0924 163.383 18.1777 163.317C18.2631 163.251 18.3623 163.206 18.4677 163.185C18.5731 163.164 18.6818 163.168 18.7855 163.197H45.3423C45.4903 163.237 45.621 163.326 45.7142 163.449C45.8074 163.572 45.8578 163.723 45.8578 163.877C45.8578 164.032 45.8074 164.183 45.7142 164.306C45.621 164.429 45.4903 164.517 45.3423 164.558Z" fill="#3D525D"/>
<path d="M11.8946 164.558H8.13472C7.98668 164.517 7.85598 164.429 7.7628 164.306C7.66962 164.183 7.61914 164.032 7.61914 163.877C7.61914 163.723 7.66962 163.572 7.7628 163.449C7.85598 163.326 7.98668 163.237 8.13472 163.197H11.8876C11.9913 163.168 12.1 163.164 12.2054 163.185C12.3108 163.206 12.41 163.251 12.4954 163.317C12.5807 163.383 12.6498 163.468 12.6974 163.565C12.745 163.662 12.7698 163.769 12.7698 163.877C12.7698 163.986 12.745 164.093 12.6974 164.19C12.6498 164.287 12.5807 164.372 12.4954 164.438C12.41 164.503 12.3108 164.548 12.2054 164.569C12.1 164.59 11.9913 164.586 11.8876 164.558H11.8946Z" fill="#3D525D"/>
<path d="M243.127 99.2495H205.633C205.448 99.2495 205.27 99.1752 205.139 99.043C205.008 98.9107 204.935 98.7313 204.935 98.5443C204.935 98.3573 205.008 98.1779 205.139 98.0457C205.27 97.9134 205.448 97.8391 205.633 97.8391H243.127C243.313 97.8391 243.491 97.9134 243.622 98.0457C243.753 98.1779 243.826 98.3573 243.826 98.5443C243.826 98.7313 243.753 98.9107 243.622 99.043C243.491 99.1752 243.313 99.2495 243.127 99.2495Z" fill="#3D525D"/>
<path d="M255.742 99.2495H249.117C248.931 99.2495 248.754 99.1752 248.623 99.043C248.492 98.9107 248.418 98.7313 248.418 98.5443C248.418 98.3573 248.492 98.1779 248.623 98.0457C248.754 97.9134 248.931 97.8391 249.117 97.8391H255.742C255.927 97.8391 256.105 97.9134 256.236 98.0457C256.367 98.1779 256.441 98.3573 256.441 98.5443C256.441 98.7313 256.367 98.9107 256.236 99.043C256.105 99.1752 255.927 99.2495 255.742 99.2495Z" fill="#3D525D"/>
<path d="M106.674 45.3512H89.6779C89.5093 45.3512 89.3475 45.2836 89.2283 45.1632C89.109 45.0429 89.042 44.8797 89.042 44.7095C89.042 44.5393 89.109 44.3761 89.2283 44.2557C89.3475 44.1354 89.5093 44.0677 89.6779 44.0677H106.674C106.843 44.0677 107.005 44.1354 107.124 44.2557C107.243 44.3761 107.31 44.5393 107.31 44.7095C107.31 44.8797 107.243 45.0429 107.124 45.1632C107.005 45.2836 106.843 45.3512 106.674 45.3512Z" fill="#3D525D"/>
<path d="M85.4289 45.3512H80.7256C80.5569 45.3512 80.3951 45.2836 80.2759 45.1632C80.1566 45.0429 80.0896 44.8797 80.0896 44.7095C80.0896 44.5393 80.1566 44.3761 80.2759 44.2557C80.3951 44.1354 80.5569 44.0677 80.7256 44.0677H85.4289C85.5976 44.0677 85.7593 44.1354 85.8786 44.2557C85.9979 44.3761 86.0649 44.5393 86.0649 44.7095C86.0649 44.8797 85.9979 45.0429 85.8786 45.1632C85.7593 45.2836 85.5976 45.3512 85.4289 45.3512Z" fill="#3D525D"/>
<path d="M118.744 28.1444H96.5127C95.8238 28.1407 95.1643 27.8619 94.6785 27.3691C94.1926 26.8762 93.9199 26.2092 93.9199 25.5141V11.7909C93.9199 11.0933 94.1946 10.4242 94.6834 9.93094C95.1723 9.43765 95.8353 9.16052 96.5267 9.16052H118.765C119.456 9.16052 120.119 9.43765 120.608 9.93094C121.097 10.4242 121.371 11.0933 121.371 11.7909V25.5141C121.371 25.8613 121.303 26.2051 121.171 26.5256C121.039 26.8461 120.845 27.137 120.6 27.3815C120.356 27.6261 120.066 27.8194 119.748 27.9503C119.429 28.0813 119.088 28.1472 118.744 28.1444ZM96.5057 11.2197C96.3543 11.2215 96.2096 11.283 96.1025 11.3911C95.9954 11.4991 95.9345 11.6452 95.9327 11.798V25.5141C95.9327 25.6674 95.993 25.8145 96.1005 25.9229C96.208 26.0314 96.3537 26.0923 96.5057 26.0923H118.744C118.895 26.0905 119.04 26.029 119.147 25.9209C119.254 25.8129 119.315 25.6669 119.317 25.5141V11.7909C119.315 11.6381 119.254 11.4921 119.147 11.384C119.04 11.276 118.895 11.2145 118.744 11.2126L96.5057 11.2197Z" fill="#3D525D"/>
<path d="M107.897 20.5707L94.4093 12.6795C94.1767 12.543 94.0073 12.3188 93.9385 12.0563C93.8697 11.7938 93.9071 11.5144 94.0424 11.2797C94.1777 11.045 94.3998 10.8741 94.66 10.8047C94.9202 10.7353 95.197 10.7729 95.4296 10.9095L107.855 18.1942L119.813 10.9165C119.927 10.8471 120.054 10.801 120.186 10.781C120.318 10.7609 120.452 10.7673 120.582 10.7997C120.711 10.8321 120.833 10.8899 120.94 10.9699C121.048 11.0498 121.138 11.1503 121.207 11.2656C121.276 11.3809 121.322 11.5088 121.342 11.6419C121.361 11.775 121.355 11.9107 121.323 12.0413C121.291 12.172 121.234 12.295 121.154 12.4032C121.075 12.5115 120.975 12.603 120.861 12.6725L107.897 20.5707Z" fill="#3D525D"/>
<path d="M42.5116 74.3067C39.3035 74.3067 36.1674 73.3468 33.4999 71.5483C30.8325 69.7498 28.7534 67.1935 27.5257 64.2027C26.298 61.2119 25.9768 57.9209 26.6027 54.7459C27.2286 51.5709 28.7734 48.6544 31.0419 46.3654C33.3104 44.0763 36.2007 42.5175 39.3472 41.8859C42.4936 41.2544 45.7551 41.5785 48.719 42.8173C51.6829 44.0562 54.2162 46.154 55.9986 48.8457C57.7809 51.5373 58.7322 54.7018 58.7322 57.9391C58.7267 62.2783 57.016 66.4382 53.9752 69.5066C50.9345 72.5749 46.8119 74.3011 42.5116 74.3067ZM42.5116 43.4966C39.6808 43.4966 36.9136 44.3436 34.5599 45.9306C32.2062 47.5176 30.3717 49.7732 29.2884 52.4122C28.2051 55.0512 27.9217 57.9551 28.4739 60.7566C29.0262 63.5582 30.3893 66.1316 32.391 68.1514C34.3927 70.1712 36.943 71.5467 39.7194 72.104C42.4958 72.6613 45.3736 72.3753 47.9889 71.2821C50.6042 70.189 52.8395 68.3379 54.4122 65.9629C55.9849 63.5878 56.8243 60.7955 56.8243 57.9391C56.8188 54.1111 55.3088 50.4415 52.6257 47.7354C49.9425 45.0292 46.3053 43.5074 42.5116 43.5037V43.4966Z" fill="#3D525D"/>
<path d="M252.632 65.9995C252.813 65.9995 252.96 65.8512 252.96 65.6681C252.96 65.4851 252.813 65.3367 252.632 65.3367C252.451 65.3367 252.303 65.4851 252.303 65.6681C252.303 65.8512 252.451 65.9995 252.632 65.9995Z" fill="#3D525D"/>
<path d="M260.431 55.7671L221.854 70.541C221.75 70.5806 221.662 70.6544 221.604 70.7506C221.547 70.8468 221.523 70.9597 221.536 71.0713C221.55 71.1828 221.601 71.2864 221.68 71.3655C221.759 71.4446 221.862 71.4944 221.973 71.5071L233.155 72.8681L234.553 89.7929C234.567 89.9921 234.648 90.1806 234.782 90.3278C234.916 90.4749 235.095 90.5723 235.291 90.6041C235.486 90.6359 235.686 90.6003 235.859 90.503C236.032 90.4057 236.168 90.2524 236.244 90.0679L241.38 77.7199L249.41 88.2979C249.465 88.3724 249.54 88.43 249.625 88.4644C249.711 88.4987 249.804 88.5084 249.895 88.4923C249.985 88.4762 250.07 88.435 250.138 88.3732C250.207 88.3115 250.258 88.2317 250.284 88.1427L260.431 55.7671ZM235.615 86.7041L234.476 72.6002L255.56 59.956L240.647 75.9216L236.104 86.7535C236.083 86.8069 236.045 86.8518 235.997 86.8814C235.948 86.9109 235.891 86.9235 235.834 86.9171C235.778 86.9106 235.725 86.8856 235.684 86.8458C235.643 86.8061 235.616 86.7538 235.608 86.6971L235.615 86.7041ZM226.005 70.3929L252.318 60.3509L233.616 71.5635L226.061 70.6468C226.028 70.6543 225.993 70.648 225.964 70.6295C225.935 70.611 225.915 70.5817 225.908 70.548C225.9 70.5144 225.906 70.4791 225.925 70.45C225.943 70.4209 225.972 70.4004 226.005 70.3929ZM257.783 59.554L249.494 85.9213C249.488 85.9426 249.475 85.9617 249.459 85.9763C249.442 85.991 249.422 86.0007 249.4 86.0044C249.378 86.008 249.356 86.0055 249.336 85.9971C249.315 85.9886 249.298 85.9746 249.285 85.9566L242.079 76.4153L257.783 59.554Z" fill="#3D525D"/>
<path d="M61.3112 27.813C60.5137 27.813 59.7341 27.5744 59.0709 27.1273C58.4078 26.6802 57.891 26.0447 57.5858 25.3012C57.2806 24.5577 57.2007 23.7395 57.3563 22.9502C57.5119 22.1609 57.8959 21.4359 58.4599 20.8668C59.0238 20.2978 59.7423 19.9102 60.5246 19.7532C61.3068 19.5962 62.1176 19.6768 62.8544 19.9848C63.5912 20.2928 64.221 20.8143 64.6641 21.4834C65.1072 22.1526 65.3437 22.9393 65.3437 23.744C65.3418 24.8226 64.9164 25.8565 64.1606 26.6192C63.4047 27.3819 62.3801 27.8112 61.3112 27.813ZM61.3112 20.5989C60.6948 20.5989 60.0922 20.7833 59.5796 21.1289C59.067 21.4745 58.6675 21.9657 58.4316 22.5404C58.1957 23.1151 58.1339 23.7475 58.2542 24.3576C58.3745 24.9677 58.6713 25.5282 59.1073 25.968C59.5432 26.4079 60.0985 26.7074 60.7032 26.8288C61.3078 26.9501 61.9345 26.8879 62.504 26.6498C63.0736 26.4118 63.5604 26.0086 63.9029 25.4914C64.2454 24.9742 64.4282 24.3661 64.4282 23.744C64.4291 23.3304 64.3492 22.9207 64.1929 22.5383C64.0367 22.1559 63.8072 21.8083 63.5177 21.5155C63.2282 21.2227 62.8843 20.9904 62.5057 20.8319C62.127 20.6734 61.7212 20.5918 61.3112 20.5918V20.5989Z" fill="#3D525D"/>
<path d="M222.092 172.188C221.294 172.188 220.515 171.95 219.851 171.503C219.188 171.055 218.671 170.42 218.366 169.676C218.061 168.933 217.981 168.115 218.137 167.325C218.292 166.536 218.676 165.811 219.24 165.242C219.804 164.673 220.523 164.285 221.305 164.128C222.087 163.971 222.898 164.052 223.635 164.36C224.372 164.668 225.001 165.19 225.445 165.859C225.888 166.528 226.124 167.315 226.124 168.119C226.122 169.198 225.697 170.232 224.941 170.994C224.185 171.757 223.161 172.186 222.092 172.188ZM222.092 164.974C221.475 164.974 220.873 165.159 220.36 165.504C219.848 165.85 219.448 166.341 219.212 166.916C218.976 167.49 218.914 168.123 219.035 168.733C219.155 169.343 219.452 169.903 219.888 170.343C220.324 170.783 220.879 171.083 221.484 171.204C222.088 171.325 222.715 171.263 223.285 171.025C223.854 170.787 224.341 170.384 224.683 169.867C225.026 169.349 225.209 168.741 225.209 168.119C225.209 167.285 224.88 166.485 224.296 165.895C223.711 165.305 222.918 164.974 222.092 164.974Z" fill="#3D525D"/>
<path d="M78.6641 85.0327C77.8649 85.0341 77.0832 84.7962 76.418 84.3492C75.7528 83.9022 75.234 83.266 74.9272 82.5214C74.6204 81.7767 74.5394 80.9569 74.6944 80.1658C74.8495 79.3747 75.2337 78.6477 75.7983 78.077C76.363 77.5062 77.0827 77.1173 77.8665 76.9595C78.6502 76.8016 79.4628 76.8819 80.2013 77.1902C80.9398 77.4985 81.5711 78.0209 82.0153 78.6914C82.4594 79.3618 82.6965 80.1502 82.6965 80.9566C82.6965 82.0365 82.2719 83.0721 81.5159 83.8363C80.7599 84.6006 79.7342 85.0308 78.6641 85.0327ZM78.6641 77.8185C78.0476 77.8185 77.445 78.003 76.9324 78.3486C76.4198 78.6942 76.0203 79.1854 75.7844 79.7601C75.5485 80.3348 75.4868 80.9672 75.6071 81.5773C75.7273 82.1874 76.0242 82.7478 76.4601 83.1877C76.896 83.6275 77.4514 83.9271 78.056 84.0484C78.6606 84.1698 79.2873 84.1075 79.8569 83.8695C80.4264 83.6314 80.9132 83.2283 81.2557 82.7111C81.5982 82.1938 81.781 81.5858 81.781 80.9637C81.7847 80.5483 81.7068 80.1363 81.5518 79.7514C81.3968 79.3666 81.1678 79.0165 80.878 78.7215C80.5882 78.4264 80.2434 78.1922 79.8634 78.0324C79.4834 77.8726 79.0758 77.7903 78.6641 77.7903V77.8185Z" fill="#3D525D"/>
<path d="M196.338 118.847C195.54 118.847 194.759 118.608 194.094 118.16C193.43 117.712 192.912 117.076 192.607 116.331C192.301 115.586 192.221 114.766 192.377 113.976C192.533 113.185 192.917 112.459 193.482 111.889C194.047 111.319 194.767 110.93 195.55 110.773C196.334 110.616 197.146 110.697 197.884 111.005C198.622 111.314 199.253 111.836 199.697 112.506C200.141 113.177 200.378 113.965 200.378 114.771C200.378 115.852 199.952 116.889 199.195 117.653C198.437 118.417 197.41 118.847 196.338 118.847ZM196.338 111.633C195.722 111.633 195.119 111.817 194.607 112.163C194.094 112.508 193.695 113 193.459 113.574C193.223 114.149 193.161 114.781 193.281 115.392C193.402 116.002 193.699 116.562 194.134 117.002C194.57 117.442 195.126 117.741 195.73 117.863C196.335 117.984 196.962 117.922 197.531 117.684C198.101 117.446 198.588 117.043 198.93 116.525C199.273 116.008 199.455 115.4 199.455 114.778C199.456 114.364 199.376 113.955 199.22 113.572C199.064 113.19 198.835 112.842 198.545 112.549C198.255 112.257 197.912 112.024 197.533 111.866C197.154 111.707 196.748 111.626 196.338 111.626V111.633Z" fill="#3D525D"/>
<path d="M262.102 33.0032C260.935 33.0032 259.795 32.6542 258.825 32.0002C257.855 31.3462 257.099 30.4166 256.652 29.329C256.206 28.2415 256.089 27.0448 256.316 25.8902C256.544 24.7357 257.106 23.6751 257.931 22.8428C258.756 22.0104 259.807 21.4435 260.951 21.2139C262.095 20.9842 263.281 21.1021 264.359 21.5525C265.437 22.003 266.358 22.7659 267.006 23.7447C267.654 24.7235 268 25.8742 268 27.0514C267.998 28.6293 267.376 30.1421 266.27 31.2579C265.165 32.3737 263.665 33.0014 262.102 33.0032ZM262.102 22.4253C261.2 22.4253 260.319 22.6949 259.57 23.2001C258.821 23.7054 258.237 24.4235 257.892 25.2636C257.547 26.1038 257.457 27.0282 257.633 27.9202C257.808 28.8121 258.242 29.6313 258.88 30.2743C259.517 30.9174 260.329 31.3553 261.213 31.5327C262.096 31.7101 263.013 31.6191 263.845 31.271C264.678 30.923 265.39 30.3337 265.89 29.5776C266.391 28.8215 266.658 27.9325 266.658 27.0231C266.649 25.8092 266.165 24.648 265.312 23.7922C264.458 22.9364 263.305 22.4553 262.102 22.4535V22.4253Z" fill="#3D525D"/>
<path d="M243.169 129.594C243.114 129.594 243.06 129.572 243.021 129.532C242.982 129.493 242.96 129.439 242.96 129.383V122.246C242.96 122.189 242.982 122.134 243.022 122.094C243.062 122.054 243.116 122.031 243.173 122.031C243.229 122.031 243.284 122.054 243.324 122.094C243.364 122.134 243.386 122.189 243.386 122.246V129.383C243.386 129.411 243.38 129.439 243.369 129.465C243.358 129.491 243.342 129.515 243.322 129.535C243.302 129.555 243.278 129.57 243.252 129.58C243.226 129.59 243.197 129.595 243.169 129.594Z" fill="#3D525D"/>
<path d="M243.169 129.813C243.056 129.813 242.948 129.768 242.868 129.687C242.788 129.606 242.743 129.497 242.743 129.383V122.246C242.735 122.185 242.74 122.124 242.758 122.065C242.776 122.007 242.806 121.953 242.846 121.907C242.886 121.861 242.935 121.824 242.99 121.799C243.045 121.774 243.105 121.761 243.166 121.761C243.226 121.761 243.286 121.774 243.341 121.799C243.397 121.824 243.446 121.861 243.486 121.907C243.526 121.953 243.556 122.007 243.574 122.065C243.591 122.124 243.596 122.185 243.589 122.246V129.383C243.589 129.496 243.545 129.604 243.466 129.684C243.388 129.765 243.281 129.811 243.169 129.813Z" fill="#3D525D"/>
<path d="M246.706 126.026H239.633C239.577 126.026 239.522 126.003 239.482 125.963C239.442 125.923 239.42 125.868 239.42 125.811C239.42 125.754 239.442 125.699 239.482 125.659C239.522 125.618 239.577 125.596 239.633 125.596H246.706C246.762 125.596 246.816 125.618 246.856 125.659C246.896 125.699 246.919 125.754 246.919 125.811C246.919 125.868 246.896 125.923 246.856 125.963C246.816 126.003 246.762 126.026 246.706 126.026Z" fill="#3D525D"/>
<path d="M246.706 126.245H239.633C239.573 126.252 239.512 126.247 239.454 126.229C239.396 126.211 239.343 126.181 239.297 126.141C239.252 126.101 239.215 126.051 239.19 125.995C239.165 125.939 239.152 125.879 239.152 125.818C239.152 125.757 239.165 125.696 239.19 125.641C239.215 125.585 239.252 125.535 239.297 125.495C239.343 125.454 239.396 125.424 239.454 125.406C239.512 125.389 239.573 125.383 239.633 125.391H246.706C246.766 125.383 246.827 125.389 246.885 125.406C246.943 125.424 246.996 125.454 247.042 125.495C247.087 125.535 247.124 125.585 247.149 125.641C247.173 125.696 247.186 125.757 247.186 125.818C247.186 125.879 247.173 125.939 247.149 125.995C247.124 126.051 247.087 126.101 247.042 126.141C246.996 126.181 246.943 126.211 246.885 126.229C246.827 126.247 246.766 126.252 246.706 126.245Z" fill="#3D525D"/>
<path d="M24.1596 141.025C24.104 141.025 24.0507 141.003 24.0114 140.963C23.972 140.924 23.95 140.87 23.95 140.814V133.691C23.95 133.634 23.9724 133.58 24.0124 133.539C24.0524 133.499 24.1066 133.476 24.1631 133.476C24.2196 133.476 24.2739 133.499 24.3138 133.539C24.3538 133.58 24.3763 133.634 24.3763 133.691V140.828C24.3727 140.883 24.348 140.934 24.3076 140.971C24.2671 141.008 24.2141 141.027 24.1596 141.025Z" fill="#B7F6F9"/>
<path d="M24.1597 141.237C24.0466 141.237 23.9382 141.192 23.8583 141.111C23.7783 141.03 23.7334 140.921 23.7334 140.807V133.691C23.7466 133.588 23.7969 133.492 23.8747 133.423C23.9525 133.354 24.0526 133.316 24.1562 133.316C24.2598 133.316 24.3599 133.354 24.4377 133.423C24.5156 133.492 24.5658 133.588 24.579 133.691V140.828C24.5737 140.937 24.5274 141.04 24.4495 141.116C24.3716 141.192 24.268 141.235 24.1597 141.237Z" fill="#3D525D"/>
<path d="M27.6958 137.457H20.6233C20.5668 137.457 20.5126 137.434 20.4726 137.394C20.4326 137.354 20.4102 137.299 20.4102 137.242C20.4102 137.185 20.4326 137.13 20.4726 137.09C20.5126 137.05 20.5668 137.027 20.6233 137.027H27.6958C27.7523 137.027 27.8065 137.05 27.8465 137.09C27.8865 137.13 27.909 137.185 27.909 137.242C27.909 137.299 27.8865 137.354 27.8465 137.394C27.8065 137.434 27.7523 137.457 27.6958 137.457Z" fill="#B7F6F9"/>
<path d="M27.6958 137.669H20.6233C20.5205 137.655 20.4261 137.605 20.3576 137.526C20.2892 137.448 20.2515 137.347 20.2515 137.242C20.2515 137.138 20.2892 137.037 20.3576 136.958C20.4261 136.879 20.5205 136.829 20.6233 136.815H27.6958C27.7986 136.829 27.893 136.879 27.9614 136.958C28.0299 137.037 28.0676 137.138 28.0676 137.242C28.0676 137.347 28.0299 137.448 27.9614 137.526C27.893 137.605 27.7986 137.655 27.6958 137.669Z" fill="#3D525D"/>
<path d="M175.939 7.77837C175.883 7.77837 175.83 7.75608 175.79 7.71641C175.751 7.67673 175.729 7.62292 175.729 7.56681V0.409055C175.729 0.352011 175.751 0.297303 175.791 0.256967C175.831 0.216631 175.886 0.19397 175.942 0.19397C175.999 0.19397 176.053 0.216631 176.093 0.256967C176.133 0.297303 176.155 0.352011 176.155 0.409055V7.55976C176.156 7.58873 176.151 7.6176 176.141 7.64457C176.13 7.67154 176.114 7.69603 176.094 7.71653C176.074 7.73703 176.049 7.7531 176.023 7.76374C175.996 7.77437 175.967 7.77936 175.939 7.77837Z" fill="#3D525D"/>
<path d="M175.939 7.98989C175.826 7.98989 175.717 7.94456 175.637 7.86389C175.557 7.78322 175.512 7.6738 175.512 7.55971V0.40901C175.512 0.292116 175.558 0.180011 175.64 0.097355C175.722 0.0146986 175.833 -0.0317383 175.949 -0.0317383C176.065 -0.0317383 176.176 0.0146986 176.258 0.097355C176.34 0.180011 176.386 0.292116 176.386 0.40901V7.55971C176.386 7.61803 176.374 7.67575 176.352 7.72937C176.329 7.78299 176.296 7.83139 176.254 7.87162C176.212 7.91186 176.162 7.94309 176.108 7.96342C176.054 7.98375 175.996 7.99275 175.939 7.98989Z" fill="#3D525D"/>
<path d="M179.475 4.21008H172.402C172.346 4.21008 172.292 4.18742 172.252 4.14708C172.212 4.10675 172.189 4.05204 172.189 3.99499C172.189 3.93795 172.212 3.88324 172.252 3.8429C172.292 3.80257 172.346 3.77991 172.402 3.77991H179.475C179.531 3.77991 179.586 3.80257 179.626 3.8429C179.666 3.88324 179.688 3.93795 179.688 3.99499C179.688 4.05204 179.666 4.10675 179.626 4.14708C179.586 4.18742 179.531 4.21008 179.475 4.21008Z" fill="#3D525D"/>
<path d="M179.475 4.42163H172.402C172.342 4.42944 172.281 4.42425 172.223 4.40638C172.165 4.38851 172.112 4.35839 172.066 4.31802C172.021 4.27764 171.984 4.22795 171.96 4.17225C171.935 4.11655 171.922 4.05612 171.922 3.99499C171.922 3.93386 171.935 3.87343 171.96 3.81773C171.984 3.76203 172.021 3.71234 172.066 3.67197C172.112 3.63159 172.165 3.60147 172.223 3.5836C172.281 3.56574 172.342 3.56053 172.402 3.56835H179.475C179.535 3.56053 179.596 3.56574 179.654 3.5836C179.712 3.60147 179.765 3.63159 179.811 3.67197C179.856 3.71234 179.893 3.76203 179.918 3.81773C179.943 3.87343 179.956 3.93386 179.956 3.99499C179.956 4.05612 179.943 4.11655 179.918 4.17225C179.893 4.22795 179.856 4.27764 179.811 4.31802C179.765 4.35839 179.712 4.38851 179.654 4.40638C179.596 4.42425 179.535 4.42944 179.475 4.42163Z" fill="#3D525D"/>
<path d="M14.6899 26.9739C14.6046 26.9739 14.5229 26.9397 14.4626 26.8789C14.4023 26.818 14.3684 26.7355 14.3684 26.6495V15.9234C14.3797 15.8465 14.4181 15.7762 14.4764 15.7255C14.5348 15.6747 14.6093 15.6467 14.6864 15.6467C14.7635 15.6467 14.838 15.6747 14.8963 15.7255C14.9547 15.7762 14.993 15.8465 15.0044 15.9234V26.6495C15.0044 26.7343 14.9715 26.8158 14.9127 26.8764C14.8539 26.937 14.7739 26.972 14.6899 26.9739Z" fill="#3D525D"/>
<path d="M14.6899 27.2982C14.5212 27.2982 14.3595 27.2306 14.2402 27.1102C14.121 26.9899 14.054 26.8267 14.054 26.6565V15.9233C14.054 15.7531 14.121 15.5899 14.2402 15.4696C14.3595 15.3492 14.5212 15.2816 14.6899 15.2816C14.8586 15.2816 15.0203 15.3492 15.1396 15.4696C15.2589 15.5899 15.3259 15.7531 15.3259 15.9233V26.6494C15.3268 26.7343 15.311 26.8185 15.2795 26.8972C15.248 26.9758 15.2013 27.0474 15.1421 27.1077C15.083 27.1681 15.0125 27.216 14.9349 27.2487C14.8573 27.2814 14.774 27.2982 14.6899 27.2982Z" fill="#3D525D"/>
<path d="M19.9875 21.6213H9.35776C9.31205 21.6282 9.26541 21.625 9.22103 21.612C9.17664 21.5991 9.13555 21.5766 9.10055 21.5461C9.06555 21.5157 9.03747 21.478 9.01823 21.4356C8.99898 21.3932 8.98901 21.3471 8.98901 21.3005C8.98901 21.2538 8.99898 21.2078 9.01823 21.1654C9.03747 21.123 9.06555 21.0853 9.10055 21.0548C9.13555 21.0243 9.17664 21.0019 9.22103 20.9889C9.26541 20.9759 9.31205 20.9727 9.35776 20.9796H19.9875C20.0332 20.9727 20.0798 20.9759 20.1242 20.9889C20.1686 21.0019 20.2097 21.0243 20.2447 21.0548C20.2797 21.0853 20.3078 21.123 20.327 21.1654C20.3462 21.2078 20.3562 21.2538 20.3562 21.3005C20.3562 21.3471 20.3462 21.3932 20.327 21.4356C20.3078 21.478 20.2797 21.5157 20.2447 21.5461C20.2097 21.5766 20.1686 21.5991 20.1242 21.612C20.0798 21.625 20.0332 21.6282 19.9875 21.6213Z" fill="#3D525D"/>
<path d="M19.9874 21.9457H9.35765C9.18898 21.9457 9.02722 21.8781 8.90795 21.7577C8.78868 21.6374 8.72168 21.4742 8.72168 21.304C8.72168 21.1338 8.78868 20.9705 8.90795 20.8502C9.02722 20.7298 9.18898 20.6622 9.35765 20.6622H19.9874C20.156 20.6622 20.3178 20.7298 20.4371 20.8502C20.5563 20.9705 20.6233 21.1338 20.6233 21.304C20.6233 21.4742 20.5563 21.6374 20.4371 21.7577C20.3178 21.8781 20.156 21.9457 19.9874 21.9457Z" fill="#3D525D"/>
<path d="M40.3711 61.5168V62.9037H45.5427V64.2435H40.3711V66.9938H38.0182V64.2435H35.6421V62.9037H38.0182V50.5392H44.4245C46.5521 50.5392 48.2139 51.0172 49.4097 51.9731C50.6055 52.9133 51.2034 54.2611 51.2034 56.0162C51.2034 57.7871 50.6055 59.1504 49.4097 60.1064C48.2139 61.0466 46.5521 61.5168 44.4245 61.5168H40.3711ZM48.8506 56.0397C48.8506 54.9271 48.4701 54.073 47.7091 53.4775C46.9481 52.882 45.8533 52.5843 44.4245 52.5843H40.3711V59.5657H44.4245C45.8377 59.5657 46.9248 59.2601 47.6858 58.649C48.4623 58.0221 48.8506 57.1524 48.8506 56.0397Z" fill="#3D525D"/>
</g>
<defs>
<clipPath id="clip0">
<rect width="268" height="286" fill="white"/>
</clipPath>
</defs>
</svg>
