<svg width="297" height="236" viewBox="0 0 297 236" fill="none" xmlns="http://www.w3.org/2000/svg">
<path d="M246.355 159.639L235.108 168.53C235.108 168.53 226.12 161.061 226.528 157.591C226.937 154.121 234.291 147.952 237.776 148.699C241.26 149.446 246.355 159.639 246.355 159.639Z" fill="#DAE2F3"/>
<path d="M275.675 199.181L264.404 207.952C264.404 207.952 269.547 218.482 272.983 218.892C276.42 219.302 284.182 213.591 284.23 210C284.278 206.41 275.675 199.181 275.675 199.181Z" fill="#DAE2F3"/>
<path d="M231.359 173.784L231.479 188.241C231.479 188.241 220.088 190.796 217.612 188.241C215.137 185.687 214.729 176.193 217.492 173.784C220.256 171.374 231.359 173.784 231.359 173.784Z" fill="#DAE2F3"/>
<path d="M235.949 158.41C231.009 162.311 227.333 167.593 225.387 173.588C223.44 179.584 223.311 186.023 225.014 192.092C226.718 198.162 230.178 203.588 234.957 207.686C239.737 211.783 245.62 214.368 251.865 215.112C258.109 215.857 264.433 214.729 270.038 211.869C275.642 209.01 280.276 204.549 283.352 199.05C286.427 193.551 287.808 187.26 287.318 180.974C286.829 174.688 284.491 168.689 280.601 163.735C278.018 160.446 274.814 157.699 271.172 155.651C267.53 153.603 263.522 152.294 259.375 151.8C255.229 151.305 251.026 151.634 247.007 152.769C242.987 153.903 239.23 155.82 235.949 158.41ZM265.966 196.627C263.358 198.713 260.19 199.974 256.866 200.251C253.541 200.527 250.21 199.807 247.295 198.18C244.38 196.554 242.013 194.095 240.495 191.116C238.977 188.138 238.376 184.774 238.77 181.452C239.163 178.131 240.532 175.001 242.704 172.462C244.875 169.923 247.75 168.088 250.964 167.191C254.178 166.294 257.585 166.376 260.753 167.425C263.92 168.475 266.705 170.445 268.753 173.085C271.463 176.586 272.69 181.016 272.169 185.417C271.647 189.818 269.419 193.836 265.966 196.603V196.627Z" fill="#5C83BB"/>
<path d="M233.57 194.097L240.467 206.675C240.467 206.675 231.648 214.362 228.307 213.398C224.966 212.434 220.04 204.145 221.41 200.819C222.78 197.494 233.57 194.097 233.57 194.097Z" fill="#5C83BB"/>
<path d="M279.712 174.675L271.301 163.036C271.301 163.036 279.111 154.338 282.548 154.868C285.985 155.398 291.873 163.036 290.935 166.506C289.998 169.976 279.712 174.675 279.712 174.675Z" fill="#5C83BB"/>
<path d="M251.45 157.35L265.341 160.844C265.341 160.844 270.508 150.338 268.729 147.35C266.951 144.362 257.699 141.687 254.839 143.856C251.979 146.024 251.45 157.35 251.45 157.35Z" fill="#5C83BB"/>
<path d="M258.371 211.567L244.481 208.073C244.481 208.073 239.314 218.579 241.116 221.567C242.919 224.554 252.147 227.229 255.007 225.06C257.867 222.892 258.371 211.567 258.371 211.567Z" fill="#5C83BB"/>
<path d="M281.082 194.193L280.962 179.735C280.962 179.735 292.377 177.181 294.829 179.615C297.28 182.048 297.713 191.663 294.949 194.072C292.185 196.482 281.082 194.193 281.082 194.193Z" fill="#5C83BB"/>
<path d="M84.1366 209.229C84.9221 210.543 85.1559 212.115 84.7864 213.601C84.417 215.088 83.4745 216.366 82.1659 217.157C80.8557 217.944 79.2873 218.179 77.805 217.808C76.3227 217.438 75.0475 216.493 74.2592 215.181L23.6229 130.843C23.2302 130.192 22.9696 129.469 22.8561 128.716C22.7426 127.964 22.7784 127.196 22.9615 126.457C23.1446 125.718 23.4713 125.023 23.923 124.411C24.3747 123.799 24.9424 123.283 25.5936 122.892C26.9038 122.104 28.4721 121.87 29.9545 122.24C31.4368 122.61 32.712 123.555 33.5003 124.868L84.1366 209.229Z" fill="#6581C0"/>
<path d="M21.2438 104.337L29.2706 117.759L19.4173 123.615L11.3664 110.193C9.22 113.016 8.11909 116.499 8.25226 120.046C8.38543 123.593 9.74439 126.983 12.0964 129.636C14.4484 132.289 17.6472 134.039 21.1448 134.588C24.6425 135.136 28.2214 134.448 31.2688 132.641C34.3162 130.835 36.6423 128.022 37.8489 124.685C39.0555 121.348 39.0675 117.694 37.8827 114.35C36.698 111.005 34.3903 108.177 31.3548 106.35C28.3193 104.524 24.7449 103.812 21.2438 104.337Z" fill="#6581C0"/>
<path d="M123.79 182.819H121.699V180.41H123.79C127.035 180.41 128.885 180.41 128.885 180.41V182.819C128.885 182.819 127.227 182.819 123.79 182.819ZM114.442 182.651C112.207 182.651 109.779 182.458 107.232 182.313L107.376 179.904C109.948 180.048 112.375 180.169 114.586 180.241L114.442 182.651ZM100.022 181.783C97.6189 181.591 95.2157 181.35 92.8124 181.084L93.0768 178.675C95.48 178.94 97.8833 179.181 100.287 179.374L100.022 181.783ZM85.6027 180.193C83.2475 179.872 80.8443 179.502 78.393 179.084L78.8015 176.675C81.2048 177.076 83.608 177.438 86.0112 177.759L85.6027 180.193ZM71.1833 177.783C68.8281 177.301 66.4248 176.779 63.9735 176.217L64.5263 173.807C66.8654 174.37 69.2046 174.884 71.5437 175.35L71.1833 177.783ZM57.2204 174.217C54.8172 173.542 52.4139 172.795 50.2751 172.048L51.0441 169.759C53.231 170.506 55.5382 171.205 57.8933 171.88L57.2204 174.217ZM43.4258 169.542C41.0226 168.627 38.8837 167.639 36.7448 166.627L37.7782 164.458C39.893 165.47 42.08 166.434 44.315 167.325L43.4258 169.542ZM30.2561 163.229C28.0931 161.976 26.0023 160.675 24.0797 159.325L25.4496 157.35C27.3241 158.651 29.3428 159.952 31.4577 161.157L30.2561 163.229ZM18.2398 154.795C16.395 153.18 14.6532 151.449 13.0248 149.615L14.8272 148.024C16.3962 149.783 18.0738 151.441 19.85 152.988L18.2398 154.795ZM8.62688 143.783C7.26716 141.728 6.06989 139.568 5.04604 137.325L7.233 136.337C8.2005 138.464 9.33354 140.51 10.6216 142.458L8.62688 143.783ZM2.52265 130.386C1.87085 128.015 1.39688 125.598 1.10472 123.157L3.50797 122.868C3.78656 125.187 4.23641 127.482 4.85379 129.735L2.52265 130.386ZM3.12346 115.928H0.720215C0.760266 113.51 0.936789 111.097 1.24893 108.699L3.65217 109.012C3.32955 111.321 3.13697 113.646 3.07538 115.976L3.12346 115.928ZM4.82976 101.928L2.42651 101.398C2.95523 98.9881 3.60411 96.723 4.34911 94.3375L6.75236 95.0604C6.03138 97.3495 5.35847 99.6628 4.82976 101.928ZM9.03543 88.2893L6.80041 87.47C7.66558 85.0604 8.57881 82.9158 9.54011 80.7231L11.7511 81.6869C10.8379 83.7833 9.9006 86.0002 9.05947 88.2652L9.03543 88.2893ZM14.7551 75.1809L12.6163 74.0965C13.7217 71.9279 14.8753 69.7592 16.0769 67.6869L18.1678 68.8917C16.9902 70.8917 15.8366 73.0122 14.7792 75.1327L14.7551 75.1809ZM21.9649 62.8194L19.9702 61.4941C21.316 59.4459 22.7579 57.4459 24.1999 55.5423L26.0984 57.0122C24.6565 58.8194 23.2626 60.7712 21.9168 62.7712L21.9649 62.8194ZM30.5925 51.3255L28.7901 49.7351C30.4002 47.9038 32.1065 46.0965 33.8128 44.4339L35.4951 46.1447C33.8129 47.9038 32.1546 49.6387 30.5925 51.3255ZM98.0515 50.5544C95.5224 49.9925 93.1499 48.873 91.1061 47.2773L92.5721 45.3736C94.3328 46.7481 96.3771 47.7113 98.5562 48.1929L98.0515 50.5544ZM105.838 49.4218L104.805 47.2532C106.768 46.4075 108.357 44.8743 109.275 42.9399L111.486 43.8797C110.359 46.4059 108.338 48.4235 105.814 49.5423L105.838 49.4218ZM86.0833 41.6869C84.8399 39.4485 84.0248 36.9967 83.6801 34.458L86.0833 34.0965C86.4195 36.3364 87.1693 38.4938 88.2943 40.458L86.0833 41.6869ZM40.7582 41.5182L39.2201 39.6628C41.0947 38.0965 43.0413 36.5785 45.012 35.1809L46.4058 37.1568C44.4832 38.458 42.5606 39.9279 40.7342 41.47L40.7582 41.5182ZM108.794 37.1327C107.722 35.1325 106.307 33.3378 104.612 31.8315L106.247 30.0724C108.193 31.7691 109.82 33.8011 111.053 36.0724L108.794 37.1327ZM52.3418 33.2291L51.1162 31.1568C53.2551 29.9038 55.418 28.7471 57.5809 27.7351L58.5903 29.9279C56.4995 30.8917 54.4086 32.0483 52.3418 33.2291ZM99.1089 27.4941C97.1546 26.2933 95.0323 25.3918 92.8124 24.8194L93.4132 22.4098C95.8668 23.0209 98.2158 23.9955 100.383 25.3014L99.1089 27.4941ZM86.1074 27.2291L83.7041 26.7953C83.8988 25.7686 84.1556 24.7547 84.4732 23.7592C82.6036 23.7297 80.7338 23.8102 78.8736 24.0001L78.6333 21.5905C80.8601 21.3555 83.1005 21.275 85.3383 21.3496C85.5787 20.7873 85.835 20.217 86.1074 19.6387L88.2703 20.6989C87.2583 22.7677 86.5307 24.9644 86.1074 27.2291ZM65.1751 27.2291L64.358 24.8194C66.6659 24.0008 69.0165 23.309 71.3995 22.7471L71.9523 25.1568C69.6574 25.7236 67.395 26.4154 65.1751 27.2291ZM92.0193 14.8676L90.1208 13.3977C91.5972 11.4675 93.2116 9.6474 94.9513 7.95196L96.6096 9.6869C94.9474 11.29 93.4051 13.0135 91.9953 14.8435L92.0193 14.8676ZM102.113 5.06039L100.647 3.15678C102.041 2.09653 103.507 1.03629 105.045 0.0483398L106.367 2.04834C104.877 2.9881 103.459 4.00015 102.161 5.0363L102.113 5.06039Z" fill="#3D525D"/>
<path d="M142.5 236C209.603 236 264 233.09 264 229.5C264 225.91 209.603 223 142.5 223C75.3974 223 21 225.91 21 229.5C21 233.09 75.3974 236 142.5 236Z" fill="#E5E5E5"/>
<path d="M32.2989 152.145C27.9299 153.306 24.0024 155.74 21.0128 159.139C18.0233 162.538 16.106 166.749 15.5034 171.241C14.9008 175.732 15.6399 180.302 17.6273 184.372C19.6148 188.442 22.7612 191.83 26.6689 194.108C30.5766 196.385 35.0701 197.45 39.5811 197.167C44.0921 196.884 48.4182 195.266 52.0124 192.518C55.6065 189.77 58.3074 186.015 59.7734 181.729C61.2394 177.442 61.4048 172.815 60.2486 168.434C59.4807 165.524 58.1485 162.794 56.3282 160.401C54.5078 158.007 52.2349 155.996 49.6394 154.484C47.0439 152.971 44.1766 151.986 41.2012 151.585C38.2259 151.183 35.2009 151.374 32.2989 152.145ZM41.215 185.88C38.917 186.487 36.4909 186.398 34.2436 185.623C31.9963 184.848 30.0286 183.422 28.5894 181.526C27.1502 179.63 26.3042 177.348 26.1582 174.97C26.0122 172.592 26.5728 170.223 27.7692 168.164C28.9657 166.105 30.7441 164.449 32.8797 163.403C35.0153 162.358 37.4121 161.971 39.767 162.291C42.122 162.611 44.3293 163.625 46.1099 165.203C47.8905 166.781 49.1644 168.853 49.7705 171.157C50.1838 172.692 50.29 174.293 50.0831 175.87C49.8762 177.446 49.3602 178.965 48.5649 180.341C47.7696 181.716 46.7107 182.92 45.4493 183.883C44.1878 184.846 42.7487 185.549 41.215 185.952V185.88Z" fill="#B0B0B0"/>
<path d="M38.8116 155.928L28.8382 158.554C28.8382 158.554 25.041 151.036 26.2907 148.916C27.5404 146.795 34.1734 144.747 36.2642 146.289C38.355 147.832 38.8116 155.928 38.8116 155.928Z" fill="#B0B0B0"/>
<path d="M46.8863 190.41L36.9128 193.036C36.9128 193.036 37.2974 201.446 39.4603 202.675C41.6232 203.904 48.3763 202.386 49.4337 200.024C50.4911 197.663 46.8863 190.41 46.8863 190.41Z" fill="#B0B0B0"/>
<path d="M24.8969 160.964L20.8835 170.482C20.8835 170.482 12.6163 168.892 11.6791 166.578C10.7418 164.265 13.2412 157.783 15.6444 157.06C18.0477 156.337 24.8969 160.964 24.8969 160.964Z" fill="#B0B0B0"/>
<path d="M20.4509 174.988L21.4122 185.277C21.4122 185.277 13.4093 187.807 11.4868 186.217C9.56416 184.627 8.67498 177.735 10.5255 175.928C12.376 174.121 20.4509 174.988 20.4509 174.988Z" fill="#B0B0B0"/>
<path d="M56.4997 175.422L54.2646 165.326C54.2646 165.326 61.9069 161.807 64.0218 163.157C66.1367 164.506 67.843 171.229 66.2328 173.253C64.6226 175.277 56.4997 175.422 56.4997 175.422Z" fill="#FFDA8A"/>
<path d="M42.8252 155.88L50.9962 162.169C50.9962 162.169 57.3888 156.699 57.0764 154.217C56.764 151.735 51.4048 147.326 48.9054 147.928C46.406 148.53 42.8252 155.88 42.8252 155.88Z" fill="#B0B0B0"/>
<path d="M31.9144 193.639L23.7434 187.35C23.7434 187.35 17.3508 192.82 17.6632 195.278C17.9756 197.735 23.3348 202.169 25.8342 201.567C28.3336 200.964 31.9144 193.639 31.9144 193.639Z" fill="#B0B0B0"/>
<path d="M51.8613 188.675L55.8747 179.157C55.8747 179.157 64.1419 180.747 65.0792 183.06C66.0164 185.374 63.5411 191.856 61.0657 192.578C58.5904 193.301 51.8613 188.675 51.8613 188.675Z" fill="#FFDA8A"/>
<path d="M202.424 92.8677L184.328 97.687C184.328 97.687 185.049 112.988 188.966 115.277C192.883 117.566 205.14 114.771 207.063 110.458C208.985 106.145 202.424 92.8677 202.424 92.8677Z" fill="#FFDA8A"/>
<path d="M154.6 64.8436L156.354 83.5424C156.354 83.5424 141.79 88.1449 138.306 85.2533C134.821 82.3617 133.187 69.8557 136.551 66.5545C139.916 63.2533 154.6 64.8436 154.6 64.8436Z" fill="#FFDA8A"/>
<path d="M175.94 23.3013C167.999 25.4036 160.859 29.8197 155.421 35.991C149.983 42.1623 146.492 49.8118 145.39 57.9722C144.288 66.1326 145.623 74.4374 149.228 81.8366C152.833 89.2358 158.546 95.3971 165.643 99.5414C172.74 103.686 180.903 105.627 189.101 105.12C197.298 104.612 205.161 101.679 211.696 96.691C218.231 91.703 223.144 84.8841 225.814 77.0965C228.484 69.3089 228.791 60.9024 226.697 52.9399C225.306 47.6518 222.889 42.6904 219.585 38.3389C216.281 33.9874 212.155 30.331 207.442 27.5788C202.728 24.8265 197.52 23.0321 192.115 22.2982C186.71 21.5642 181.214 21.9051 175.94 23.3013ZM192.114 84.7471C187.937 85.8521 183.526 85.6903 179.44 84.2822C175.355 82.874 171.777 80.2827 169.16 76.836C166.543 73.3892 165.004 69.2418 164.738 64.9181C164.471 60.5945 165.49 56.2887 167.664 52.5453C169.838 48.8019 173.071 45.7889 176.952 43.8874C180.834 41.986 185.192 41.2813 189.473 41.8626C193.754 42.4439 197.768 44.285 201.005 47.1531C204.243 50.0213 206.56 53.7876 207.663 57.976C209.135 63.5901 208.324 69.5606 205.409 74.5758C202.493 79.591 197.712 83.2406 192.114 84.723V84.7471Z" fill="#5C83BB"/>
<path d="M187.74 30.1688L169.644 34.9881C169.644 34.9881 162.746 21.3255 165.03 17.3978C167.313 13.47 179.449 9.83149 183.126 12.5785C186.803 15.3255 187.74 30.1688 187.74 30.1688Z" fill="#5C83BB"/>
<path d="M162.482 39.2772L155.272 56.5543C155.272 56.5543 140.276 53.6868 138.45 49.47C136.623 45.2531 141.237 33.47 145.659 32.1929C150.081 30.9158 162.482 39.2772 162.482 39.2772Z" fill="#5C83BB"/>
<path d="M219.92 65.5905L215.882 47.2772C215.882 47.2772 229.773 40.9158 233.594 43.3495C237.415 45.7832 240.563 58.0242 237.631 61.6869C234.7 65.3495 219.92 65.5905 219.92 65.5905Z" fill="#5C83BB"/>
<path d="M195.046 30.1206L209.898 41.5423C209.898 41.5423 221.53 31.6146 220.929 27.0844C220.328 22.5543 210.619 14.5543 206.077 15.6628C201.535 16.7712 195.046 30.1206 195.046 30.1206Z" fill="#5C83BB"/>
<path d="M175.243 98.6988L160.391 87.2771C160.391 87.2771 148.76 97.1807 149.36 101.735C149.961 106.289 159.67 114.265 164.212 113.157C168.755 112.048 175.243 98.6988 175.243 98.6988Z" fill="#FFDA8A"/>
<path d="M211.484 89.7109L218.694 72.4338C218.694 72.4338 233.69 75.3013 235.396 79.5182C237.103 83.735 232.609 95.5182 228.187 96.7953C223.765 98.0724 211.484 89.7109 211.484 89.7109Z" fill="#FFDA8A"/>
<path d="M176.421 181.325H116.749V220.603H176.421V181.325Z" fill="#DBDBDB"/>
<path d="M237.92 58.5544H55.8745C54.6513 58.5575 53.4408 58.8038 52.3131 59.2789C51.1855 59.7541 50.1629 60.4487 49.3047 61.3227C48.4465 62.1966 47.7697 63.2325 47.3133 64.3704C46.8569 65.5083 46.6302 66.7257 46.646 67.952V174.506H247.173V67.952C247.188 66.7236 246.961 65.5043 246.503 64.3648C246.045 63.2253 245.366 62.1884 244.505 61.3141C243.645 60.4398 242.619 59.7457 241.489 59.272C240.358 58.7982 239.145 58.5543 237.92 58.5544Z" fill="#DEDEDE"/>
<path d="M237.92 210.048H55.8745C54.6565 210.048 53.4505 209.807 52.3262 209.337C51.2018 208.868 50.1812 208.18 49.3234 207.313C48.4655 206.446 47.7872 205.417 47.3277 204.286C46.8682 203.155 46.6365 201.944 46.646 200.723V174.482H247.172V200.723C247.179 201.945 246.944 203.157 246.482 204.288C246.02 205.419 245.339 206.448 244.48 207.314C243.62 208.181 242.598 208.868 241.472 209.338C240.346 209.807 239.139 210.048 237.92 210.048Z" fill="#3D525D"/>
<path d="M221.385 220.603H56.7634V229.735H221.385V220.603Z" fill="#C4C4C4"/>
<path d="M238.593 68.4341H53.4473V174.482H238.593V68.4341Z" fill="white"/>
<path d="M283.822 174.554C281.779 173.759 290.142 161.807 281.034 156.964C269.018 150.578 282.26 130.458 277.213 130.94C269.667 131.687 267.6 143.446 268.922 156.603C270.652 173.47 262.096 168.868 261.928 168.771C257.122 166.554 254.935 168.771 257.122 183.229C259.309 197.687 264.836 208.916 269.595 208.217C269.871 208.169 270.138 208.08 270.388 207.952C270.686 208.036 270.992 208.093 271.301 208.121C272.017 208.137 272.726 207.98 273.368 207.663C279.352 207.976 279.712 205.422 284.735 192.434C290.214 178.169 289.854 176.892 283.822 174.554Z" fill="#6BC7B8"/>
<path d="M283.87 228.675H262.601L260.27 204.217H286.201L283.87 228.675Z" fill="#FFDA8A"/>
<path d="M282.909 100.097C282.909 122.362 255.392 134.675 233.186 134.675C210.98 134.675 194.734 122.048 194.734 99.7834C194.734 77.5184 213.744 65.3738 235.949 65.3738C258.155 65.3738 282.909 77.8316 282.909 100.097Z" fill="#E10000"/>
<path d="M221.66 94H224.9V108H221.66V94ZM231.123 96.64H226.643V94H238.843V96.64H234.363V108H231.123V96.64ZM240.586 94H243.826V108H240.586V94ZM247.148 94H250.388V105.36H257.408V108H247.148V94Z" fill="white"/>
<path d="M199.348 145.109L213.984 127.302L201.583 109.47L199.348 145.109Z" fill="#E10000"/>
<path d="M22.2532 77.7111C22.2532 96.1689 47.6074 110.458 66.0162 110.458C74.8598 110.458 83.3413 106.936 89.5947 100.666C95.8481 94.3955 99.3612 85.8915 99.3612 77.0243C99.3612 68.1571 95.8481 59.6531 89.5947 53.3831C83.3413 47.113 74.8598 43.5906 66.0162 43.5906C47.5833 43.5906 22.2532 59.2532 22.2532 77.7111Z" fill="#FF4013"/>
<path d="M95.6003 114.602L83.8245 105.277L93.7498 85.0603L95.6003 114.602Z" fill="#FF4013"/>
<path d="M159.887 66.1685L157.364 65.4215L160.247 62.4336L170.87 66.1203L159.887 66.1685Z" fill="#F0C540"/>
<path d="M159.646 70.3131L170.87 66.1203L159.959 64.6746L159.646 70.3131Z" fill="#FAD77E"/>
<path d="M170.87 66.1203L160.127 63.2046L160.92 58.0962L170.87 66.1203Z" fill="#FAD784"/>
<path d="M157.364 65.4215L159.959 64.6746L159.887 66.1685L157.364 65.4215Z" fill="#DBAB2F"/>
<path d="M160.824 111.301C158.414 111.28 156.008 111.127 153.615 110.843L154.143 106.024C159.911 106.675 166.159 106.434 167.385 105.518C168.43 101.423 168.43 97.1307 167.385 93.036L171.999 91.7107C173.373 96.7998 173.373 102.164 171.999 107.253C170.846 110.385 166.135 111.301 160.824 111.301Z" fill="#1E2127"/>
<path d="M159.262 108.843C159.262 109.796 158.885 110.709 158.213 111.382C157.542 112.055 156.631 112.434 155.681 112.434H152.1C151.151 112.434 150.24 112.055 149.568 111.382C148.897 110.709 148.52 109.796 148.52 108.843C148.52 107.891 148.897 106.978 149.568 106.305C150.24 105.631 151.151 105.253 152.1 105.253H155.681C156.631 105.253 157.542 105.631 158.213 106.305C158.885 106.978 159.262 107.891 159.262 108.843Z" fill="#3D525D"/>
<path d="M174.955 85.4458C174.955 86.7988 174.688 88.1384 174.169 89.3872C173.649 90.6361 172.889 91.7693 171.93 92.7215C170.971 93.6738 169.834 94.4261 168.584 94.935C167.333 95.444 165.995 95.6995 164.645 95.6868C161.937 95.6868 159.339 94.6078 157.423 92.6873C155.508 90.7667 154.432 88.1619 154.432 85.4458V75.6868C154.432 72.9707 155.508 70.3659 157.423 68.4453C159.339 66.5248 161.937 65.4458 164.645 65.4458C167.354 65.4458 169.952 66.5248 171.868 68.4453C173.783 70.3659 174.859 72.9707 174.859 75.6868L174.955 85.4458Z" fill="#3D525D"/>
<path d="M120.57 89.4698C121.435 109.47 132.586 125.325 145.588 124.867C158.589 124.41 168.322 107.831 167.457 87.8313C166.592 67.8312 155.441 51.9517 142.439 52.4096C129.438 52.8674 119.705 69.4457 120.57 89.4698Z" fill="#FCC192"/>
<path d="M164.381 70.3132C164.381 70.3132 151.884 72.3614 130.375 64.2168C130.375 64.2168 113.841 80.0482 124.703 104.867C124.703 104.867 108.866 90.4096 116.676 65.3976C124.487 40.3855 140.709 45.012 149.433 41.9277C158.156 38.8433 168.082 44.3373 174.546 38.506C181.011 32.6747 183.126 55.1807 164.381 70.3132Z" fill="#2F3C57"/>
<path d="M116.268 89.301C116.412 94.7708 118.863 99.1082 121.747 98.9395C124.631 98.7708 126.818 94.1202 126.554 88.7467C126.289 83.3732 123.934 78.9395 121.074 79.1082C118.215 79.2768 116.1 83.807 116.268 89.301Z" fill="#FCC192"/>
<path d="M142.512 129C115.263 129 92.3992 148.569 86.0002 175H199C192.625 148.55 169.738 129 142.512 129Z" fill="#1E2127"/>
<path d="M152.389 138.506L144.025 148.482L135.662 138.506V119.638H152.389V138.506Z" fill="#FCC192"/>
<path d="M126.962 86.8434C126.966 88.1883 126.704 89.5206 126.194 90.7643C125.684 92.008 124.934 93.1387 123.988 94.0919C123.042 95.0451 121.917 95.8021 120.679 96.3197C119.441 96.8373 118.114 97.1053 116.773 97.1085C114.064 97.1085 111.466 96.0295 109.55 94.109C107.635 92.1884 106.559 89.5836 106.559 86.8675V77.0603C106.559 74.3442 107.635 71.7394 109.55 69.8188C111.466 67.8983 114.064 66.8193 116.773 66.8193C119.481 66.8193 122.079 67.8983 123.995 69.8188C125.91 71.7394 126.986 74.3442 126.986 77.0603L126.962 86.8434Z" fill="#3D525D"/>
<path d="M146.957 41.47H131C126.277 41.47 121.747 43.3512 118.408 46.6997C115.068 50.0482 113.192 54.5898 113.192 59.3254V70.3374H118.287V61.1326C118.287 57.3365 119.791 53.6959 122.468 51.0116C125.145 48.3274 128.776 46.8194 132.562 46.8194H145.419C149.205 46.8194 152.836 48.3274 155.514 51.0116C158.191 53.6959 159.695 57.3365 159.695 61.1326V70.3133H164.645V59.3013C164.639 54.5907 162.777 50.0735 159.464 46.7336C156.151 43.3937 151.655 41.5018 146.957 41.47Z" fill="#1E2127"/>
<path d="M135.662 54.2409C135.662 54.2409 141.766 42.6265 149.865 41.7831C157.964 40.9397 167.121 42.771 170.822 40.6265C174.523 38.4819 179.906 34.2168 179.113 41.7831C178.32 49.3494 181.3 66.4578 165.366 75.012C165.366 75.012 135.83 74.4819 130.351 64.2168L135.662 54.2409Z" fill="#2F3C57"/>
</svg>
