<svg width="18" height="19" viewBox="0 0 18 19" fill="none" xmlns="http://www.w3.org/2000/svg">
<path fill-rule="evenodd" clip-rule="evenodd" d="M12.4081 1.68063C11.7396 1.68063 11.0984 1.94643 10.6257 2.41954L2.90963 10.142C2.12181 10.9305 1.67923 11.9999 1.67923 13.115C1.67923 14.2301 2.12181 15.2995 2.90963 16.0879C3.69745 16.8764 4.76597 17.3194 5.88011 17.3194C6.99426 17.3194 8.06278 16.8764 8.8506 16.0879L16.5667 8.36544C16.8946 8.03728 17.4262 8.03728 17.7541 8.36544C18.082 8.69361 18.082 9.22564 17.7541 9.5538L10.038 17.2763C8.93526 18.3799 7.43962 19 5.88011 19C4.32061 19 2.82497 18.3799 1.72223 17.2763C0.619493 16.1726 0 14.6758 0 13.115C0 11.5542 0.619493 10.0573 1.72223 8.95367L9.43831 1.23119C10.226 0.442887 11.2942 0 12.4081 0C13.522 0 14.5903 0.442887 15.378 1.23119C16.1656 2.01948 16.6081 3.08865 16.6081 4.20347C16.6081 5.31829 16.1656 6.38745 15.378 7.17575L7.65346 14.8982C7.18091 15.3712 6.54 15.6368 5.87171 15.6368C5.20342 15.6368 4.56251 15.3712 4.08996 14.8982C3.61741 14.4253 3.35194 13.7838 3.35194 13.115C3.35194 12.4461 3.61741 11.8047 4.08996 11.3317L11.2187 4.20552C11.5467 3.87755 12.0784 3.87788 12.4061 4.20624C12.7338 4.53459 12.7334 5.06663 12.4054 5.3946L5.27736 12.5201C5.11994 12.6779 5.03117 12.892 5.03117 13.115C5.03117 13.3381 5.11972 13.5521 5.27736 13.7098C5.43499 13.8676 5.64878 13.9562 5.87171 13.9562C6.09464 13.9562 6.30845 13.8676 6.46609 13.7098L14.1906 5.98734C14.6631 5.51425 14.9289 4.87241 14.9289 4.20347C14.9289 3.53438 14.6633 2.89266 14.1906 2.41954C13.7178 1.94643 13.0767 1.68063 12.4081 1.68063Z" fill="black"/>
</svg>
