<svg width="224" height="47" viewBox="0 0 224 47" fill="none" xmlns="http://www.w3.org/2000/svg">
<path d="M92.4797 23.7657C92.4797 20.3097 92.4797 10.5411 92.4797 10.5411H114.896V15.6802H97.0557C97.0557 15.6802 97.0557 16.6866 97.0557 18.875C97.0557 21.269 97.0557 21.5088 97.0557 21.5088H111.275V26.5323H97.0557V32.2752H114.88V37.1274C109.166 37.0546 92.4641 37.1274 92.4641 37.1274C92.4641 37.2644 92.4641 27.2346 92.4641 23.7743L92.4797 23.7657Z" fill="#3D525D"/>
<path d="M201.584 23.7657C201.584 20.3097 201.584 10.5411 201.584 10.5411H224V15.6802H206.156C206.156 15.6802 206.156 16.6866 206.156 18.875C206.156 21.269 206.156 21.5088 206.156 21.5088H220.387V26.5323H206.156V32.2881H223.981V37.1146C218.266 37.0417 201.564 37.1146 201.564 37.1146C201.564 37.2516 201.564 27.2218 201.564 23.7614L201.584 23.7657Z" fill="#1E2127"/>
<path d="M145.693 16.875C145.693 12.661 146.788 10.7038 150.514 10.5497H165.201C165.419 10.5455 165.636 10.5555 165.852 10.5796C168.312 10.9051 169.961 13.0892 169.988 16.1813C170.031 21.3204 170.058 26.4209 169.988 31.5386C169.926 35.1917 168.234 37.0075 164.897 37.0589C160.123 37.1317 156.544 37.0589 151.77 37.0974C148.92 37.0974 145.712 35.7655 145.712 31.8598C145.693 28.6693 145.697 18.9221 145.693 16.875ZM157.975 15.7016C150.292 15.7016 150.292 15.7016 150.292 23.9028C150.292 32.3181 150.292 32.3181 158.088 32.3095C165.494 32.3095 165.494 32.3095 165.494 24.0955C165.521 15.6845 165.521 15.6845 157.975 15.7016Z" fill="#1E2127"/>
<path d="M173.601 10.5497C173.601 10.5497 176.556 10.6267 178.392 10.5497H193.078C193.296 10.5455 193.513 10.5555 193.729 10.5796C196.189 10.9051 197.838 13.0892 197.865 16.1813C197.908 21.3204 197.935 26.4209 197.865 31.5386C197.803 35.1917 196.111 37.0075 192.774 37.0589C188 37.1317 184.421 37.0589 179.647 37.0974C177.896 37.0974 173.617 37.0974 173.617 37.0974L173.601 10.5497ZM185.852 15.6888H178.154C178.154 15.6888 178.154 19.7615 178.154 23.8771C178.154 27.8085 178.154 32.2795 178.154 32.2795C178.154 32.2795 181.822 32.2795 185.984 32.2795C193.39 32.2795 193.39 32.2795 193.39 24.0655C193.398 15.6845 193.398 15.6845 185.856 15.7016L185.852 15.6888Z" fill="#1E2127"/>
<path d="M123.008 37.1274C119.827 37.1831 118.33 35.2602 118.217 32.0911C118.007 26.7207 118.057 21.3332 118.217 15.9586C118.322 12.6353 120.205 10.6182 123.183 10.5711C128.78 10.4854 134.378 10.661 139.975 10.5711C141.67 10.5368 142.532 10.5711 142.532 10.5711L142.458 15.5988H125.759C123.343 15.723 122.641 16.1727 122.622 19.0591C122.594 21.2304 122.684 23.4103 122.684 25.5901C122.684 32.3052 122.684 32.3052 128.963 32.3138C132.347 32.3138 142.54 32.3138 142.54 32.3138C142.579 35.6071 142.54 37.1402 142.54 37.1402C142.54 37.1402 125.697 37.0803 123.008 37.1274Z" fill="#1E2127"/>
<path d="M80.2872 26.6436C80.2872 29.0804 80.2872 37.1274 80.2872 37.1274H75.6839C75.6839 37.1274 75.5435 23.6843 75.6605 18.5581C75.7072 16.4168 75.6839 15.7016 75.6839 15.7016H66.0991L66.1225 10.5625H89.8992C89.8641 12.0657 89.8407 15.7016 89.8407 15.7016H80.2872C80.2872 15.7016 80.2911 24.0783 80.2872 26.6436Z" fill="#3D525D"/>
<path d="M65.4056 10.5497L54.3397 26.695V37.1274H49.9157V26.6907C48.9763 24.3824 38.6899 10.5454 38.6899 10.5454H44.0144L52.1335 22.0784C52.1335 22.0784 59.0872 12.2627 60.0578 10.5454L65.4056 10.5497Z" fill="#3D525D"/>
<path d="M26.739 23.5987C27.5789 23.2392 28.3379 22.684 28.9637 21.9713C29.5895 21.2586 30.0672 20.4054 30.364 19.4703C31.6503 15.6888 29.83 11.3676 26.3999 10.2456C25.5387 9.96869 24.6467 9.82456 23.7494 9.81733C18.8771 9.77451 14.0049 9.78307 9.13259 9.81733C8.8836 9.8297 8.63521 9.78118 8.40536 9.67527C8.17551 9.56937 7.96992 9.40872 7.80343 9.20493C5.46474 6.6054 3.10266 4.04012 0.756177 1.45344L0.101343 0.751099H2.136L3.26247 1.95451C3.7575 2.48983 4.00306 2.76391 4.36945 3.16648C4.55579 3.40953 4.79257 3.59982 5.05984 3.72131C5.3271 3.84279 5.61703 3.89192 5.9052 3.86454C11.8767 3.86454 17.8481 3.86454 23.8352 3.86454C27.3159 3.86454 30.3835 5.00371 32.8352 7.77882C34.5196 9.7095 35.6315 12.1561 36.024 14.7955C36.4165 17.4349 36.0711 20.143 35.0336 22.5623C34.8594 22.9013 34.7659 23.2832 34.7618 23.6725C34.7578 24.0618 34.8432 24.4459 35.0102 24.7893C38.2844 32.6221 34.2969 41.5898 26.7157 43.2558C25.8404 43.4198 24.9526 43.4887 24.0651 43.4613C18.0339 43.4842 12.0027 43.4842 5.97146 43.4613C5.66566 43.4411 5.35983 43.5004 5.07878 43.6343C4.79773 43.7682 4.54937 43.9731 4.35386 44.2322C3.88223 44.8189 2.12041 46.6476 2.12041 46.6476H0L0.627549 45.9881C3.11176 43.2758 5.59857 40.5635 8.08797 37.8512C8.18206 37.7495 8.29451 37.6707 8.41805 37.6198C8.54158 37.5689 8.67347 37.5471 8.80517 37.5557C14.1452 37.5856 19.4852 37.5556 24.8252 37.6284C26.8482 37.6541 29.6117 35.4015 30.3523 32.969C31.471 29.3117 30.0912 25.2175 26.8443 23.83C26.817 23.83 26.7234 23.7914 26.6923 23.7229C26.6611 23.6544 26.739 23.5987 26.739 23.5987Z" fill="#262525"/>
<path d="M9.15224 36.4464C9.89283 35.7013 10.6451 34.969 11.3701 34.2067C12.2276 33.303 13.0851 32.4037 13.8881 31.4444C14.0356 31.2324 14.2304 31.0658 14.4537 30.9607C14.677 30.8557 14.9212 30.8158 15.1627 30.8448H23.964C24.0965 30.8448 24.2992 30.8448 24.4317 30.8448C24.4676 30.8438 24.5017 30.8276 24.5271 30.7997C24.5524 30.7719 24.5671 30.7344 24.5681 30.6949C24.5681 30.6007 24.5681 30.2024 24.5681 30.1082C24.5707 30.0905 24.5694 30.0724 24.5645 30.0553C24.5596 30.0383 24.5511 30.0227 24.5398 30.0098C24.5284 29.9969 24.5145 29.9871 24.4992 29.9812C24.4838 29.9752 24.4674 29.9733 24.4512 29.9755H23.964C21.6759 29.9755 19.3879 29.9755 17.0999 29.9755C15.0886 29.9755 13.3385 29.3031 12.1847 27.4059C11.5783 26.4511 11.2167 25.3347 11.1379 24.1736C11.059 23.0126 11.2658 21.8496 11.7365 20.8064C12.6564 18.5881 14.3597 17.2176 16.5386 17.2605C16.5386 17.2605 23.9795 17.2605 24.5603 17.2605C24.5694 17.2607 24.5783 17.2574 24.5855 17.2511C24.5926 17.2448 24.5975 17.236 24.5993 17.2262C24.5993 17.1834 24.5993 16.7979 24.5993 16.5838C24.5993 16.5566 24.5894 16.5304 24.5719 16.5111C24.5544 16.4919 24.5306 16.481 24.5057 16.481H23.6443C20.8496 16.481 18.0588 16.4596 15.264 16.481C15.001 16.4953 14.7384 16.4446 14.4956 16.3327C14.2528 16.2208 14.0358 16.0505 13.8608 15.8344C12.4264 14.207 10.953 12.6181 9.49915 11.0122C9.43324 10.9308 9.37205 10.845 9.31595 10.7552C9.2976 10.733 9.28474 10.706 9.2786 10.6767C9.27246 10.6475 9.27324 10.617 9.28087 10.5882C9.28087 10.524 9.61998 10.5411 9.74081 10.5411C14.465 10.5411 19.1852 10.5668 23.9094 10.5625C26.3962 10.5625 28.3802 11.5775 29.4443 14.1171C29.956 15.236 30.155 16.4962 30.0163 17.7391C29.8776 18.982 29.4073 20.152 28.6647 21.1019C27.4954 22.7422 25.8076 23.2432 23.9873 23.2432C21.9059 23.2432 19.8284 23.2432 17.7508 23.2432C17.5442 23.2432 17.3338 23.2432 17.1272 23.2432H16.7374C16.7188 23.2426 16.7003 23.2462 16.6831 23.2538C16.6658 23.2613 16.6501 23.2726 16.637 23.2871C16.6238 23.3015 16.6135 23.3187 16.6067 23.3377C16.5998 23.3567 16.5965 23.377 16.5971 23.3974C16.5971 23.4788 16.5971 23.5687 16.5971 23.6158C16.5971 23.6629 16.5971 23.8342 16.5971 23.9327C16.5981 23.9695 16.6121 24.0043 16.6361 24.0299C16.6601 24.0555 16.6923 24.0698 16.7257 24.0698H17.1155H20.5183C22.0034 24.0698 23.4962 23.997 24.9696 24.1426C28.0411 24.4424 30.0796 27.0804 30.0173 30.5236C29.9549 33.9668 27.7214 36.6306 24.6967 36.6863C19.5906 36.7805 14.4806 36.712 9.37052 36.712H8.87939L9.15224 36.4464Z" fill="#415058"/>
</svg>
