<svg width="22" height="16" viewBox="0 0 22 16" fill="none" xmlns="http://www.w3.org/2000/svg">
<path d="M21.2 2.80039C21 1.90039 20.1999 1.20039 19.2999 0.900391C17.5999 0.400391 10.9 0.400391 10.9 0.400391C10.9 0.400391 4.19995 0.400391 2.49995 0.900391C1.59995 1.10039 0.899952 1.90039 0.599952 2.80039C0.199952 4.50039 0.199951 7.90039 0.199951 7.90039C0.199951 7.90039 0.199951 11.4004 0.699951 13.1004C0.899951 14.0004 1.69995 14.7004 2.59995 15.0004C4.29995 15.5004 11 15.5004 11 15.5004C11 15.5004 17.7 15.5004 19.4 15.0004C20.3 14.8004 21 14.0004 21.2999 13.1004C21.7999 11.4004 21.7999 7.90039 21.7999 7.90039C21.7999 7.90039 21.7 4.50039 21.2 2.80039ZM8.89995 11.2004V4.80039L14.4 8.00039L8.89995 11.2004Z" fill="white"/>
</svg>
