<svg width="182" height="17" viewBox="0 0 182 17" fill="none" xmlns="http://www.w3.org/2000/svg">
<path d="M11.36 1.64888V15.6489H9.28V3.60888H2.08V15.6489H0V1.64888H11.36Z" fill="white"/>
<path d="M21.5402 3.40888C22.9268 2.03554 24.6668 1.34888 26.7602 1.34888C28.8535 1.34888 30.5935 2.03554 31.9802 3.40888C33.3668 4.76888 34.0602 6.51554 34.0602 8.64888C34.0602 10.7822 33.3668 12.5355 31.9802 13.9089C30.5935 15.2689 28.8535 15.9489 26.7602 15.9489C24.6668 15.9489 22.9268 15.2689 21.5402 13.9089C20.1535 12.5355 19.4602 10.7822 19.4602 8.64888C19.4602 6.51554 20.1535 4.76888 21.5402 3.40888ZM30.3802 4.92888C29.4468 3.95554 28.2402 3.46888 26.7602 3.46888C25.2802 3.46888 24.0735 3.95554 23.1402 4.92888C22.2068 5.90221 21.7402 7.14221 21.7402 8.64888C21.7402 10.1555 22.2068 11.3955 23.1402 12.3689C24.0735 13.3422 25.2802 13.8289 26.7602 13.8289C28.2402 13.8289 29.4468 13.3422 30.3802 12.3689C31.3135 11.3955 31.7802 10.1555 31.7802 8.64888C31.7802 7.14221 31.3135 5.90221 30.3802 4.92888Z" fill="white"/>
<path d="M48.9562 15.9489C46.7296 15.9489 44.9229 15.2755 43.5363 13.9289C42.1496 12.5822 41.4562 10.8222 41.4562 8.64888C41.4562 6.47554 42.1496 4.71554 43.5363 3.36888C44.9229 2.02221 46.7296 1.34888 48.9562 1.34888C50.8229 1.34888 52.4696 1.86221 53.8963 2.88888L52.6163 4.70888C51.4829 3.88221 50.2363 3.46888 48.8763 3.46888C47.3829 3.46888 46.1496 3.94221 45.1763 4.88888C44.2163 5.83554 43.7363 7.08888 43.7363 8.64888C43.7363 10.2089 44.2163 11.4622 45.1763 12.4089C46.1496 13.3555 47.3829 13.8289 48.8763 13.8289C50.2363 13.8289 51.4829 13.4155 52.6163 12.5889L53.8963 14.4089C52.4696 15.4355 50.8229 15.9489 48.9562 15.9489Z" fill="white"/>
<path d="M74.0891 1.64888L77.4891 15.6489H75.2691L72.9491 5.64888H72.9091L69.7691 13.5089H68.2091L65.0691 5.64888H65.0291L62.7091 15.6489H60.4891L63.8891 1.64888H65.5891L68.9691 10.2489H69.0091L72.3891 1.64888H74.0891Z" fill="white"/>
<path d="M114.365 1.64888V3.60888H110.425V15.6489H108.345V3.60888H104.405V1.64888H114.365Z" fill="white"/>
<path d="M126.737 1.64888C128.097 1.64888 129.157 2.04888 129.917 2.84888C130.69 3.63554 131.077 4.64888 131.077 5.88888C131.077 7.12888 130.69 8.14888 129.917 8.94888C129.144 9.73554 128.084 10.1289 126.737 10.1289H124.037V15.6489H121.957V1.64888H126.737ZM126.457 8.16888C127.19 8.16888 127.77 7.97554 128.197 7.58888C128.624 7.18888 128.837 6.62221 128.837 5.88888C128.837 5.15554 128.624 4.59554 128.197 4.20888C127.77 3.80888 127.19 3.60888 126.457 3.60888H124.037V8.16888H126.457Z" fill="white"/>
<path d="M140.857 13.6889H146.877V15.6489H138.777V1.64888H146.777V3.60888H140.857V6.92888H146.317V8.88888H140.857V13.6889Z" fill="white"/>
<path d="M163.928 1.64888V3.60888H159.988V15.6489H157.908V3.60888H153.968V1.64888H163.928Z" fill="white"/>
<path d="M176.88 7.22888C178.16 7.22888 179.213 7.60221 180.04 8.34888C180.866 9.08221 181.28 10.1155 181.28 11.4489C181.28 12.7822 180.866 13.8155 180.04 14.5489C179.213 15.2822 178.16 15.6489 176.88 15.6489H171.52V1.64888H173.6V7.22888H176.88ZM176.68 13.6889C177.426 13.6889 178.006 13.4889 178.42 13.0889C178.833 12.6889 179.04 12.1422 179.04 11.4489C179.04 10.7555 178.833 10.2089 178.42 9.80888C178.006 9.39554 177.426 9.18888 176.68 9.18888H173.6V13.6889H176.68Z" fill="white"/>
<path d="M87.4012 2.57104V14.7758L97.7586 8.50554L87.4012 2.57104Z" stroke="white" stroke-width="2" stroke-linecap="round"/>
</svg>
